<svg width="234" height="174" viewBox="0 0 234 174" fill="none" xmlns="http://www.w3.org/2000/svg">
<g clip-path="url(#clip0_3_4158)">
<path d="M234 152.911H0V153.028H234V152.911Z" fill="#EBEBEB"/>
<path d="M110.916 132.084H20.5499C19.842 132.083 19.1635 131.802 18.6634 131.302C18.1632 130.802 17.8823 130.124 17.8823 129.418V2.66643C17.8823 1.96006 18.1632 1.28255 18.6634 0.78263C19.1635 0.28271 19.842 0.00123708 20.5499 0L110.916 0C111.625 0 112.304 0.280927 112.806 0.780981C113.307 1.28103 113.588 1.95925 113.588 2.66643V129.418C113.588 129.768 113.519 130.115 113.385 130.438C113.251 130.762 113.054 131.056 112.806 131.303C112.557 131.551 112.263 131.747 111.939 131.881C111.614 132.015 111.267 132.084 110.916 132.084ZM20.5499 0.116744C19.873 0.117981 19.2243 0.387154 18.7461 0.86518C18.2679 1.34321 17.9993 1.99102 17.9993 2.66643V129.418C17.9993 130.093 18.2679 130.741 18.7461 131.219C19.2243 131.697 19.873 131.966 20.5499 131.967H110.916C111.593 131.966 112.243 131.697 112.722 131.219C113.2 130.741 113.47 130.094 113.471 129.418V2.66643C113.47 1.99059 113.2 1.34279 112.722 0.864895C112.243 0.387002 111.593 0.117978 110.916 0.116744H20.5499Z" fill="#EBEBEB"/>
<path d="M212.149 132.084H121.778C121.07 132.083 120.391 131.802 119.89 131.302C119.389 130.802 119.107 130.125 119.106 129.418V2.66643C119.107 1.95963 119.389 1.28213 119.89 0.782344C120.391 0.282558 121.07 0.00123459 121.778 0L212.149 0C212.856 0.00247134 213.533 0.284489 214.033 0.784275C214.532 1.28406 214.812 1.96087 214.812 2.66643V129.418C214.812 130.123 214.532 130.8 214.033 131.3C213.533 131.8 212.856 132.082 212.149 132.084ZM121.778 0.116744C121.101 0.117978 120.452 0.387002 119.973 0.864895C119.494 1.34279 119.224 1.99059 119.223 2.66643V129.418C119.224 130.094 119.494 130.741 119.973 131.219C120.452 131.697 121.101 131.966 121.778 131.967H212.149C212.826 131.966 213.476 131.697 213.955 131.219C214.433 130.741 214.703 130.094 214.704 129.418V2.66643C214.703 1.99059 214.433 1.34279 213.955 0.864895C213.476 0.387002 212.826 0.117978 212.149 0.116744H121.778Z" fill="#EBEBEB"/>
<path d="M93.8058 157.357H81.6378V157.474H93.8058V157.357Z" fill="#EBEBEB"/>
<path d="M49.8701 156.091H24.5513V156.208H49.8701V156.091Z" fill="#EBEBEB"/>
<path d="M81.1699 161.695H68.8522V161.812H81.1699V161.695Z" fill="#EBEBEB"/>
<path d="M139.024 160.911H120.852V161.027H139.024V160.911Z" fill="#EBEBEB"/>
<path d="M148.192 160.911H143.189V161.027H148.192V160.911Z" fill="#EBEBEB"/>
<path d="M210.558 158.935H185.024V159.052H210.558V158.935Z" fill="#EBEBEB"/>
<path d="M105.44 16.9512H35.9985V90.0704H105.44V16.9512Z" fill="#E6E6E6"/>
<path d="M112.886 14.5837H31.5058C31.415 14.583 31.3251 14.6003 31.241 14.6346C31.157 14.6688 31.0806 14.7193 31.0163 14.7831C30.9519 14.8469 30.9008 14.9227 30.8659 15.0063C30.8311 15.0899 30.8131 15.1796 30.8131 15.2701C30.8131 15.4534 30.8861 15.6292 31.016 15.7588C31.1459 15.8884 31.3221 15.9612 31.5058 15.9612H112.886C112.977 15.9612 113.067 15.9433 113.151 15.9085C113.234 15.8738 113.31 15.8228 113.374 15.7585C113.438 15.6943 113.489 15.6181 113.523 15.5342C113.557 15.4504 113.575 15.3607 113.574 15.2701C113.574 15.0881 113.502 14.9135 113.373 14.7847C113.244 14.656 113.069 14.5837 112.886 14.5837Z" fill="#E6E6E6"/>
<path d="M108.393 16.9512H37.3792V90.0704H108.393V16.9512Z" fill="#F0F0F0"/>
<path d="M105.44 90.0704H35.9985V92.8022H105.44V90.0704Z" fill="#E6E6E6"/>
<path d="M113.298 90.0704H42.2839V92.8022H113.298V90.0704Z" fill="#F0F0F0"/>
<path d="M104.266 85.9563V21.07L41.5023 21.07L41.5023 85.9563H104.266Z" fill="#FAFAFA"/>
<path d="M55.748 85.9516L79.9624 21.0653H91.3909L67.1813 85.9516H55.748Z" fill="white"/>
<path d="M69.6337 85.9516L93.848 21.0653H98.3034L74.089 85.9516H69.6337Z" fill="white"/>
<path d="M104.266 85.9517V21.0653H103.742V85.9517H104.266Z" fill="#E6E6E6"/>
<g opacity="0.6">
<path opacity="0.6" d="M39.7987 79.4H31.0798L35.7786 13.3508H44.4974L39.7987 79.4Z" fill="#F0F0F0"/>
<path opacity="0.6" d="M43.1964 79.4H36.401L41.0997 13.3508H47.8951L43.1964 79.4Z" fill="#E6E6E6"/>
<path opacity="0.6" d="M48.5175 79.4H39.7987L44.4974 13.3508H53.2163L48.5175 79.4Z" fill="#F0F0F0"/>
<path opacity="0.6" d="M51.9152 79.4H45.1199L49.8233 13.3508H56.614L51.9152 79.4Z" fill="#E6E6E6"/>
<path opacity="0.6" d="M57.2364 79.4H48.5176L53.2163 13.3508H61.9398L57.2364 79.4Z" fill="#F0F0F0"/>
</g>
<g opacity="0.6">
<path opacity="0.6" d="M106.952 79.4H111.88L109.227 13.3508H104.299L106.952 79.4Z" fill="#F0F0F0"/>
<path opacity="0.6" d="M105.033 79.4H108.871L106.217 13.3508H102.375L105.033 79.4Z" fill="#E6E6E6"/>
<path opacity="0.6" d="M102.024 79.4H106.952L104.299 13.3508H99.3705L102.024 79.4Z" fill="#F0F0F0"/>
<path opacity="0.6" d="M100.105 79.4H103.943L101.289 13.3508H97.447L100.105 79.4Z" fill="#E6E6E6"/>
<path opacity="0.6" d="M97.0961 79.4H102.024L99.3705 13.3508H94.4425L97.0961 79.4Z" fill="#F0F0F0"/>
</g>
<path d="M199.677 13.3508H151.655V77.0557H199.677V13.3508Z" fill="#E6E6E6"/>
<path d="M203.323 13.3508H153.153V77.0557H203.323V13.3508Z" fill="#F5F5F5"/>
<path d="M159.652 15.9583L155.187 71.0965L196.815 74.4532L201.281 19.3149L159.652 15.9583Z" fill="white"/>
<path d="M200.252 19.2313L195.786 74.3696L196.813 74.4523L201.278 19.3141L200.252 19.2313Z" fill="#E6E6E6"/>
<path d="M205.971 100.853H179.15V152.907H205.971V100.853Z" fill="#F5F5F5"/>
<path d="M205.972 100.853H203.758V152.907H205.972V100.853Z" fill="#F0F0F0"/>
<path d="M119.462 124.37L181.219 124.37V102.343H119.462V124.37Z" fill="#E6E6E6"/>
<path d="M122.434 104.761L205.967 104.761V100.858L122.434 100.858V104.761Z" fill="#F0F0F0"/>
<path d="M122.438 100.853H95.6172V152.907H122.438V100.853Z" fill="#F5F5F5"/>
<path d="M96.5859 117.44H96.7076C98.4192 117.44 100.061 118.118 101.271 119.326C102.481 120.534 103.161 122.172 103.161 123.879V152.907H90.1322V123.879C90.1322 122.172 90.8121 120.534 92.0225 119.326C93.2328 118.118 94.8743 117.44 96.5859 117.44Z" fill="#E6E6E6"/>
<path d="M122.438 100.853H120.225V152.907H122.438V100.853Z" fill="#F0F0F0"/>
<path d="M152.624 100.853H146.84L148.244 89.6174H154.033L152.624 100.853Z" fill="#F0F0F0"/>
<path d="M153.906 100.853H148.117L149.526 89.6174H155.31L153.906 100.853Z" fill="#F5F5F5"/>
<path d="M154.608 95.2351H148.824L149.526 89.6174H155.31L154.608 95.2351Z" fill="#F0F0F0"/>
<path d="M133.347 93.8902H174.279C174.359 93.8902 174.438 93.8731 174.511 93.8402C174.584 93.8072 174.65 93.7591 174.703 93.699C174.756 93.639 174.796 93.5683 174.819 93.4918C174.843 93.4153 174.85 93.3346 174.84 93.2551L171.686 68.0758C171.669 67.9387 171.602 67.8125 171.499 67.7206C171.396 67.6287 171.263 67.5773 171.124 67.5761H130.193C130.112 67.5762 130.032 67.5934 129.958 67.6266C129.885 67.6598 129.819 67.7082 129.765 67.7687C129.712 67.8292 129.672 67.9003 129.648 67.9774C129.624 68.0545 129.617 68.1358 129.627 68.2159L132.781 93.3952C132.799 93.5322 132.867 93.658 132.971 93.7491C133.075 93.8401 133.209 93.8903 133.347 93.8902Z" fill="#F0F0F0"/>
<path d="M133.956 93.8902H174.887C174.967 93.8902 175.047 93.8731 175.12 93.8401C175.193 93.8072 175.258 93.7591 175.311 93.699C175.364 93.639 175.404 93.5683 175.428 93.4918C175.451 93.4153 175.459 93.3346 175.449 93.2551L172.294 68.0758C172.277 67.9387 172.211 67.8125 172.108 67.7206C172.004 67.6287 171.871 67.5773 171.733 67.5761H130.801C130.72 67.5762 130.641 67.5934 130.567 67.6266C130.493 67.6598 130.427 67.7082 130.374 67.7687C130.32 67.8292 130.28 67.9003 130.256 67.9774C130.232 68.0545 130.225 68.1358 130.235 68.2159L133.38 93.3952C133.398 93.5338 133.467 93.6609 133.573 93.7522C133.679 93.8434 133.816 93.8926 133.956 93.8902Z" fill="#F5F5F5"/>
<path d="M174.129 92.4986L171.176 68.9304C171.171 68.8916 171.152 68.8558 171.123 68.83C171.093 68.8041 171.056 68.79 171.016 68.7903H131.704C131.682 68.7908 131.66 68.7959 131.64 68.8053C131.619 68.8146 131.601 68.828 131.586 68.8447C131.572 68.8613 131.56 68.8808 131.553 68.9019C131.546 68.9231 131.543 68.9455 131.545 68.9677L134.498 92.536C134.504 92.5744 134.523 92.6096 134.552 92.6352C134.581 92.6609 134.619 92.6754 134.657 92.6761H173.969C173.992 92.6762 174.014 92.6716 174.035 92.6625C174.056 92.6534 174.074 92.64 174.089 92.6232C174.104 92.6064 174.116 92.5866 174.122 92.5651C174.129 92.5437 174.131 92.521 174.129 92.4986Z" fill="#E6E6E6"/>
<path d="M169.935 92.6761L159.546 68.7903H150.434L160.823 92.6761H169.935Z" fill="#EBEBEB"/>
<path d="M159.069 92.6761L148.679 68.7903H145.398L155.788 92.6761H159.069Z" fill="#EBEBEB"/>
<path d="M159.157 100.853H149.732V100.722C149.732 100.474 149.831 100.237 150.006 100.062C150.182 99.8866 150.42 99.7882 150.668 99.7882H158.221C158.47 99.7882 158.708 99.8866 158.883 100.062C159.059 100.237 159.157 100.474 159.157 100.722V100.839V100.853Z" fill="#F5F5F5"/>
<path d="M150.836 100.853H144.444V100.722C144.444 100.474 144.542 100.237 144.718 100.062C144.893 99.8866 145.131 99.7882 145.38 99.7882H149.896C150.144 99.7882 150.382 99.8866 150.558 100.062C150.733 100.237 150.832 100.474 150.832 100.722V100.839L150.836 100.853Z" fill="#F0F0F0"/>
<path d="M169.585 100.853H140.447L139.661 98.5226H165.794L169.585 100.853Z" fill="#F5F5F5"/>
<path d="M143.653 100.853H138.837L138.187 98.5226H143.002L143.653 100.853Z" fill="#F0F0F0"/>
<path d="M134.382 100.858H126.089C126.085 100.341 126.286 99.8449 126.648 99.4764C127.011 99.108 127.504 98.8977 128.021 98.8916H132.402C132.921 98.8916 133.418 99.0972 133.785 99.4633C134.152 99.8293 134.358 100.326 134.358 100.844L134.382 100.858Z" fill="#F0F0F0"/>
<path d="M41.755 152.911H49.8842L49.8842 115.212H41.755L41.755 152.911Z" fill="#E0E0E0"/>
<path d="M77.8469 152.911H44.984L40.9218 108.362H73.7847L77.8469 152.911Z" fill="#E6E6E6"/>
<path d="M79.5505 152.911H46.6875L42.6206 108.362H75.4883L79.5505 152.911Z" fill="#F0F0F0"/>
<path d="M51.1806 147.975L48.0122 113.293H70.9957L74.1594 147.975H51.1806Z" fill="white"/>
<path d="M117 174C167.115 174 207.74 171.633 207.74 168.714C207.74 165.794 167.115 163.428 117 163.428C66.8853 163.428 26.2594 165.794 26.2594 168.714C26.2594 171.633 66.8853 174 117 174Z" fill="#F5F5F5"/>
<path d="M46.3686 56.9919L45.9009 57.0072L46.1038 63.2287L46.5716 63.2134L46.3686 56.9919Z" fill="#407BFF"/>
<path d="M46.1939 51.6227L45.7262 51.638L45.8227 54.597L46.2905 54.5817L46.1939 51.6227Z" fill="#407BFF"/>
<path d="M52.5094 96.6267H141.832C142.309 96.6283 142.782 96.5337 143.221 96.3484C143.661 96.1632 144.059 95.8913 144.391 95.5489C144.722 95.2066 144.981 94.8008 145.152 94.3561C145.323 93.9114 145.402 93.4369 145.384 92.961L143.395 32.142C143.352 31.1643 142.935 30.2403 142.23 29.5601C141.525 28.8799 140.585 28.4954 139.604 28.4856H50.2817C49.8042 28.484 49.3314 28.5786 48.8914 28.7638C48.4515 28.9489 48.0535 29.2208 47.7214 29.5631C47.3893 29.9054 47.1299 30.3111 46.9586 30.7558C46.7874 31.2005 46.7079 31.6752 46.7249 32.1513L48.7139 92.9703C48.7581 93.9484 49.1762 94.8725 49.8821 95.5525C50.588 96.2326 51.5282 96.617 52.5094 96.6267Z" fill="#407BFF"/>
<path d="M52.795 96.6267H142.118C142.595 96.6283 143.068 96.5337 143.508 96.3485C143.948 96.1633 144.346 95.8915 144.678 95.5492C145.01 95.2069 145.269 94.8012 145.441 94.3565C145.612 93.9117 145.691 93.4371 145.674 92.961L143.676 32.142C143.632 31.1655 143.215 30.2428 142.511 29.563C141.807 28.8831 140.869 28.4977 139.89 28.4856H50.5674C50.0901 28.484 49.6174 28.5786 49.1777 28.7638C48.7381 28.949 48.3404 29.221 48.0086 29.5634C47.6769 29.9057 47.4179 30.3114 47.2472 30.7562C47.0765 31.2009 46.9976 31.6754 47.0152 32.1513L49.0042 92.9703C49.0473 93.948 49.4643 94.872 50.1695 95.5522C50.8747 96.2324 51.8143 96.6169 52.795 96.6267Z" fill="#407BFF"/>
<path opacity="0.5" d="M52.795 96.6267H142.118C142.595 96.6283 143.068 96.5337 143.508 96.3485C143.948 96.1633 144.346 95.8915 144.678 95.5492C145.01 95.2069 145.269 94.8012 145.441 94.3565C145.612 93.9117 145.691 93.4371 145.674 92.961L143.676 32.142C143.632 31.1655 143.215 30.2428 142.511 29.563C141.807 28.8831 140.869 28.4977 139.89 28.4856H50.5674C50.0901 28.484 49.6174 28.5786 49.1777 28.7638C48.7381 28.949 48.3404 29.221 48.0086 29.5634C47.6769 29.9057 47.4179 30.3114 47.2472 30.7562C47.0765 31.2009 46.9976 31.6754 47.0152 32.1513L49.0042 92.9703C49.0473 93.948 49.4643 94.872 50.1695 95.5522C50.8747 96.2324 51.8143 96.6169 52.795 96.6267Z" fill="white"/>
<path opacity="0.5" d="M139.665 30.3114H50.3381H50.0386C47.7501 30.5029 48.0777 33.9679 50.3849 33.9679H139.862C142.164 33.9679 142.267 30.5029 139.965 30.3114H139.665Z" fill="#407BFF"/>
<path d="M52.5937 32.142C52.5982 32.2512 52.5804 32.3602 52.5414 32.4623C52.5024 32.5644 52.443 32.6576 52.3669 32.7362C52.2908 32.8148 52.1994 32.8771 52.0985 32.9195C51.9975 32.9618 51.8889 32.9833 51.7794 32.9825C51.5537 32.9815 51.3371 32.8935 51.1749 32.7368C51.0127 32.5802 50.9174 32.3671 50.9089 32.142C50.9052 32.033 50.9234 31.9243 50.9627 31.8224C51.0019 31.7206 51.0613 31.6277 51.1373 31.5492C51.2133 31.4708 51.3043 31.4084 51.405 31.3658C51.5057 31.3233 51.6139 31.3014 51.7233 31.3014C51.949 31.3025 52.1656 31.3905 52.3278 31.5471C52.49 31.7038 52.5853 31.9169 52.5937 32.142Z" fill="#FAFAFA"/>
<path d="M55.4579 32.142C55.463 32.2514 55.4456 32.3606 55.4069 32.4631C55.3681 32.5655 55.3088 32.6589 55.2325 32.7377C55.1563 32.8164 55.0647 32.8787 54.9634 32.9208C54.8621 32.9629 54.7533 32.9839 54.6435 32.9825C54.4182 32.9804 54.2022 32.8919 54.0403 32.7355C53.8783 32.5791 53.7826 32.3667 53.7731 32.142C53.7693 32.033 53.7876 31.9243 53.8268 31.8224C53.866 31.7206 53.9254 31.6277 54.0014 31.5492C54.0774 31.4708 54.1685 31.4084 54.2691 31.3658C54.3698 31.3233 54.478 31.3014 54.5874 31.3014C54.8131 31.3025 55.0297 31.3905 55.1919 31.5471C55.3541 31.7038 55.4494 31.9169 55.4579 32.142Z" fill="#FAFAFA"/>
<path d="M58.0882 32.7438C58.4089 32.4182 58.3955 31.8861 58.0582 31.5552C57.7209 31.2244 57.1874 31.2201 56.8667 31.5456C56.546 31.8711 56.5595 32.4032 56.8968 32.7341C57.2341 33.065 57.7675 33.0693 58.0882 32.7438Z" fill="#FAFAFA"/>
<path d="M54.5266 90.556H139.993C140.166 90.5568 140.338 90.5225 140.497 90.4553C140.657 90.3881 140.801 90.2893 140.921 90.165C141.042 90.0406 141.135 89.8932 141.197 89.7317C141.259 89.5701 141.287 89.3978 141.28 89.2251L139.642 39.226C139.623 38.8723 139.471 38.5389 139.215 38.2929C138.96 38.0468 138.621 37.9064 138.266 37.8998H52.8044C52.6314 37.8984 52.4599 37.932 52.3004 37.9987C52.1408 38.0654 51.9965 38.1638 51.8761 38.2878C51.7558 38.4118 51.662 38.5589 51.6003 38.7202C51.5386 38.8814 51.5104 39.0535 51.5174 39.226L53.1507 89.2391C53.1719 89.5911 53.3253 89.9222 53.5803 90.1663C53.8354 90.4104 54.1733 90.5496 54.5266 90.556Z" fill="white"/>
<g opacity="0.3">
<path opacity="0.3" d="M117.248 84.3639H115.685V83.925H116.789L116.752 82.8229L117.196 82.8089L117.248 84.3639Z" fill="#407BFF"/>
<path opacity="0.3" d="M113.2 84.3639H110.715V83.925H113.2V84.3639ZM108.23 84.3639H105.768V83.925H108.253L108.23 84.3639ZM103.259 84.3639H100.774V83.925H103.259V84.3639ZM98.2893 84.3639H95.8042V83.925H98.28L98.2893 84.3639ZM93.3238 84.3639H90.8341V83.925H93.3238V84.3639ZM88.3537 84.3639H85.8686V83.925H88.3537V84.3639ZM83.3835 84.3639H80.8984V83.925H83.3835V84.3639Z" fill="#407BFF"/>
<path opacity="0.3" d="M78.4133 84.3639H76.8642L76.8174 82.8229L77.2573 82.8089L77.2947 83.925H78.4133V84.3639Z" fill="#407BFF"/>
<path opacity="0.3" d="M76.7513 80.3433L76.6717 77.8636H77.1397L77.2193 80.3433H76.7513ZM76.5922 75.384L76.5079 72.9043H76.9525L77.0321 75.384H76.5922ZM76.4284 70.4247L76.3488 67.9451H76.7887L76.873 70.4247H76.4284ZM76.2646 65.4654L76.185 62.9858H76.6296L76.7092 65.4654H76.2646ZM76.1054 60.5061L76.0212 58.0265H76.4658L76.5454 60.5061H76.1054ZM75.9229 55.5702L75.8434 53.0905H76.2833L76.3675 55.5702H75.9229ZM75.7591 50.6109L75.6796 48.1313H76.1242L76.2037 50.6109H75.7591Z" fill="#407BFF"/>
<path opacity="0.3" d="M75.6006 45.6294L75.5491 44.0744H77.1075V44.518H76.0077L76.0405 45.6154L75.6006 45.6294Z" fill="#407BFF"/>
<path opacity="0.3" d="M111.899 44.5168H109.414V44.0499H111.899V44.5168ZM106.929 44.5168H104.443V44.0499H106.929V44.5168ZM101.958 44.5168H99.4733V44.0499H101.958V44.5168ZM96.9882 44.5168H94.5031V44.0499H96.9882V44.5168ZM92.018 44.5168H89.533V44.0499H92.018V44.5168ZM87.0479 44.5168H84.5628V44.0499H87.0479V44.5168ZM82.0777 44.5168H79.5927V44.0499H82.0777V44.5168Z" fill="#407BFF"/>
<path opacity="0.3" d="M115.535 45.6283L115.497 44.5169H114.384V44.0732H115.928L115.979 45.6143L115.535 45.6283Z" fill="#407BFF"/>
<path opacity="0.3" d="M116.672 80.3433L116.593 77.8636H117.033L117.117 80.3433H116.672ZM116.532 75.384L116.452 72.9043H116.897L116.976 75.384H116.532ZM116.373 70.4247L116.288 67.9451H116.733L116.813 70.4247H116.373ZM116.209 65.4654L116.129 62.9858H116.569L116.654 65.4654H116.209ZM116.045 60.5061L115.966 58.0265H116.41L116.49 60.5061H116.045ZM115.863 55.5702L115.778 53.0905H116.246L116.326 55.5702H115.863ZM115.699 50.6109L115.619 48.1313H116.059L116.143 50.6109H115.699Z" fill="#407BFF"/>
</g>
<path d="M105.216 70.5414H88.8777C87.3651 70.5308 85.9146 69.9401 84.8265 68.8918C83.7384 67.8434 83.096 66.4176 83.0323 64.9097C82.9802 63.553 83.4357 62.2255 84.3103 61.1855C85.1848 60.1454 86.4158 59.4671 87.7638 59.2826C88.1174 57.9335 88.9099 56.7397 90.017 55.8885C91.124 55.0374 92.483 54.5772 93.8806 54.5802C95.0306 54.581 96.1609 54.8775 97.1627 55.4411C98.1644 56.0046 99.0037 56.8163 99.5996 57.7976C100.114 57.6425 100.649 57.5638 101.186 57.5642C102.58 57.5772 103.92 58.0987 104.955 59.0305C105.99 59.9622 106.647 61.2396 106.802 62.6215C107.516 62.9612 108.124 63.4883 108.561 64.1464C108.998 64.8045 109.247 65.5687 109.282 66.3573C109.305 66.9029 109.216 67.4474 109.021 67.9577C108.826 68.4681 108.53 68.9337 108.15 69.3266C107.77 69.7194 107.314 70.0313 106.809 70.2433C106.305 70.4553 105.763 70.5631 105.216 70.5601V70.5414ZM93.8806 55.6496C92.6663 55.6422 91.4875 56.0581 90.5476 56.8254C89.6078 57.5926 88.9658 58.6632 88.7326 59.8523L88.653 60.268H88.2318C87.0847 60.3391 86.0111 60.8553 85.2405 61.7062C84.47 62.5571 84.0637 63.675 84.1087 64.821C84.1569 66.0501 84.6778 67.2135 85.5634 68.0692C86.4489 68.925 87.6309 69.4073 88.8636 69.416H105.202C105.602 69.4195 105.999 69.3418 106.368 69.1876C106.737 69.0334 107.071 68.8059 107.349 68.519C107.628 68.232 107.845 67.8916 107.987 67.5184C108.13 67.1452 108.195 66.747 108.178 66.348C108.149 65.7123 107.935 65.0988 107.562 64.5829C107.188 64.0669 106.672 63.6709 106.077 63.4434L105.74 63.3173V62.9577C105.68 61.7888 105.176 60.6866 104.33 59.8761C103.483 59.0655 102.359 58.6078 101.186 58.5962C100.628 58.5949 100.074 58.7028 99.5574 58.9137L99.0894 59.1005L98.8601 58.6616C98.3853 57.7533 97.6701 56.9923 96.7921 56.4613C95.9142 55.9303 94.9072 55.6495 93.8806 55.6496Z" fill="#407BFF"/>
<path d="M100.508 65.2506L96.0008 60.8937L91.7794 65.2506H94.2505L94.4002 69.7522H98.1863L98.0366 65.2506H100.508Z" fill="#407BFF"/>
<path d="M171.756 47.5615C172.187 48.1779 172.533 48.7056 172.889 49.2847C173.244 49.8637 173.581 50.4241 173.909 51.0031C174.564 52.1659 175.173 53.338 175.729 54.5755C176.304 55.8047 176.81 57.0643 177.246 58.3487C177.698 59.6676 178.053 61.0176 178.308 62.388L178.486 63.4527L178.509 63.5881L178.537 63.7563C178.537 63.9197 178.575 64.0598 178.58 64.2232C178.589 64.4068 178.589 64.5907 178.58 64.7743L178.556 65.0685L178.505 65.3953C178.466 65.6259 178.406 65.8525 178.327 66.0725C178.241 66.3206 178.131 66.5599 177.999 66.7869C177.737 67.2441 177.385 67.6442 176.965 67.9637C176.347 68.4327 175.622 68.7408 174.854 68.8603C174.35 68.9403 173.838 68.9654 173.329 68.935C172.913 68.9134 172.498 68.865 172.088 68.7903C171.365 68.6521 170.65 68.468 169.95 68.2392C168.668 67.8143 167.417 67.301 166.206 66.7029C165.012 66.1261 163.852 65.4806 162.733 64.7696L164.081 61.7903C166.406 62.4153 168.762 62.9233 171.138 63.3126C171.664 63.3919 172.194 63.4371 172.725 63.4481C173.064 63.4772 173.406 63.4391 173.731 63.336C173.759 63.336 173.652 63.2799 173.343 63.4854C173.172 63.6121 173.027 63.7707 172.917 63.9524C172.863 64.0414 172.818 64.1352 172.781 64.2326C172.753 64.304 172.729 64.3773 172.711 64.4521L172.683 64.6062C172.684 64.631 172.684 64.656 172.683 64.6809C172.683 64.6809 172.683 64.7042 172.683 64.6809V64.6202V64.5221L172.472 63.7329C171.77 61.5571 170.869 59.45 169.781 57.4381C169.252 56.3874 168.672 55.346 168.082 54.314C167.788 53.7957 167.483 53.2866 167.179 52.7776C166.875 52.2686 166.547 51.7363 166.276 51.3113L171.756 47.5615Z" fill="#FFB573"/>
<path d="M164.638 62.0425L162.607 60.0205L160.59 64.5128C160.59 64.5128 162.499 65.5681 164.198 64.7976L164.638 62.0425Z" fill="#FFB573"/>
<path d="M159.607 58.4141L158.109 62.2059L160.585 64.5127L162.607 60.0205L159.607 58.4141Z" fill="#FFB573"/>
<path d="M166.461 49.0603L127.496 42.2117L120.633 81.0913L159.597 87.9399L166.461 49.0603Z" fill="#407BFF"/>
<path opacity="0.6" d="M166.461 49.0603L127.496 42.2117L120.633 81.0913L159.597 87.9399L166.461 49.0603Z" fill="white"/>
<path d="M164.228 50.6213L129.056 44.4394L122.861 79.5341L158.032 85.7159L164.228 50.6213Z" fill="white"/>
<path opacity="0.3" d="M145.604 62.3614C148.586 60.2766 149.311 56.1737 147.221 53.1974C145.132 50.2211 141.02 49.4984 138.037 51.5832C135.054 53.668 134.33 57.7709 136.419 60.7472C138.509 63.7235 142.621 64.4462 145.604 62.3614Z" fill="#407BFF"/>
<path opacity="0.2" d="M150.069 66.5581L138.28 74.7909L132.861 67.0718L123.964 73.2872L122.859 79.5354L158.03 85.7181L159.134 79.47L150.069 66.5581Z" fill="#407BFF"/>
<path d="M152.002 33.4168C152.002 33.7297 151.852 33.9819 151.646 33.9865C151.44 33.9912 151.272 33.7437 151.267 33.4308C151.262 33.118 151.421 32.8658 151.623 32.8611C151.824 32.8564 151.997 33.1086 152.002 33.4168Z" fill="#263238"/>
<path d="M151.88 33.9819C151.527 34.9389 151.045 35.8438 150.448 36.6716C150.664 36.8185 150.909 36.9166 151.167 36.9594C151.425 37.0021 151.689 36.9884 151.941 36.9191L151.88 33.9819Z" fill="#FF5652"/>
<path d="M153.102 31.6703C153.053 31.6799 153.002 31.6699 152.961 31.6423C152.778 31.5037 152.564 31.4121 152.337 31.3755C152.11 31.3388 151.878 31.3583 151.66 31.4322C151.638 31.4412 151.614 31.4458 151.59 31.4455C151.565 31.4452 151.542 31.4402 151.519 31.4306C151.497 31.4211 151.477 31.4072 151.46 31.3898C151.443 31.3725 151.43 31.3519 151.422 31.3294C151.412 31.3074 151.408 31.2837 151.407 31.2598C151.407 31.2359 151.412 31.2122 151.421 31.1901C151.43 31.1679 151.444 31.1478 151.461 31.1309C151.478 31.1139 151.498 31.1005 151.52 31.0913C151.795 30.9984 152.089 30.9723 152.376 31.0154C152.663 31.0584 152.936 31.1693 153.172 31.3388C153.212 31.367 153.239 31.4097 153.248 31.4577C153.256 31.5057 153.246 31.5552 153.219 31.5956C153.191 31.6346 153.149 31.6613 153.102 31.6703Z" fill="#263238"/>
<path d="M161.025 34.6029C160.828 37.4702 161.053 43.256 163.248 44.8764C163.248 44.8764 162.71 47.2113 157.501 47.8651C151.777 48.5842 154.407 45.3714 154.407 45.3714C157.44 44.2367 157.07 41.9345 156.251 39.8284L161.025 34.6029Z" fill="#FFB573"/>
<path d="M175.215 158.594H175.182C175.113 158.558 175.057 158.502 175.021 158.432C174.986 158.363 174.973 158.284 174.985 158.207C174.987 158.145 175.002 158.084 175.029 158.028C175.057 157.973 175.096 157.924 175.144 157.885C175.584 157.511 176.867 157.675 176.923 157.684C176.941 157.685 176.958 157.692 176.972 157.704C176.986 157.715 176.996 157.73 177.001 157.747C177.006 157.764 177.006 157.783 177 157.8C176.994 157.817 176.984 157.832 176.97 157.843C176.67 158.085 175.678 158.772 175.215 158.594ZM176.679 157.829C176.244 157.796 175.523 157.787 175.275 158.011C175.247 158.033 175.223 158.061 175.207 158.093C175.191 158.126 175.182 158.161 175.182 158.198C175.182 158.37 175.247 158.403 175.271 158.412C175.5 158.534 176.207 158.179 176.679 157.838V157.829Z" fill="#407BFF"/>
<path d="M176.263 157.712C175.795 157.553 175.327 157.292 175.257 157.021C175.237 156.955 175.242 156.884 175.269 156.821C175.296 156.758 175.345 156.706 175.406 156.675C175.464 156.636 175.529 156.61 175.598 156.597C175.666 156.585 175.737 156.588 175.804 156.605C176.371 156.722 176.96 157.67 176.988 157.712C176.998 157.726 177.003 157.742 177.003 157.759C177.003 157.775 176.998 157.791 176.988 157.805C176.981 157.82 176.969 157.832 176.955 157.84C176.941 157.848 176.925 157.852 176.909 157.852C176.688 157.836 176.471 157.788 176.263 157.712ZM175.832 156.778H175.767C175.724 156.765 175.678 156.763 175.633 156.77C175.589 156.777 175.547 156.794 175.509 156.82C175.411 156.89 175.425 156.941 175.43 156.965C175.505 157.212 176.235 157.558 176.726 157.642C176.505 157.289 176.198 156.998 175.832 156.797V156.778Z" fill="#407BFF"/>
<path d="M146.798 164.978C146.302 164.978 145.824 164.908 145.66 164.684C145.62 164.626 145.598 164.556 145.598 164.485C145.598 164.414 145.62 164.345 145.66 164.287C145.692 164.234 145.734 164.187 145.784 164.15C145.834 164.114 145.89 164.087 145.951 164.072C146.592 163.899 147.944 164.665 148 164.698C148.015 164.708 148.027 164.722 148.035 164.738C148.042 164.755 148.044 164.773 148.041 164.791C148.038 164.809 148.03 164.825 148.018 164.839C148.006 164.852 147.99 164.861 147.972 164.866C147.585 164.938 147.192 164.976 146.798 164.978ZM146.185 164.226C146.125 164.226 146.065 164.234 146.007 164.25C145.933 164.266 145.869 164.312 145.829 164.376C145.763 164.492 145.787 164.548 145.829 164.581C146.007 164.829 146.985 164.833 147.701 164.731C147.233 164.466 146.718 164.294 146.185 164.226Z" fill="#407BFF"/>
<path d="M147.963 164.871H147.926C147.458 164.66 146.522 163.829 146.606 163.395C146.606 163.292 146.695 163.162 146.948 163.138C147.038 163.128 147.13 163.137 147.217 163.164C147.304 163.192 147.384 163.237 147.453 163.297C147.944 163.699 148.052 164.735 148.052 164.777C148.055 164.793 148.053 164.81 148.046 164.825C148.039 164.84 148.028 164.852 148.015 164.861C147.999 164.869 147.981 164.872 147.963 164.871ZM147.027 163.306H146.952C146.788 163.306 146.779 163.386 146.774 163.409C146.732 163.67 147.359 164.343 147.832 164.609C147.79 164.171 147.614 163.757 147.327 163.423C147.241 163.351 147.134 163.31 147.022 163.306H147.027Z" fill="#407BFF"/>
<path d="M152.208 164.777H148.347L147.963 155.858H151.824L152.208 164.777Z" fill="#FFB573"/>
<path d="M181.079 156.643L177.498 157.623L172.917 149.26L176.497 148.279L181.079 156.643Z" fill="#FFB573"/>
<path d="M176.96 157.231L180.826 155.26C180.894 155.226 180.972 155.215 181.047 155.23C181.121 155.246 181.189 155.286 181.238 155.344L183.479 158.048C183.533 158.115 183.571 158.192 183.591 158.275C183.61 158.359 183.611 158.445 183.593 158.528C183.574 158.612 183.537 158.69 183.484 158.757C183.432 158.824 183.364 158.879 183.288 158.917C181.93 159.58 181.233 159.851 179.544 160.701C178.5 161.238 175.392 163.54 173.825 163.969C172.257 164.399 171.648 162.881 172.252 162.568C174.234 161.554 175.759 159.829 176.52 157.74C176.601 157.523 176.757 157.343 176.96 157.231Z" fill="#263238"/>
<path d="M148.356 164.334H152.568C152.644 164.334 152.718 164.36 152.778 164.407C152.837 164.455 152.879 164.521 152.896 164.595L153.658 168.018C153.678 168.101 153.678 168.187 153.658 168.27C153.639 168.353 153.601 168.431 153.548 168.497C153.494 168.563 153.426 168.616 153.349 168.652C153.271 168.688 153.187 168.706 153.101 168.705C151.58 168.705 149.381 168.588 147.485 168.588C145.248 168.588 143.32 168.714 140.699 168.714C139.113 168.714 138.673 167.112 139.338 166.967C142.356 166.309 144.823 166.239 147.434 164.632C147.708 164.45 148.027 164.347 148.356 164.334Z" fill="#263238"/>
<path d="M164.961 52.0071C165.363 53.0438 165.808 54.0525 166.257 55.0005C167.025 56.6349 167.792 58.0685 168.349 59.0538C168.845 59.9457 169.173 60.4547 169.173 60.4547L177.597 56.2846C177.597 56.2846 174.199 46.5342 170.652 45.4508C167.025 44.3627 163.14 47.3607 164.961 52.0071Z" fill="#263238"/>
<path opacity="0.2" d="M168.7 52.9738C167.965 53.5108 167.441 54.9631 167.067 56.6676C167.535 57.6015 168.003 58.4187 168.349 59.0538C168.845 59.9457 169.173 60.4547 169.173 60.4547L170.137 59.9878C170.119 57.5789 169.631 55.1966 168.7 52.9738Z" fill="black"/>
<path d="M147.13 58.2226C147.13 59.5348 147.163 60.9777 147.233 62.5655C147.425 66.8897 147.897 72.2739 148.801 78.9657H169.449C169.594 75.8042 167.6 60.3707 170.661 45.4648C168.376 45.0281 166.066 44.738 163.744 44.5962C160.82 44.428 157.888 44.428 154.964 44.5962C152.96 44.7993 150.974 45.1568 149.025 45.6656C149.025 45.6656 147.125 47.809 147.13 58.2226Z" fill="#263238"/>
<path d="M152.442 52.1099C152.135 52.7509 151.793 53.3745 151.417 53.9778C151.075 54.5288 150.729 55.0565 150.373 55.5702C149.662 56.6022 148.918 57.5922 148.136 58.5541C146.566 60.5232 144.823 62.3486 142.927 64.0084C141.919 64.8941 140.837 65.6924 139.693 66.3947L139.225 66.6608L139.104 66.7309L138.935 66.8149L138.594 66.9784C138.152 67.1731 137.69 67.3218 137.218 67.422C136.377 67.5905 135.516 67.6346 134.662 67.5528C133.237 67.3791 131.853 66.9588 130.572 66.3106C129.98 66.019 129.406 65.6915 128.855 65.33C128.298 64.9675 127.765 64.5698 127.259 64.1392L128.915 61.3373C130.942 61.865 133.226 62.3413 134.798 62.1218C135.123 62.0886 135.439 62.0002 135.734 61.8603C135.83 61.8114 135.921 61.7535 136.006 61.6875L136.048 61.6455L136.076 61.6222L136.141 61.5755L136.427 61.3747C137.229 60.7687 137.989 60.1087 138.701 59.3994C140.228 57.8554 141.649 56.2111 142.955 54.4774C143.625 53.5995 144.27 52.7029 144.893 51.8063C145.197 51.3393 145.501 50.9051 145.782 50.4661C146.063 50.0271 146.344 49.5695 146.489 49.2847L152.442 52.1099Z" fill="#FFB573"/>
<path d="M129.739 61.7483L126.178 60.0625L125.855 64.8256C125.855 64.8256 128.625 65.2926 130.09 64.2279L129.739 61.7483Z" fill="#FFB573"/>
<path d="M121.69 60.8704L123.061 64.5034L125.855 64.8256L126.178 60.0625L121.69 60.8704Z" fill="#FFB573"/>
<path d="M154.992 49.5835C154.87 53.2633 147.27 61.7249 147.27 61.7249L139.244 56.5041C139.244 56.5041 141.804 51.7643 145.08 48.3227C150.083 43.1346 155.137 45.1659 154.992 49.5835Z" fill="#263238"/>
<path opacity="0.2" d="M147.963 155.858L148.159 160.458H152.025L151.829 155.858H147.963Z" fill="black"/>
<path opacity="0.2" d="M176.497 148.279L172.917 149.26L175.28 153.574L178.86 152.589L176.497 148.279Z" fill="black"/>
<path d="M162.396 32.5436C162.242 36.3634 162.349 38.6142 160.458 40.6036C157.613 43.6109 152.858 41.9625 151.866 38.1753C150.972 34.7617 151.375 29.0879 155.086 27.4909C155.902 27.1341 156.797 26.9919 157.684 27.0776C158.571 27.1634 159.422 27.4743 160.155 27.9808C160.887 28.4873 161.478 29.1725 161.87 29.9711C162.263 30.7698 162.444 31.6554 162.396 32.5436Z" fill="#FFB573"/>
<path d="M154.754 34.3648C153.373 33.3841 152.021 31.3621 152.128 29.8585C150.851 29.8071 149.994 27.7057 150.696 26.174C151.136 27.1593 152.657 26.4309 153.251 25.6557C152.933 24.9038 152.985 23.657 155.17 22.7744C154.988 23.4095 155.081 24.4789 157.276 23.7084C159.939 22.7744 164.619 23.3955 163.248 26.5616C165.12 26.8978 167.558 30.7644 165.49 32.7957C163.421 34.8271 162.995 38.1053 161.226 38.4462C159.457 38.787 154.857 38.8944 154.754 34.3648Z" fill="#263238"/>
<path d="M162.003 26.4355C162.747 26.1248 163.575 26.0742 164.351 26.2921C165.128 26.51 165.808 26.9835 166.28 27.6356C164.934 26.9943 163.487 26.5883 162.003 26.4355Z" fill="#263238"/>
<path d="M155.76 34.2013C155.726 35.0579 155.408 35.879 154.857 36.5362C154.126 37.3861 153.326 36.8911 153.162 35.8871C153.017 34.9812 153.223 33.4542 154.131 32.9685C155.039 32.4829 155.793 33.1786 155.76 34.2013Z" fill="#FFB573"/>
<path d="M156.125 78.9657C156.125 78.9657 154.304 108.119 157.758 118.869C163.225 135.895 172.978 153.29 172.978 153.29L179.951 151.193C179.951 151.193 172.28 132.836 169.758 118.505C167.493 105.621 169.449 89.5053 169.449 78.9797L156.125 78.9657Z" fill="#1A79E8"/>
<path opacity="0.2" d="M155.844 85.4566C157.791 84.8869 159.312 85.1017 159.705 86.8576C160.735 91.3732 157.646 103.286 156.106 108.735C155.47 100.909 155.615 91.5694 155.844 85.4566Z" fill="black"/>
<path d="M171.007 151.3C170.979 151.3 172.828 153.458 172.828 153.458L180.447 151.17L179.478 148.596L171.007 151.3Z" fill="#263238"/>
<path d="M148.824 78.9657C148.824 78.9657 143.007 103.561 142.595 115.31C142.127 128.488 146.746 159.566 146.746 159.566H153.298C153.298 159.566 154.103 128.246 154.393 116.244C154.712 103.169 162.405 78.9657 162.405 78.9657H148.824Z" fill="#1A79E8"/>
<path d="M145.464 156.969C145.436 156.969 145.834 159.678 145.834 159.678H153.79L154.005 157.259L145.464 156.969Z" fill="#263238"/>
<path d="M151.688 43.6903C152.577 43.3868 159.321 42.5322 164.217 42.7937C167.025 42.9385 168.588 43.2607 169.73 43.7977C170.871 44.3347 168.826 47.1226 167.881 47.4635C168.265 48.5282 166.135 49.8871 164.923 50.5315C164.455 51.5308 159.649 52.4554 156.841 50.3073C154.683 48.6543 149.166 44.5635 151.688 43.6903Z" fill="#1A79E8"/>
</g>
<defs>
<clipPath id="clip0_3_4158">
<rect width="234" height="174" fill="white"/>
</clipPath>
</defs>
</svg>
