<svg width="262" height="195" viewBox="0 0 262 195" fill="none" xmlns="http://www.w3.org/2000/svg">
<path d="M112.089 121.121L111.607 123.92L111.093 126.927L106.372 154.356H98.6552L103.371 126.927L103.89 123.92L104.373 121.121H112.089Z" fill="#EBEBEB"/>
<path d="M110.972 121.121C110.563 123.9 110.128 126.674 109.687 129.448L108.323 137.761L106.896 146.064L106.162 150.215L105.396 154.356L106.025 150.19L106.681 146.034L108.061 137.716L109.488 129.413C109.954 126.649 110.448 123.88 110.972 121.121Z" fill="#C7C7C7"/>
<path d="M111.607 123.92L111.093 126.927H103.371L103.89 123.92H111.607Z" fill="#C7C7C7"/>
<path d="M150.194 121.121L150.677 123.92L151.191 126.927L155.912 154.356H163.628L158.912 126.927L158.393 123.92L157.91 121.121H150.194Z" fill="#EBEBEB"/>
<path d="M151.337 121.121C151.741 123.9 152.182 126.674 152.623 129.448L153.981 137.761L155.408 146.064L156.148 150.215L156.914 154.356L156.284 150.19L155.628 146.034L154.264 137.716L152.838 129.413C152.35 126.649 151.857 123.88 151.337 121.121Z" fill="#C7C7C7"/>
<path d="M150.676 123.92H158.393L158.912 126.927H151.191L150.676 123.92Z" fill="#C7C7C7"/>
<path d="M111.806 113.404H105.69L106.45 108H111.045L111.806 113.404Z" fill="#C7C7C7"/>
<path d="M113.399 105.157C113.934 102.232 111.866 99.4492 108.78 98.9418C105.694 98.4344 102.758 100.394 102.223 103.319C101.688 106.244 103.755 109.027 106.842 109.534C109.928 110.042 112.864 108.082 113.399 105.157Z" fill="#DBDBDB"/>
<path d="M112.966 105.083C113.519 102.874 112.076 100.658 109.745 100.134C107.414 99.6108 105.076 100.978 104.524 103.187C103.971 105.397 105.413 107.612 107.745 108.136C110.076 108.66 112.414 107.293 112.966 105.083Z" fill="white"/>
<path d="M112.373 103.909C112.333 103.418 112.187 102.94 111.943 102.505C111.699 102.071 111.363 101.689 110.956 101.383C110.547 101.082 110.077 100.863 109.576 100.739C109.075 100.615 108.552 100.589 108.04 100.662C107.531 100.739 107.044 100.916 106.612 101.182C106.18 101.449 105.812 101.798 105.532 102.208C105.236 102.646 105.042 103.138 104.963 103.653C104.884 104.167 104.923 104.692 105.076 105.191C105.338 106.052 105.947 106.78 106.77 107.22C107.575 107.653 108.52 107.791 109.425 107.607C110.301 107.432 111.086 106.975 111.649 106.315C112.205 105.665 112.527 104.864 112.567 104.028C112.567 103.988 112.567 103.953 112.53 103.953C112.493 103.953 112.493 103.983 112.493 104.023C112.473 104.362 112.404 104.696 112.289 105.017C112.168 105.333 112.008 105.633 111.811 105.912C111.606 106.184 111.366 106.431 111.098 106.648C110.825 106.867 110.523 107.052 110.201 107.2C109.739 107.406 109.237 107.519 108.727 107.531C108.216 107.543 107.709 107.454 107.237 107.269C106.764 107.079 106.339 106.794 105.994 106.434C105.648 106.073 105.388 105.646 105.233 105.181C105.075 104.705 105.027 104.201 105.092 103.705C105.157 103.21 105.334 102.733 105.611 102.308C105.878 101.902 106.234 101.556 106.655 101.293C107.076 101.029 107.552 100.855 108.05 100.781C108.723 100.68 109.411 100.753 110.044 100.992C110.676 101.231 111.229 101.627 111.643 102.139C111.843 102.403 112.005 102.69 112.126 102.994C112.243 103.302 112.32 103.623 112.357 103.948C112.364 103.944 112.369 103.938 112.372 103.931C112.375 103.924 112.375 103.916 112.373 103.909Z" fill="#EBEBEB"/>
<path d="M111.864 103.909C111.826 103.489 111.698 103.081 111.487 102.711C111.276 102.341 110.986 102.015 110.636 101.756C110.285 101.501 109.884 101.315 109.456 101.208C109.029 101.1 108.583 101.074 108.145 101.129C107.706 101.186 107.285 101.331 106.909 101.552C106.533 101.774 106.21 102.069 105.962 102.417C105.704 102.792 105.532 103.214 105.46 103.657C105.388 104.099 105.416 104.551 105.543 104.982C105.652 105.356 105.838 105.706 106.09 106.011C106.342 106.317 106.655 106.572 107.012 106.762C107.714 107.138 108.537 107.254 109.325 107.09C110.084 106.931 110.763 106.531 111.25 105.957C111.731 105.391 112.009 104.694 112.042 103.968C112.042 103.933 112.042 103.904 112.011 103.904C111.979 103.904 111.969 103.928 111.969 103.963C111.926 104.546 111.719 105.107 111.371 105.589C111.022 106.07 110.544 106.455 109.986 106.703C109.589 106.886 109.155 106.987 108.714 106.999C108.272 107.011 107.833 106.933 107.426 106.772C107.015 106.609 106.647 106.362 106.348 106.05C106.049 105.737 105.826 105.366 105.695 104.963C105.559 104.549 105.519 104.113 105.579 103.683C105.639 103.254 105.797 102.842 106.041 102.477C106.274 102.133 106.581 101.841 106.943 101.619C107.305 101.398 107.713 101.253 108.139 101.194C108.712 101.112 109.298 101.175 109.836 101.378C110.374 101.58 110.846 101.915 111.203 102.347C111.374 102.572 111.515 102.816 111.623 103.073C111.721 103.337 111.789 103.611 111.827 103.889L111.864 103.909Z" fill="#EBEBEB"/>
<path d="M111.355 103.909C111.317 103.559 111.205 103.221 111.024 102.914C110.844 102.607 110.599 102.338 110.306 102.124C109.715 101.701 108.974 101.512 108.239 101.597C107.871 101.643 107.517 101.764 107.201 101.95C106.886 102.136 106.615 102.383 106.408 102.676C106.184 102.989 106.033 103.346 105.967 103.72C105.901 104.094 105.921 104.477 106.025 104.843C106.114 105.163 106.269 105.463 106.483 105.724C106.697 105.986 106.964 106.204 107.269 106.365C107.869 106.685 108.575 106.781 109.246 106.633C109.894 106.49 110.468 106.139 110.872 105.639C111.272 105.159 111.507 104.574 111.544 103.963C111.544 103.933 111.544 103.909 111.507 103.909C111.501 103.909 111.495 103.911 111.489 103.914C111.484 103.917 111.479 103.92 111.475 103.925C111.471 103.93 111.468 103.935 111.467 103.941C111.465 103.946 111.464 103.952 111.465 103.958C111.425 104.448 111.25 104.919 110.958 105.324C110.665 105.729 110.264 106.053 109.797 106.265C109.463 106.422 109.098 106.51 108.725 106.523C108.352 106.536 107.981 106.474 107.636 106.34C107.288 106.201 106.976 105.992 106.723 105.726C106.47 105.461 106.282 105.146 106.172 104.803C106.064 104.455 106.035 104.089 106.09 103.729C106.144 103.37 106.28 103.026 106.487 102.72C106.685 102.436 106.945 102.195 107.251 102.015C107.556 101.835 107.898 101.719 108.255 101.676C108.726 101.624 109.204 101.676 109.65 101.83C110.098 101.993 110.492 102.268 110.788 102.626C110.933 102.81 111.053 103.01 111.145 103.222C111.233 103.44 111.295 103.667 111.329 103.899C111.329 103.899 111.36 103.909 111.355 103.909Z" fill="#EBEBEB"/>
<path d="M110.851 103.908C110.814 103.631 110.719 103.364 110.572 103.122C110.426 102.879 110.23 102.667 109.996 102.497C109.526 102.161 108.94 102.007 108.355 102.064C108.057 102.097 107.77 102.189 107.513 102.333C107.255 102.478 107.033 102.673 106.86 102.904C106.672 103.16 106.543 103.45 106.484 103.756C106.424 104.062 106.434 104.377 106.513 104.679C106.583 104.945 106.71 105.194 106.886 105.412C107.062 105.629 107.283 105.81 107.536 105.942C108.033 106.208 108.618 106.285 109.173 106.156C109.7 106.035 110.168 105.747 110.5 105.34C110.816 104.943 110.998 104.465 111.025 103.968C111.025 103.963 111.025 103.958 111.023 103.953C111.022 103.947 111.019 103.943 111.016 103.938C111.013 103.934 111.008 103.931 111.004 103.928C110.999 103.926 110.993 103.924 110.988 103.923C110.988 103.923 110.951 103.923 110.946 103.963C110.909 104.359 110.765 104.738 110.528 105.066C110.291 105.393 109.968 105.657 109.592 105.833C109.322 105.966 109.025 106.043 108.72 106.056C108.416 106.07 108.112 106.021 107.83 105.912C107.545 105.801 107.289 105.63 107.083 105.412C106.877 105.194 106.725 104.935 106.639 104.654C106.555 104.371 106.537 104.073 106.586 103.782C106.635 103.491 106.75 103.214 106.922 102.969C107.085 102.744 107.296 102.556 107.542 102.416C107.789 102.276 108.064 102.188 108.349 102.158C108.722 102.129 109.098 102.175 109.451 102.293C109.805 102.419 110.119 102.631 110.358 102.909C110.475 103.053 110.572 103.21 110.647 103.377C110.721 103.551 110.776 103.733 110.809 103.918L110.851 103.908Z" fill="#EBEBEB"/>
<path d="M156.463 113.404H150.341L151.101 108H155.702L156.463 113.404Z" fill="#C7C7C7"/>
<path d="M159.044 104.952C159.519 102.002 157.38 99.2447 154.267 98.7942C151.154 98.3438 148.245 100.37 147.77 103.321C147.295 106.271 149.433 109.028 152.546 109.479C155.659 109.929 158.568 107.903 159.044 104.952Z" fill="#DBDBDB"/>
<path d="M157.688 104.75C158.049 102.505 156.421 100.407 154.053 100.065C151.684 99.7228 149.472 101.265 149.11 103.51C148.749 105.755 150.376 107.852 152.745 108.194C155.114 108.537 157.326 106.994 157.688 104.75Z" fill="white"/>
<path d="M157.029 103.909C156.988 103.418 156.841 102.941 156.598 102.506C156.354 102.072 156.019 101.689 155.613 101.383C155.203 101.082 154.734 100.863 154.232 100.739C153.731 100.615 153.208 100.589 152.696 100.662C152.187 100.739 151.701 100.916 151.269 101.182C150.837 101.449 150.469 101.798 150.189 102.208C149.89 102.645 149.694 103.137 149.616 103.652C149.537 104.167 149.577 104.692 149.732 105.191C149.993 106.053 150.602 106.782 151.427 107.22C152.231 107.653 153.176 107.791 154.081 107.607C154.957 107.432 155.743 106.975 156.305 106.315C156.862 105.665 157.184 104.864 157.223 104.028C157.223 103.988 157.223 103.953 157.186 103.953C157.15 103.953 157.15 103.983 157.144 104.023C157.124 104.361 157.057 104.695 156.945 105.017C156.825 105.334 156.663 105.634 156.463 105.912C156.259 106.184 156.021 106.431 155.754 106.648C155.479 106.867 155.176 107.052 154.852 107.2C154.392 107.407 153.89 107.521 153.381 107.533C152.871 107.545 152.364 107.455 151.894 107.269C151.419 107.08 150.994 106.795 150.647 106.434C150.301 106.074 150.04 105.646 149.884 105.181C149.727 104.704 149.679 104.201 149.745 103.705C149.812 103.209 149.99 102.732 150.267 102.308C150.535 101.902 150.891 101.556 151.312 101.293C151.733 101.029 152.208 100.855 152.707 100.781C153.379 100.68 154.068 100.753 154.7 100.992C155.333 101.231 155.885 101.627 156.3 102.139C156.497 102.404 156.66 102.691 156.783 102.994C156.898 103.302 156.973 103.623 157.008 103.948C157.016 103.945 157.022 103.939 157.026 103.932C157.03 103.925 157.031 103.916 157.029 103.909Z" fill="#EBEBEB"/>
<path d="M156.52 103.909C156.48 103.49 156.351 103.083 156.14 102.713C155.929 102.343 155.641 102.017 155.293 101.756C154.941 101.501 154.54 101.315 154.113 101.208C153.685 101.1 153.239 101.074 152.801 101.129C152.362 101.192 151.943 101.342 151.569 101.568C151.195 101.794 150.875 102.092 150.629 102.442C150.371 102.816 150.199 103.239 150.127 103.682C150.055 104.124 150.083 104.576 150.21 105.007C150.319 105.381 150.505 105.731 150.757 106.036C151.009 106.342 151.322 106.597 151.678 106.787C152.381 107.161 153.204 107.278 153.992 107.115C154.753 106.958 155.434 106.558 155.922 105.982C156.401 105.415 156.678 104.719 156.714 103.993C156.714 103.958 156.714 103.928 156.678 103.928C156.641 103.928 156.641 103.953 156.636 103.988C156.594 104.57 156.388 105.131 156.041 105.613C155.693 106.095 155.216 106.48 154.658 106.727C154.261 106.911 153.827 107.012 153.386 107.024C152.945 107.036 152.506 106.958 152.098 106.797C151.686 106.635 151.317 106.389 151.017 106.076C150.717 105.763 150.493 105.392 150.362 104.987C150.228 104.574 150.189 104.138 150.249 103.709C150.309 103.28 150.465 102.868 150.708 102.502C150.942 102.159 151.25 101.867 151.611 101.646C151.973 101.425 152.381 101.279 152.806 101.219C153.379 101.136 153.965 101.199 154.503 101.402C155.041 101.605 155.513 101.94 155.87 102.372C156.043 102.596 156.184 102.84 156.289 103.098C156.393 103.361 156.461 103.635 156.494 103.913C156.503 103.915 156.512 103.913 156.52 103.909Z" fill="#EBEBEB"/>
<path d="M156.011 103.909C155.971 103.56 155.858 103.222 155.678 102.915C155.497 102.609 155.254 102.34 154.962 102.124C154.371 101.702 153.63 101.513 152.895 101.597C152.527 101.643 152.173 101.764 151.858 101.95C151.542 102.136 151.272 102.383 151.065 102.676C150.84 102.99 150.69 103.346 150.623 103.72C150.556 104.093 150.574 104.477 150.677 104.843C150.767 105.163 150.924 105.462 151.139 105.723C151.353 105.984 151.621 106.203 151.925 106.365C152.524 106.685 153.228 106.781 153.897 106.633C154.546 106.49 155.123 106.139 155.529 105.639C155.93 105.16 156.163 104.574 156.195 103.963C156.195 103.933 156.195 103.909 156.164 103.909C156.157 103.909 156.151 103.911 156.146 103.914C156.14 103.917 156.135 103.92 156.132 103.925C156.128 103.93 156.125 103.935 156.123 103.941C156.121 103.946 156.121 103.952 156.122 103.958C156.081 104.447 155.905 104.918 155.613 105.323C155.32 105.728 154.92 106.053 154.453 106.265C154.119 106.422 153.754 106.51 153.381 106.523C153.009 106.536 152.637 106.474 152.292 106.34C151.944 106.201 151.633 105.992 151.38 105.726C151.127 105.461 150.939 105.146 150.829 104.803C150.72 104.455 150.692 104.089 150.746 103.729C150.801 103.37 150.936 103.026 151.143 102.72C151.34 102.436 151.599 102.195 151.903 102.015C152.208 101.834 152.55 101.719 152.906 101.676C153.379 101.623 153.859 101.676 154.307 101.83C154.755 101.993 155.148 102.268 155.445 102.626C155.59 102.81 155.71 103.01 155.802 103.222C155.885 103.442 155.946 103.668 155.985 103.899L156.011 103.909Z" fill="#EBEBEB"/>
<path d="M155.502 103.908C155.467 103.631 155.374 103.364 155.228 103.121C155.082 102.879 154.886 102.666 154.653 102.497C154.182 102.162 153.596 102.007 153.011 102.064C152.713 102.095 152.425 102.186 152.167 102.331C151.909 102.475 151.687 102.671 151.516 102.904C151.328 103.16 151.2 103.45 151.14 103.756C151.08 104.062 151.09 104.377 151.17 104.679C151.238 104.945 151.364 105.194 151.54 105.411C151.715 105.628 151.935 105.809 152.187 105.942C152.684 106.208 153.269 106.284 153.824 106.156C154.352 106.034 154.821 105.746 155.156 105.34C155.472 104.943 155.655 104.465 155.681 103.968C155.682 103.963 155.683 103.958 155.682 103.953C155.681 103.948 155.679 103.943 155.676 103.939C155.673 103.934 155.669 103.931 155.665 103.928C155.66 103.926 155.655 103.924 155.649 103.923C155.638 103.923 155.628 103.928 155.62 103.935C155.612 103.943 155.607 103.953 155.607 103.963C155.57 104.359 155.426 104.74 155.187 105.067C154.949 105.395 154.626 105.658 154.249 105.833C153.979 105.966 153.683 106.042 153.379 106.055C153.076 106.069 152.773 106.02 152.491 105.912C152.206 105.801 151.951 105.63 151.745 105.412C151.539 105.194 151.387 104.935 151.301 104.654C151.217 104.371 151.199 104.073 151.248 103.782C151.297 103.491 151.411 103.214 151.584 102.969C151.746 102.744 151.957 102.555 152.204 102.415C152.45 102.276 152.725 102.188 153.011 102.158C153.382 102.129 153.756 102.175 154.107 102.293C154.463 102.417 154.776 102.63 155.015 102.909C155.135 103.051 155.234 103.209 155.308 103.377C155.383 103.551 155.437 103.733 155.471 103.918C155.471 103.918 155.508 103.908 155.502 103.908Z" fill="#EBEBEB"/>
<path d="M169.592 110.65H92.6857V124.591H169.592V110.65Z" fill="#DBDBDB"/>
<path d="M108.496 110.65L102.915 124.591H92.9794L98.5608 110.65H108.496Z" fill="#EBEBEB"/>
<path d="M128.854 110.65L123.273 124.591H113.338L118.919 110.65H128.854Z" fill="#EBEBEB"/>
<path d="M149.208 110.65L143.632 124.591H133.696L139.278 110.65H149.208Z" fill="#EBEBEB"/>
<path d="M169.571 110.65L163.99 124.591H154.055L159.636 110.65H169.571Z" fill="#EBEBEB"/>
<path d="M168.04 137.482H94.2437V146.307H168.04V137.482Z" fill="#DBDBDB"/>
<path d="M109.409 137.482L104.058 146.302H94.5269L99.8827 137.482H109.409Z" fill="#EBEBEB"/>
<path d="M128.949 137.482L123.593 146.302H114.057L119.412 137.482H128.949Z" fill="#EBEBEB"/>
<path d="M148.479 137.482L143.123 146.302H133.591L138.947 137.482H148.479Z" fill="#EBEBEB"/>
<path d="M168.013 137.482L162.658 146.302H153.126L158.482 137.482H168.013Z" fill="#EBEBEB"/>
<path d="M245.392 44.2481H186.022C186.022 44.2481 191.907 29.0099 200.967 29.0099C210.026 29.0099 212.864 39.525 212.864 39.525C212.864 39.525 218.975 33.8076 223.99 33.8076C229.005 33.8076 233.375 41.3596 233.375 41.3596C233.375 41.3596 240.482 37.2878 245.392 44.2481Z" fill="#EBEBEB"/>
<path d="M86.2754 8.51155H58.5311C58.5311 8.51155 64.7263 0 69.6152 0C74.5042 0 75.9415 5.67768 75.9415 5.67768C75.9415 5.67768 79.3879 3.02777 82.5825 3.48019C85.7771 3.93261 86.2754 8.51155 86.2754 8.51155Z" fill="#EBEBEB"/>
<path d="M235.94 69.8076H208.195C208.195 69.8076 214.396 61.2961 219.279 61.2961C224.163 61.2961 225.606 66.9688 225.606 66.9688C225.606 66.9688 229.052 64.3238 232.247 64.7962C235.441 65.2685 235.94 69.8076 235.94 69.8076Z" fill="#EBEBEB"/>
<path d="M70.9371 29.8302H16.8911C16.8911 29.8302 24.2927 14.1694 32.2084 13.1899C40.1241 12.2105 43.9115 24.8585 43.9115 24.8585C43.9115 24.8585 49.0207 20.384 53.0337 20.384C57.0466 20.384 60.1468 26.2556 60.1468 26.2556C60.1468 26.2556 68.1937 22.2335 70.9371 29.8302Z" fill="#EBEBEB"/>
<path d="M131.142 193.663C192.007 193.663 241.348 188.211 241.348 181.487C241.348 174.762 192.007 169.311 131.142 169.311C70.2765 169.311 20.9355 174.762 20.9355 181.487C20.9355 188.211 70.2765 193.663 131.142 193.663Z" fill="#EBEBEB"/>
<path d="M145.552 183.759C146.643 184.107 177.875 184.211 179.071 183.501C179.528 183.237 179.806 178.927 179.989 173.706C180.031 172.578 180.063 171.414 180.094 170.226L182.623 154.436L161.745 154.307L159.773 170.102L159.851 173.582C159.851 173.582 147.875 178.608 146.653 179.548C145.431 180.488 144.466 183.406 145.552 183.759Z" fill="#EB9481"/>
<path d="M145.552 183.759C146.643 184.107 177.875 184.211 179.071 183.5C179.622 183.172 179.926 176.878 180.094 170.236L159.773 170.112L159.851 173.592C159.851 173.592 147.875 178.618 146.653 179.558C145.431 180.498 144.466 183.406 145.552 183.759Z" fill="white"/>
<path d="M145.552 183.759C146.643 184.107 177.875 184.211 179.071 183.5C179.528 183.237 179.806 178.927 179.989 173.706L159.851 173.587C159.851 173.587 147.875 178.613 146.653 179.553C145.431 180.493 144.466 183.406 145.552 183.759Z" fill="#1A79E8"/>
<path d="M146.008 182.576C151.254 182.471 172.373 182.516 177.555 182.79C177.597 182.79 177.597 182.819 177.555 182.824C172.367 183.033 151.238 182.824 146.003 182.655C145.893 182.65 145.893 182.576 146.008 182.576Z" fill="#263238"/>
<path d="M148.668 178.484C149.253 178.468 149.835 178.568 150.377 178.777C150.919 178.987 151.409 179.302 151.815 179.702C152.548 180.413 152.965 181.363 152.979 182.357C152.979 182.387 152.917 182.387 152.911 182.357C152.74 181.377 152.239 180.476 151.482 179.789C150.726 179.101 149.755 178.665 148.715 178.544C148.706 178.55 148.696 178.552 148.686 178.551C148.675 178.549 148.666 178.544 148.66 178.536C148.653 178.528 148.651 178.518 148.652 178.509C148.654 178.499 148.659 178.49 148.668 178.484Z" fill="#263238"/>
<path d="M157.821 174.069C159.919 174.069 162.343 174.76 163.639 176.391C163.691 176.451 163.597 176.52 163.534 176.485C161.697 175.57 159.763 174.843 157.764 174.318C157.734 174.306 157.71 174.285 157.695 174.258C157.68 174.231 157.676 174.2 157.683 174.171C157.689 174.141 157.707 174.115 157.732 174.096C157.758 174.077 157.789 174.068 157.821 174.069Z" fill="#263238"/>
<path d="M156.2 174.666C158.299 174.641 160.722 175.352 162.018 176.983C162.07 177.042 161.976 177.112 161.913 177.082C160.078 176.162 158.143 175.433 156.143 174.909C156.109 174.902 156.079 174.882 156.06 174.854C156.041 174.826 156.035 174.793 156.043 174.76C156.051 174.728 156.071 174.7 156.101 174.682C156.13 174.664 156.166 174.658 156.2 174.666Z" fill="#263238"/>
<path d="M154.579 175.257C156.678 175.257 159.101 175.944 160.402 177.574C160.449 177.639 160.355 177.703 160.292 177.674C158.458 176.753 156.523 176.024 154.522 175.501C154.488 175.494 154.458 175.474 154.439 175.446C154.421 175.418 154.414 175.384 154.422 175.352C154.43 175.32 154.451 175.291 154.48 175.274C154.51 175.256 154.545 175.25 154.579 175.257Z" fill="#263238"/>
<path d="M152.959 175.849C155.057 175.849 157.486 176.535 158.781 178.166C158.828 178.231 158.734 178.295 158.671 178.265C156.835 177.348 154.9 176.62 152.901 176.093C152.867 176.085 152.837 176.066 152.818 176.038C152.8 176.01 152.794 175.976 152.801 175.944C152.809 175.911 152.83 175.883 152.859 175.865C152.889 175.848 152.924 175.842 152.959 175.849Z" fill="#263238"/>
<path d="M176.255 178.076C178.61 178.076 178.589 181.557 176.255 181.557C173.92 181.557 173.883 178.061 176.255 178.076Z" fill="#263238"/>
<path d="M155.733 171.678C156.856 173.06 158.577 173.94 160.066 174.919C160.101 174.938 160.14 174.949 160.181 174.951C160.221 174.953 160.261 174.946 160.297 174.93C160.334 174.915 160.367 174.891 160.392 174.862C160.417 174.832 160.435 174.797 160.444 174.76C160.452 174.762 160.461 174.762 160.469 174.76C160.477 174.757 160.484 174.754 160.49 174.748C160.496 174.743 160.501 174.736 160.504 174.729C160.507 174.721 160.508 174.713 160.507 174.706C160.36 172.883 159.71 171.129 158.624 169.62C157.973 168.754 156.641 167.934 155.576 168.764C154.511 169.595 155.072 170.867 155.733 171.678ZM155.639 170.032C155.859 167.869 157.91 169.535 158.361 170.196C158.647 170.627 158.901 171.075 159.122 171.539C159.564 172.5 159.954 173.483 160.292 174.482C159.594 173.96 158.849 173.488 158.131 172.99C157.276 172.399 155.524 171.22 155.639 170.032Z" fill="#263238"/>
<path d="M167.956 173.463C167.798 172.165 166.235 171.882 165.134 172.081C163.245 172.451 161.493 173.288 160.056 174.507C160.019 174.532 160.056 174.566 160.056 174.586C160.034 174.618 160.02 174.655 160.016 174.693C160.012 174.731 160.018 174.77 160.032 174.805C160.047 174.841 160.071 174.872 160.102 174.897C160.132 174.923 160.169 174.94 160.208 174.949C162.002 175.223 163.88 175.72 165.711 175.446C166.781 175.307 168.108 174.691 167.956 173.463ZM163.02 174.835C162.133 174.72 161.262 174.566 160.397 174.487C161.388 174.014 162.353 173.492 163.392 173.13C163.891 172.942 164.403 172.786 164.924 172.662C165.732 172.488 168.428 172.632 167.022 174.333C166.199 175.272 164.074 174.969 163.02 174.835Z" fill="#263238"/>
<path d="M213.31 81.4564C213.31 81.4564 189.059 120.554 188.409 123.298C187.412 127.519 182.114 169.172 182.114 169.172L156.882 168.744C156.882 168.744 161.231 132.019 165.349 119.917C168.318 111.202 189.715 82.2966 189.715 82.2966L213.31 81.4564Z" fill="#AED3E6"/>
<path d="M159.185 165.06C162.81 165.06 175.651 164.901 180.472 165.329C180.509 165.329 180.509 165.389 180.472 165.394C178.814 165.617 162.81 165.269 159.185 165.155C159.177 165.157 159.169 165.158 159.161 165.157C159.152 165.156 159.145 165.153 159.138 165.148C159.131 165.143 159.126 165.137 159.122 165.13C159.118 165.123 159.116 165.116 159.116 165.108C159.116 165.1 159.118 165.092 159.122 165.085C159.126 165.078 159.131 165.072 159.138 165.067C159.145 165.063 159.152 165.06 159.161 165.059C159.169 165.057 159.177 165.058 159.185 165.06Z" fill="#263238"/>
<path d="M209.171 85.0459C207.597 87.4075 205.903 89.7193 204.277 92.061C202.651 94.4027 201.035 96.7493 199.435 99.1109C196.242 103.824 193.123 108.582 190.077 113.385C188.599 115.593 187.333 117.922 186.295 120.345C185.347 122.781 184.636 125.294 184.17 127.852C183.672 130.418 183.347 133.008 183.042 135.598C182.714 138.359 182.388 141.118 182.067 143.876C181.402 149.511 180.738 155.153 180.073 160.805C179.989 161.501 179.911 162.192 179.837 162.883C179.837 162.987 180.016 163.007 180.031 162.883C180.771 157.275 181.39 151.652 182.067 146.034L183.074 137.671C183.383 135.071 183.682 132.471 184.123 129.886C184.516 127.336 185.111 124.819 185.901 122.354C186.766 119.801 187.929 117.348 189.369 115.04C192.29 110.257 195.385 105.559 198.48 100.876C201.575 96.1925 204.749 91.4296 208.017 86.796C208.416 86.2192 208.825 85.6525 209.244 85.0857C209.302 85.0409 209.203 85.0161 209.171 85.0459Z" fill="#263238"/>
<path d="M191.871 187.045C193.02 187.115 224.011 179.374 224.976 178.399C225.02 178.341 225.045 178.272 225.05 178.201C225.17 177.236 223.586 173.632 222.474 169.013C222.406 168.72 221.824 167.318 221.005 165.423C218.755 160.228 214.742 151.299 214.742 151.299L194.509 156.221L201.958 170.415L202.965 173.751C202.965 173.751 192.731 181.512 191.797 182.7C190.864 183.888 190.727 186.971 191.871 187.045Z" fill="#EB9481"/>
<path d="M191.871 187.045C193.02 187.115 224.011 179.374 224.976 178.4C225.02 178.341 225.045 178.272 225.05 178.201C225.17 177.236 223.586 173.632 222.474 169.013C222.406 168.72 221.824 167.318 221.005 165.423L201.963 170.395L202.971 173.731C202.971 173.731 192.736 181.492 191.803 182.68C190.869 183.868 190.727 186.971 191.871 187.045Z" fill="white"/>
<path d="M191.871 187.045C193.02 187.12 224.011 179.374 224.976 178.4C225.343 178.032 224.541 174.059 222.474 169.013L202.971 173.756C202.971 173.756 192.736 181.507 191.803 182.705C190.869 183.903 190.727 186.966 191.871 187.045Z" fill="#1A79E8"/>
<path d="M191.991 185.792C197.027 184.425 217.475 179.374 222.563 178.39C222.605 178.39 222.61 178.39 222.563 178.419C217.606 179.871 197.116 184.768 192.007 185.877C191.908 185.892 191.887 185.817 191.991 185.792Z" fill="#263238"/>
<path d="M193.465 181.174C194.025 181.021 194.612 180.98 195.189 181.053C195.766 181.127 196.321 181.314 196.817 181.601C197.716 182.113 198.373 182.931 198.653 183.888C198.653 183.918 198.601 183.933 198.591 183.888C198.159 182.979 197.427 182.228 196.505 181.747C195.584 181.267 194.523 181.083 193.481 181.223C193.477 181.221 193.472 181.218 193.469 181.215C193.466 181.211 193.463 181.207 193.462 181.202C193.46 181.197 193.46 181.192 193.46 181.187C193.461 181.183 193.463 181.178 193.465 181.174Z" fill="#263238"/>
<path d="M201.135 174.716C203.154 174.189 205.693 174.293 207.382 175.556C207.45 175.6 207.382 175.69 207.309 175.675C205.294 175.231 203.235 174.991 201.166 174.959C201.135 174.958 201.105 174.946 201.082 174.926C201.059 174.906 201.045 174.879 201.041 174.85C201.037 174.821 201.044 174.791 201.062 174.766C201.079 174.742 201.105 174.724 201.135 174.716Z" fill="#263238"/>
<path d="M199.729 175.68C201.748 175.153 204.287 175.252 205.976 176.515C206.045 176.565 205.976 176.654 205.898 176.64C203.883 176.192 201.824 175.952 199.755 175.924C199.724 175.922 199.695 175.909 199.673 175.889C199.651 175.869 199.637 175.841 199.634 175.812C199.631 175.783 199.639 175.754 199.656 175.73C199.673 175.706 199.699 175.688 199.729 175.68Z" fill="#263238"/>
<path d="M198.318 176.644C200.342 176.117 202.876 176.217 204.57 177.48C204.633 177.529 204.57 177.619 204.492 177.604C202.477 177.157 200.418 176.917 198.349 176.888C198.318 176.887 198.288 176.875 198.265 176.855C198.242 176.835 198.228 176.808 198.224 176.779C198.22 176.75 198.227 176.72 198.245 176.695C198.262 176.671 198.288 176.653 198.318 176.644Z" fill="#263238"/>
<path d="M196.912 177.609C198.931 177.082 201.47 177.181 203.16 178.444C203.228 178.494 203.159 178.578 203.086 178.569C201.071 178.122 199.012 177.882 196.943 177.853C196.912 177.852 196.882 177.84 196.86 177.82C196.837 177.8 196.822 177.773 196.818 177.744C196.814 177.714 196.822 177.685 196.839 177.66C196.856 177.635 196.882 177.617 196.912 177.609Z" fill="#263238"/>
<path d="M220.024 174.144C222.301 173.592 223.214 176.943 220.932 177.5C218.65 178.057 217.742 174.696 220.024 174.144Z" fill="#263238"/>
<path d="M198.47 172.906C199.933 173.975 201.832 174.397 203.532 174.999C203.571 175.008 203.612 175.009 203.652 175C203.691 174.992 203.728 174.975 203.76 174.951C203.791 174.927 203.816 174.896 203.833 174.862C203.85 174.827 203.858 174.789 203.857 174.75C203.866 174.75 203.874 174.748 203.882 174.744C203.889 174.74 203.896 174.734 203.901 174.727C203.905 174.721 203.908 174.713 203.909 174.705C203.909 174.696 203.908 174.688 203.904 174.681C203.274 172.95 202.174 171.407 200.715 170.206C199.855 169.525 198.344 169.058 197.536 170.117C196.728 171.176 197.62 172.279 198.47 172.906ZM197.945 171.335C197.578 169.192 200.007 170.311 200.621 170.838C201.013 171.184 201.379 171.556 201.717 171.951C202.436 172.762 203.018 173.652 203.642 174.517C202.824 174.179 201.979 173.91 201.15 173.602C200.154 173.229 198.145 172.518 197.94 171.335H197.945Z" fill="#263238"/>
<path d="M210.771 171.683C210.273 170.47 208.673 170.569 207.671 171.027C205.946 171.843 204.477 173.074 203.411 174.596C203.406 174.603 203.402 174.61 203.4 174.618C203.398 174.626 203.399 174.635 203.402 174.643C203.404 174.651 203.409 174.658 203.415 174.664C203.421 174.669 203.429 174.673 203.437 174.676C203.406 174.82 203.5 175.009 203.684 174.989C205.494 174.82 207.445 174.845 209.139 174.154C210.131 173.751 211.248 172.836 210.771 171.683ZM206.365 174.198C205.483 174.303 204.597 174.367 203.742 174.502C204.576 173.806 205.373 173.085 206.275 172.468C206.707 172.167 207.159 171.893 207.629 171.648C208.363 171.28 211.012 170.773 210.089 172.762C209.559 173.855 207.424 174.074 206.365 174.198Z" fill="#263238"/>
<path d="M200.573 169.5L223.245 163.862C223.245 163.862 201.539 123.383 201.738 120.608C201.895 118.123 217.638 96.4062 218.524 92.3394C219.946 85.6873 216.525 79.7411 213.21 76.0571L189.762 82.3214C189.762 82.3214 191.63 86.1645 195.06 88.5907C195.06 88.5907 180.325 111.913 179.947 119.584C179.57 127.256 200.573 169.5 200.573 169.5Z" fill="#AED3E6"/>
<path d="M200.143 165.503C203.427 164.608 202.472 164.822 205.772 163.962C207.387 163.544 217.999 160.795 219.573 160.651C219.61 160.651 219.626 160.705 219.573 160.715C218.125 161.332 207.466 163.907 205.845 164.295C202.525 165.095 203.469 164.832 200.143 165.592C200.131 165.592 200.119 165.588 200.11 165.579C200.101 165.571 200.096 165.56 200.096 165.548C200.096 165.536 200.101 165.524 200.11 165.516C200.119 165.508 200.131 165.503 200.143 165.503Z" fill="#263238"/>
<path d="M191.425 87.6709C193.671 88.4632 195.841 89.4345 197.914 90.5744C197.93 90.5823 197.943 90.5962 197.949 90.613C197.955 90.6298 197.954 90.6481 197.945 90.6639C197.937 90.6797 197.922 90.6918 197.905 90.6974C197.887 90.7029 197.868 90.7016 197.851 90.6937C195.663 89.7939 193.429 88.9238 191.299 87.9096C191.131 87.83 191.252 87.6163 191.425 87.6709Z" fill="#263238"/>
<path d="M194.179 87.1241C194.345 87.5147 194.486 87.9149 194.598 88.3223C194.721 88.6403 194.777 88.9783 194.761 89.3166C194.761 89.3763 194.661 89.3813 194.625 89.3166C194.426 89.0204 194.278 88.6966 194.184 88.3571C194.042 87.9892 193.89 87.6213 193.764 87.2434C193.675 87.0048 194.09 86.8855 194.179 87.1241Z" fill="#263238"/>
<path d="M194.174 85.1105C194.084 84.7675 193.99 84.4294 193.89 84.0913C193.791 83.7532 193.654 83.3903 193.581 83.0323C193.581 82.9777 193.476 83.0025 193.492 83.0572C193.581 83.4003 193.623 83.7582 193.686 84.1062C193.749 84.4543 193.822 84.8023 193.896 85.1503C194.034 85.8001 194.209 86.4424 194.42 87.0743C194.051 87.0495 193.692 86.9459 193.371 86.7711C193.057 86.5271 192.832 86.1945 192.731 85.8215C192.584 85.4337 192.453 85.0409 192.301 84.6581C192.112 84.2384 191.961 83.8043 191.85 83.3605C191.85 83.3008 191.745 83.3307 191.755 83.3853C191.937 84.324 192.216 85.2433 192.589 86.1297C192.752 86.4728 192.873 86.8307 193.235 87.0047C193.633 87.1622 194.062 87.2417 194.494 87.2384C194.505 87.2451 194.519 87.2485 194.533 87.2481C194.547 87.2478 194.56 87.2437 194.572 87.2364C194.583 87.2292 194.592 87.219 194.598 87.207C194.604 87.195 194.606 87.1818 194.604 87.1688C194.497 86.4762 194.354 85.7893 194.174 85.1105Z" fill="#263238"/>
<path d="M194.567 89.3315C193.675 90.8528 192.658 92.3145 191.703 93.806C190.748 95.2975 189.888 96.7493 189.017 98.2408C187.265 101.254 185.639 104.346 184.154 107.488C183.42 109.043 182.721 110.615 182.056 112.206C181.365 113.789 180.795 115.418 180.351 117.079C179.934 118.736 179.856 120.454 180.121 122.14C180.448 123.857 180.911 125.549 181.505 127.201C182.722 131.004 184.201 134.728 185.933 138.347C185.99 138.467 186.2 138.372 186.153 138.248C184.915 134.937 183.635 131.641 182.518 128.305C181.442 125.053 180.162 121.682 180.755 118.232C181.086 116.573 181.585 114.948 182.245 113.38C182.882 111.769 183.56 110.176 184.28 108.602C185.702 105.499 187.302 102.477 188.939 99.4688C189.851 97.7834 190.811 96.1229 191.74 94.4424C192.668 92.762 193.581 91.0169 194.625 89.3862C194.677 89.3216 194.614 89.2818 194.567 89.3315Z" fill="#263238"/>
<path d="M211.642 86.0701C211.217 86.0005 210.593 86.1397 208.762 86.0204C208.253 85.9801 207.747 85.902 207.251 85.7867C206.746 85.7142 206.267 85.5303 205.851 85.2498C205.186 84.6535 204.643 83.9455 204.251 83.1616C203.76 82.3537 203.384 81.4877 203.133 80.5863C203.133 80.5316 203.034 80.5614 203.044 80.5863C203.144 81.0835 203.196 81.6055 203.338 82.1076C203.473 82.5811 203.648 83.0433 203.862 83.4898C204.199 84.3731 204.764 85.1626 205.504 85.7867C206.333 86.3783 207.492 86.4927 208.494 86.5573C209.077 86.5971 211.358 86.5573 211.642 86.2292C211.726 86.1993 211.72 86.08 211.642 86.0701Z" fill="#263238"/>
<path d="M217.617 159.224C214.756 153.715 211.958 148.172 209.223 142.593C206.489 137.015 203.826 131.399 201.234 125.744C200.523 124.416 199.956 123.024 199.54 121.588C199.189 120.012 199.703 118.605 200.406 117.173C201.713 114.585 203.176 112.071 204.786 109.641C206.359 107.195 208.059 104.803 209.722 102.402C211.441 100.05 213.018 97.6065 214.443 95.0838C215.817 92.7115 216.402 90.0011 216.122 87.3081C215.754 84.5935 214.516 82.048 213.184 79.6467C212.833 79.0153 212.471 78.3888 212.135 77.7574C212.109 77.7077 212.03 77.7574 212.061 77.8022C213.541 80.288 214.962 82.9528 215.655 85.7569C216.011 87.1519 216.121 88.5934 215.98 90.0226C215.796 91.4654 215.367 92.8705 214.71 94.1839C213.478 96.7543 211.757 99.1158 210.136 101.472C208.515 103.829 206.789 106.265 205.174 108.701C203.531 111.141 202.024 113.66 200.657 116.248C200.059 117.402 199.404 118.61 199.257 119.907C199.099 121.334 199.64 122.697 200.222 123.984C202.74 129.587 205.394 135.136 208.09 140.664C210.787 146.193 213.583 151.726 216.421 157.215L217.47 159.288C217.527 159.388 217.659 159.308 217.617 159.224Z" fill="#263238"/>
<path d="M189.243 34.5533C189.767 32.2813 192.432 27.1405 197.693 28.1448C205.205 29.5816 206.291 43.3035 210.031 47.5742C216.803 55.3201 217.024 62.9865 211.474 64.2145C205.252 65.5867 199.199 59.2428 199.409 45.5706C199.55 37.0094 197.006 33.216 195.212 33.4695C193.418 33.7231 192.427 35.8858 192.427 35.8858L189.243 34.5533Z" fill="#263238"/>
<path d="M189.495 33.7032C189.866 32.6434 190.372 31.63 191 30.6854C191.63 29.7174 192.466 28.8844 193.455 28.2393C194.478 27.5832 195.693 27.2508 196.928 27.2897C198.151 27.3228 199.348 27.6367 200.416 28.2045C201.457 28.7945 202.351 29.5897 203.039 30.5362C203.718 31.4668 204.283 32.4676 204.723 33.5192C205.556 35.6051 206.14 37.7731 206.464 39.9824C205.893 37.8446 205.153 35.7506 204.251 33.7181C203.783 32.7266 203.208 31.7836 202.535 30.9041C201.884 30.0316 201.043 29.3011 200.07 28.7613C199.096 28.2374 198.005 27.9393 196.886 27.8913C195.778 27.8443 194.681 28.1145 193.738 28.6668C192.772 29.2444 191.933 29.994 191.268 30.8743C190.92 31.3138 190.599 31.7719 190.308 32.2465C190.014 32.7088 189.746 33.201 189.495 33.7032Z" fill="#263238"/>
<path d="M199.383 40.8525C199.461 42.2098 199.383 43.572 199.351 44.9293C199.32 46.2866 199.262 47.6389 199.257 48.9912C199.251 50.3435 199.299 51.6908 199.446 53.0282C199.565 54.3595 199.822 55.6767 200.211 56.9608C200.579 58.237 201.201 59.4351 202.042 60.4907C202.925 61.5189 203.99 62.3937 205.19 63.076C206.392 63.7642 207.749 64.1746 209.15 64.2742C209.851 64.3255 210.557 64.2904 211.248 64.1698C211.604 64.1108 211.955 64.0261 212.297 63.9162C212.638 63.8167 212.963 63.6728 213.263 63.4886C212.679 63.8936 212.012 64.1797 211.306 64.3289C210.602 64.5027 209.877 64.5879 209.15 64.5824C208.416 64.5697 207.687 64.4712 206.978 64.2891C206.272 64.1008 205.59 63.8355 204.948 63.4986C204.305 63.166 203.697 62.7747 203.133 62.3302L202.719 61.9872L202.32 61.6342C202.05 61.3927 201.797 61.1335 201.565 60.8586C200.663 59.7497 199.993 58.4873 199.592 57.1398C198.866 54.4783 198.585 51.7253 198.758 48.9812C198.806 47.619 198.916 46.2617 199.042 44.9094C199.167 43.5571 199.335 42.2098 199.383 40.8525Z" fill="#263238"/>
<path d="M188.813 34.5931C188.729 33.9617 189.133 33.1016 189.552 32.9475C189.972 32.7934 193.319 33.8175 193.67 34.5732C194.021 35.3289 192.668 36.1443 192.668 36.1443L188.813 34.5931Z" fill="#FFC727"/>
<path d="M192.82 56.9857C190.759 59.7748 175.851 71.3141 167.72 71.7417C164.048 71.9356 149.685 70.449 146.485 69.2011C142.556 67.6699 150.325 58.4523 152.78 58.8401C155.854 59.3373 166.755 60.4261 168.926 60.4808C172.409 60.5703 183.09 55.0119 190.281 53.5651C194.001 52.8243 194.415 54.8379 192.82 56.9857Z" fill="#EB9481"/>
<path d="M192.658 57.5176C190.381 61.2762 182.345 67.7295 182.345 67.7295L180.976 65.3331L176.443 57.4281C176.443 57.4281 184.06 54.5495 189.112 53.1524C189.705 52.9799 190.312 52.8535 190.927 52.7746C194.189 52.3769 194.614 54.281 192.658 57.5176Z" fill="#DBDBDB"/>
<path d="M192.658 57.5127C190.381 61.2762 182.345 67.7295 182.345 67.7295L180.976 65.3331L180.042 63.7024L176.438 57.4281C176.438 57.4281 184.06 54.5495 189.112 53.1475C189.706 52.9797 190.313 52.8551 190.927 52.7746C190.995 52.7746 191.058 52.7746 191.121 52.7746C194.205 52.4564 194.583 54.3457 192.658 57.5127Z" fill="#072422"/>
<path d="M183.158 55.4792C183.333 56.1654 183.333 56.8811 183.158 57.5673C182.983 56.8811 182.983 56.1654 183.158 55.4792Z" fill="white"/>
<path d="M182.103 59.7002C181.743 59.7856 181.373 59.8273 181.002 59.8245C180.632 59.8301 180.263 59.7883 179.905 59.7002C180.263 59.612 180.632 59.5702 181.002 59.5759C181.373 59.573 181.743 59.6148 182.103 59.7002Z" fill="white"/>
<path d="M193.24 53.8634C192.518 54.0292 191.764 54.0292 191.042 53.8634C191.764 53.6976 192.518 53.6976 193.24 53.8634Z" fill="white"/>
<path d="M187.171 58.1043C187.817 58.4713 188.357 58.9836 188.744 59.5958C188.425 59.4186 188.132 59.2012 187.874 58.9495C187.601 58.6986 187.364 58.4144 187.171 58.1043Z" fill="white"/>
<path d="M182.937 63.0809C183.256 63.2597 183.549 63.477 183.808 63.7273C184.074 63.9719 184.303 64.2495 184.49 64.5526C184.172 64.3738 183.879 64.1565 183.619 63.9062C183.357 63.6592 183.127 63.382 182.937 63.0809Z" fill="white"/>
<path d="M183.745 65.9695C182.985 64.5078 179.627 58.6412 178.814 57.4182C178.757 57.3337 178.688 57.3486 178.73 57.443C180.219 60.375 181.872 63.2296 183.682 65.9944C183.703 66.0292 183.766 66.0043 183.745 65.9695Z" fill="#263238"/>
<path d="M192.658 57.5127C190.381 61.2762 182.345 67.7295 182.345 67.7295L180.975 65.3331L180.042 63.7024C184.401 59.6256 189.652 54.6092 191.121 52.7647C194.205 52.4564 194.583 54.3457 192.658 57.5127Z" fill="#A6A6A6"/>
<path d="M185.225 74.849L186.415 87.2782C188.019 87.212 189.618 87.0609 191.205 86.8258C195.388 86.2284 199.534 85.4101 203.621 84.3747C207.676 83.3804 212.429 82.0032 217.863 80.1736C217.863 80.1736 205.572 59.1632 197.09 53.3662C196.896 53.232 196.707 53.1077 196.513 52.9934L196.403 52.9238C192.548 50.6119 189.059 52.4266 187.129 55.0069C186.641 55.6483 181.92 65.8204 182.156 69.2309C182.371 72.2289 185.225 74.849 185.225 74.849Z" fill="#072422"/>
<path d="M192.044 61.5447C192.219 62.2292 192.219 62.9433 192.044 63.6278C191.952 63.2885 191.907 62.9391 191.913 62.5887C191.91 62.2369 191.954 61.886 192.044 61.5447Z" fill="white"/>
<path d="M195.034 73.5165C195.127 73.8575 195.171 74.2086 195.165 74.5606C195.173 74.9127 195.129 75.2642 195.034 75.6047C194.859 74.9185 194.859 74.2027 195.034 73.5165Z" fill="white"/>
<path d="M204.203 66.1237C204.378 66.8098 204.378 67.5256 204.203 68.2118C204.028 67.5256 204.028 66.8098 204.203 66.1237Z" fill="white"/>
<path d="M187.407 71.9305C187.582 72.6167 187.582 73.3325 187.407 74.0187C187.232 73.3325 187.232 72.6167 187.407 71.9305Z" fill="white"/>
<path d="M198.952 63.9361C198.593 64.0239 198.222 64.0657 197.851 64.0604C197.479 64.0682 197.108 64.0264 196.749 63.9361C197.473 63.7703 198.228 63.7703 198.952 63.9361Z" fill="white"/>
<path d="M206.758 73.2083C206.034 73.3741 205.279 73.3741 204.555 73.2083C205.279 73.0425 206.034 73.0425 206.758 73.2083Z" fill="white"/>
<path d="M194.892 80.5416C194.533 80.6294 194.162 80.6712 193.791 80.6659C193.421 80.6715 193.052 80.6297 192.694 80.5416C193.053 80.4559 193.421 80.4141 193.791 80.4173C194.162 80.4144 194.532 80.4562 194.892 80.5416Z" fill="white"/>
<path d="M208.709 79.1395C208.35 79.2273 207.979 79.2691 207.608 79.2638C207.238 79.2716 206.869 79.2298 206.511 79.1395C207.234 78.9738 207.987 78.9738 208.709 79.1395Z" fill="white"/>
<path d="M193.24 53.8634C192.518 54.0292 191.764 54.0292 191.042 53.8634C191.764 53.6976 192.518 53.6976 193.24 53.8634Z" fill="white"/>
<path d="M197.075 55.2157C197.393 55.3963 197.686 55.6152 197.945 55.867C198.211 56.1117 198.44 56.3893 198.627 56.6923C197.983 56.323 197.443 55.8112 197.054 55.2008L197.075 55.2157Z" fill="white"/>
<path d="M208.536 66.8445C208.854 67.0263 209.147 67.2451 209.407 67.4958C209.672 67.7407 209.902 68.0183 210.089 68.3211C209.445 67.9517 208.905 67.44 208.515 66.8296L208.536 66.8445Z" fill="white"/>
<path d="M190.203 68.1123C190.522 68.2916 190.815 68.5106 191.074 68.7636C191.339 69.0095 191.57 69.2869 191.761 69.5889C191.118 69.2177 190.579 68.7063 190.187 68.0974L190.203 68.1123Z" fill="white"/>
<path d="M200.72 76.4896C201.363 76.8608 201.902 77.3722 202.294 77.9811C201.651 77.6099 201.112 77.0986 200.72 76.4896Z" fill="white"/>
<path d="M187.171 58.1043C187.817 58.4713 188.357 58.9836 188.744 59.5958C188.425 59.4186 188.132 59.2012 187.874 58.9495C187.601 58.6986 187.364 58.4144 187.171 58.1043Z" fill="white"/>
<path d="M186.221 66.1236C186.413 65.8225 186.644 65.5452 186.908 65.2983C187.171 65.04 187.47 64.816 187.795 64.6321C187.405 65.2425 186.865 65.7543 186.221 66.1236Z" fill="white"/>
<path d="M211.128 74.9932C211.517 74.3828 212.057 73.871 212.701 73.5016C212.516 73.8055 212.286 74.0833 212.019 74.327C211.754 74.5854 211.455 74.8094 211.128 74.9932Z" fill="white"/>
<path d="M187.596 78.5528C187.985 77.9425 188.525 77.4307 189.169 77.0613C188.982 77.3641 188.753 77.6417 188.487 77.8866C188.222 78.1451 187.923 78.3691 187.596 78.5528Z" fill="white"/>
<path d="M201.643 61.4154C201.834 61.1134 202.065 60.836 202.331 60.5901C202.589 60.3372 202.882 60.1181 203.201 59.9388C203.012 60.2418 202.781 60.5194 202.514 60.7641C202.255 61.016 201.962 61.2349 201.643 61.4154Z" fill="white"/>
<path d="M198.16 83.7384C198.351 83.4363 198.582 83.1589 198.848 82.9131C199.106 82.6601 199.399 82.4411 199.718 82.2618C199.529 82.5647 199.298 82.8423 199.031 83.0871C198.772 83.3389 198.479 83.5578 198.16 83.7384Z" fill="white"/>
<path d="M198.171 70.2999C198.361 69.9978 198.592 69.7204 198.858 69.4746C199.116 69.2229 199.409 69.0054 199.729 68.8282C199.339 69.4386 198.799 69.9504 198.155 70.3198L198.171 70.2999Z" fill="white"/>
<path d="M193.995 52.7001C193.922 53.1972 191.834 56.4239 189.557 56.5084C188.813 56.5084 188.482 52.705 188.482 52.705L188.388 52.4266L187.092 48.5437L191.729 45.158L192.406 44.7056C192.406 44.7056 192.684 45.7894 193.02 47.1417L193.067 47.3356C193.067 47.4102 193.109 47.4847 193.125 47.5544L193.282 48.1708C193.319 48.325 193.355 48.4791 193.387 48.668L193.497 49.1652C193.749 50.3312 193.915 51.5123 193.995 52.7001Z" fill="#EB9481"/>
<path d="M193.041 47.1566C192.72 48.3037 192.14 49.3709 191.34 50.2837C190.54 51.1965 189.54 51.9328 188.409 52.4415L187.113 48.5586L191.75 45.1729L192.427 44.7205C192.427 44.7205 192.684 45.8043 193.041 47.1566Z" fill="#263238"/>
<path d="M181.343 42.692C181.306 49.8413 185.823 50.6467 187.449 50.6766C188.923 50.6766 193.953 50.5224 194.793 43.4129C195.632 36.3034 192.112 34.0313 188.739 33.8474C185.366 33.6634 181.379 35.5427 181.343 42.692Z" fill="#EB9481"/>
<path d="M194.357 43.9151C193.124 44.0344 192.783 41.5833 192.783 41.5833C192.783 41.5833 190.271 41.648 189.353 38.2424C189.451 39.2667 189.863 40.2415 190.538 41.0464C190.538 41.0464 186.095 40.7083 184.139 37.2331C184.139 37.2331 184.931 39.008 185.644 39.6295C184.508 39.3365 183.511 38.686 182.817 37.785C182.817 37.785 182.093 39.8333 181.511 40.405C181.511 40.405 180.65 36.8055 182.229 34.9362C185.555 30.9886 191.016 34.439 191.016 34.439C191.016 34.439 194.069 34.8765 195.16 37.0442C196.838 40.3504 194.357 43.9151 194.357 43.9151Z" fill="#263238"/>
<path d="M193.565 43.9548C193.565 43.9548 195.013 41.6082 196.13 42.0755C197.248 42.5429 196.288 45.869 195.081 46.4059C194.932 46.4862 194.768 46.5371 194.597 46.5554C194.427 46.5738 194.255 46.5594 194.091 46.5129C193.926 46.4665 193.774 46.389 193.642 46.2851C193.51 46.1813 193.402 46.0533 193.324 45.9087L193.565 43.9548Z" fill="#EB9481"/>
<path d="M195.831 43.0251C195.831 43.0251 195.857 43.0251 195.831 43.055C195.446 43.2765 195.114 43.5718 194.857 43.922C194.6 44.2721 194.422 44.6694 194.336 45.0884C194.379 44.999 194.443 44.9198 194.522 44.8564C194.602 44.7931 194.695 44.7472 194.795 44.722C194.895 44.6968 195 44.693 195.102 44.7107C195.204 44.7285 195.301 44.7675 195.385 44.8249C195.412 44.8249 195.385 44.8746 195.385 44.8696C195.228 44.8351 195.062 44.8481 194.913 44.9069C194.763 44.9658 194.637 45.0675 194.551 45.1978C194.405 45.4147 194.286 45.6465 194.195 45.8888C194.158 45.9684 194.016 45.9386 194.037 45.8491C193.896 44.7702 194.64 43.224 195.831 43.0251Z" fill="#263238"/>
<path d="M182.287 41.2651C182.465 41.2353 182.623 41.1856 182.812 41.1408C182.997 41.1211 183.17 41.0443 183.305 40.9221C183.341 40.8782 183.361 40.8239 183.361 40.7679C183.361 40.712 183.341 40.6577 183.305 40.6138C183.216 40.5384 183.107 40.4871 182.99 40.4652C182.872 40.4433 182.751 40.4517 182.638 40.4895C182.397 40.529 182.181 40.6554 182.035 40.8425C182.006 40.8845 181.99 40.9331 181.989 40.9831C181.987 41.0332 182 41.0827 182.026 41.1263C182.052 41.1699 182.09 41.2059 182.136 41.2304C182.182 41.2548 182.234 41.2669 182.287 41.2651Z" fill="#263238"/>
<path d="M187.207 41.822C187.029 41.822 186.866 41.7673 186.683 41.7374C186.491 41.734 186.306 41.6692 186.158 41.5535C186.12 41.5104 186.099 41.4558 186.099 41.3994C186.099 41.3429 186.12 41.2883 186.158 41.2452C186.24 41.163 186.343 41.1033 186.458 41.0727C186.573 41.042 186.694 41.0415 186.809 41.0712C187.053 41.0963 187.279 41.206 187.444 41.3795C187.478 41.4204 187.498 41.4697 187.504 41.5215C187.509 41.5733 187.499 41.6256 187.474 41.672C187.45 41.7185 187.411 41.7573 187.364 41.7839C187.317 41.8105 187.262 41.8237 187.207 41.822Z" fill="#263238"/>
<path d="M186.221 43.2836C186.221 43.2836 186.258 43.2836 186.258 43.3234C186.258 43.8206 186.326 44.3774 186.783 44.5315V44.5614C186.221 44.4918 186.111 43.751 186.221 43.2836Z" fill="#263238"/>
<path d="M186.657 42.7567C187.485 42.6871 187.58 44.2482 186.809 44.3327C186.038 44.4172 185.959 42.8213 186.657 42.7567Z" fill="#263238"/>
<path d="M186.987 42.8312C187.139 42.9108 187.291 43.0599 187.47 43.0699C187.648 43.0798 187.816 42.9058 187.942 42.7368H187.968C187.968 43.0351 187.884 43.3532 187.548 43.4179C187.213 43.4825 187.024 43.219 186.898 42.9207C186.882 42.8809 186.929 42.7964 186.987 42.8312Z" fill="#263238"/>
<path d="M183.331 43.3035C183.331 43.3035 183.289 43.3284 183.294 43.3483C183.341 43.8454 183.294 44.4072 182.854 44.5962C182.854 44.5962 182.854 44.626 182.854 44.5962C183.425 44.5116 183.457 43.751 183.331 43.3035Z" fill="#263238"/>
<path d="M182.833 42.8213C181.999 42.8213 182.04 44.3923 182.833 44.4023C183.625 44.4122 183.535 42.8312 182.833 42.8213Z" fill="#263238"/>
<path d="M182.492 42.9307C182.36 43.0202 182.235 43.1743 182.077 43.1892C181.92 43.2041 181.752 43.0351 181.631 42.876H181.605C181.605 43.1793 181.72 43.4925 182.03 43.5422C182.339 43.5919 182.507 43.3284 182.555 43.045C182.591 42.9804 182.549 42.8959 182.492 42.9307Z" fill="#263238"/>
<path d="M186.861 47.2809C186.751 47.4052 186.646 47.5742 186.457 47.609C186.265 47.6213 186.072 47.596 185.891 47.5344C185.891 47.5344 185.859 47.5344 185.891 47.5643C185.974 47.6525 186.081 47.718 186.2 47.7539C186.319 47.7897 186.446 47.7946 186.567 47.7681C186.674 47.7298 186.765 47.6617 186.83 47.5729C186.895 47.4841 186.929 47.3788 186.929 47.2709C186.919 47.266 186.877 47.261 186.861 47.2809Z" fill="#263238"/>
<path d="M184.196 45.4712C184.196 45.4712 184.123 46.207 184.139 46.555C184.845 46.5287 185.551 46.5973 186.237 46.7589C186.4 46.8036 186.389 46.6743 186.206 46.5799C185.665 46.3014 185.05 46.1819 184.438 46.2368C184.411 46.1424 184.574 45.1033 184.516 45.1033C184.235 45.1368 183.959 45.2071 183.698 45.3121C183.803 43.7758 184.17 42.2694 184.249 40.7332C184.249 40.7213 184.244 40.7099 184.235 40.7015C184.226 40.6931 184.214 40.6884 184.202 40.6884C184.189 40.6884 184.177 40.6931 184.168 40.7015C184.159 40.7099 184.154 40.7213 184.154 40.7332C183.711 42.3392 183.437 43.9829 183.336 45.6402C183.315 45.8242 184.055 45.5358 184.196 45.4712Z" fill="#263238"/>
<path d="M184.978 46.5501C185.241 46.8775 185.609 47.1148 186.027 47.2262C186.662 47.2859 186.704 46.7291 185.996 46.4755C185.655 46.4141 185.304 46.4398 184.978 46.5501Z" fill="#263238"/>
<path d="M186.038 47.2312C185.798 47.1955 185.574 47.0954 185.392 46.9428C185.508 46.7489 185.802 46.5302 186.494 46.8434C186.604 47.0671 186.442 47.266 186.038 47.2312Z" fill="#FF99BA"/>
<path d="M192.888 51.8549C193.812 51.8549 195.364 52.0736 197.463 53.59C197.463 53.59 193.088 56.921 189.017 56.926C187.564 56.926 187.129 55.0019 187.129 55.0019C187.129 55.0019 189.085 51.8847 192.888 51.8549Z" fill="#EB9481"/>
<path d="M262 195H244.863C232.409 195 224.793 186.841 223.424 172.031C222.747 164.732 222.332 155.888 221.897 146.531C220.554 117.78 218.713 78.4186 206.905 78.4186H193.334V75.4356H206.905C221.719 75.4356 223.408 111.515 225.039 146.407C225.475 155.734 225.889 164.543 226.56 171.762C227.415 181 231.282 192.012 244.863 192.012H262V195Z" fill="#1A79E8"/>
<path opacity="0.2" d="M203.301 75.4257L202.63 78.4087H193.334V75.4257H203.301Z" fill="black"/>
<path d="M167.756 59.0688H162.27V95.4069H167.756V59.0688Z" fill="#1A79E8"/>
<path d="M162.275 61.7535H141.413V92.3493H162.275V61.7535Z" fill="#1A79E8"/>
<path opacity="0.2" d="M162.27 61.7535V92.3493H157.087L154.763 61.7535H162.27Z" fill="black"/>
<path d="M125.403 67.2422H141.408V71.8162H125.403C124.855 71.8162 124.329 71.6098 123.942 71.2425C123.554 70.8751 123.336 70.3769 123.336 69.8574V69.2061C123.335 68.9484 123.388 68.6932 123.492 68.4549C123.596 68.2167 123.748 68.0002 123.94 67.8177C124.132 67.6353 124.36 67.4906 124.611 67.3918C124.862 67.2931 125.131 67.2422 125.403 67.2422Z" fill="#DBDBDB"/>
<path d="M141.408 67.2472H135.789V71.8162H141.408V67.2472Z" fill="#A6A6A6"/>
<path d="M125.403 82.2817H141.408V86.8556H125.403C124.855 86.8556 124.329 86.6492 123.942 86.2819C123.554 85.9145 123.336 85.4163 123.336 84.8968V84.2455C123.335 83.9878 123.388 83.7326 123.492 83.4944C123.596 83.2561 123.748 83.0396 123.94 82.8572C124.132 82.6747 124.36 82.53 124.611 82.4313C124.862 82.3325 125.131 82.2817 125.403 82.2817Z" fill="#DBDBDB"/>
<path d="M141.408 82.2866H135.789V86.8556H141.408V82.2866Z" fill="#A6A6A6"/>
<path d="M200.18 74.1331H183.882V80.2333H200.18V74.1331Z" fill="#FFC727"/>
<path d="M200.18 74.1331H183.882V80.2333H200.18V74.1331Z" fill="#1A79E8"/>
<path opacity="0.2" d="M189.605 74.1331L189.07 80.2333H183.882V74.1331H189.605Z" fill="black"/>
<path d="M167.757 62.902H180.656C181.511 62.902 182.332 63.2241 182.937 63.7975C183.542 64.3709 183.882 65.1486 183.882 65.9596V88.1383C183.882 88.9493 183.542 89.727 182.937 90.3004C182.332 90.8738 181.511 91.1959 180.656 91.1959H167.757V62.902Z" fill="#1A79E8"/>
<path opacity="0.2" d="M174.618 62.9069L172.294 91.1959H167.762V62.9069H174.618Z" fill="black"/>
<g opacity="0.2">
<path opacity="0.2" d="M173.417 68.6244H172.388V85.4784H173.417V68.6244Z" fill="black"/>
<path opacity="0.2" d="M176.333 68.6244H175.305V85.4784H176.333V68.6244Z" fill="black"/>
<path opacity="0.2" d="M179.25 68.6244H178.221V85.4784H179.25V68.6244Z" fill="black"/>
</g>
<path d="M198.669 57.0652C200.474 61.8579 197.888 79.4378 194.829 83.1616C190.287 88.6753 181.311 93.7514 177.881 95.3373C176.38 96.0284 169.661 85.8464 171.124 84.8968C174.272 82.8534 184.296 77.9762 185.146 77.0067C185.996 76.0372 190.57 66.7302 192.401 61.49C194.861 54.46 197.762 54.634 198.669 57.0652Z" fill="#EB9481"/>
<path d="M177.87 95.3672C173.107 97.9425 163.665 97.5647 162.354 97.1918C161.252 96.8786 160.685 96.6946 160.685 96.6946C158.697 96.1676 158.162 95.1236 158.162 95.1236C158.162 95.1236 155.676 95.1534 155.403 93.7315C155.099 92.1356 158.65 92.4041 160.701 91.4197C165.422 89.1675 171.413 84.7178 172.698 83.9373L177.87 95.3672Z" fill="#EB9481"/>
<path d="M167.379 92.3493C166.011 93.0229 164.597 93.6076 163.146 94.0993C161.525 94.5472 159.872 94.8796 158.199 95.0937C158.146 95.0937 158.152 95.1732 158.199 95.1683C161.482 95.0875 164.679 94.1556 167.442 92.4736C167.505 92.4189 167.447 92.3145 167.379 92.3493Z" fill="#263238"/>
<path d="M169.225 94.8352C167.83 95.387 165.375 96.3267 160.68 96.6548C160.68 96.6548 160.68 96.6797 160.68 96.6847C163.659 96.8767 166.636 96.2794 169.278 94.9595C169.362 94.9296 169.32 94.8004 169.225 94.8352Z" fill="#263238"/>
<path d="M166.183 88.377C166.671 87.85 166.382 87.6063 165.092 87.8251C163.801 88.0438 158.897 89.9679 158.335 88.2875C157.774 86.607 164.74 83.9969 166.917 83.7831C168.884 83.6867 170.856 83.7416 172.813 83.9472C171.565 84.7128 168.606 86.8457 166.183 88.377Z" fill="#EB9481"/>
<path d="M193.607 58.2684C196.781 51.9394 199.676 53.6198 199.954 59.8742C200.048 64.2227 199.841 68.5723 199.335 72.8951L187.832 69.7679C187.832 69.7679 191.577 62.3203 193.607 58.2684Z" fill="#072422"/>
<path d="M196.471 54.5844C197.115 54.9537 197.655 55.4655 198.045 56.0759C197.726 55.8983 197.433 55.6809 197.174 55.4295C196.903 55.1774 196.667 54.8934 196.471 54.5844Z" fill="white"/>
<path d="M192.044 61.5447C192.219 62.2292 192.219 62.9433 192.044 63.6278C191.952 63.2885 191.907 62.9391 191.913 62.5887C191.91 62.2369 191.954 61.886 192.044 61.5447Z" fill="white"/>
<path d="M198.952 63.9361C198.593 64.0239 198.222 64.0657 197.851 64.0604C197.479 64.0682 197.108 64.0264 196.749 63.9361C197.473 63.7703 198.228 63.7703 198.952 63.9361Z" fill="white"/>
<path d="M190.203 68.1123C190.522 68.2916 190.815 68.5106 191.074 68.7636C191.339 69.0095 191.57 69.2869 191.761 69.5889C191.118 69.2177 190.579 68.7063 190.187 68.0974L190.203 68.1123Z" fill="white"/>
<path d="M198.171 70.2999C198.361 69.9978 198.592 69.7204 198.858 69.4746C199.116 69.2229 199.409 69.0054 199.729 68.8282C199.339 69.4386 198.799 69.9504 198.155 70.3198L198.171 70.2999Z" fill="white"/>
<path d="M192.516 60.1973C192.086 61.0276 191.635 61.8479 191.184 62.6832C191.262 62.2954 191.325 61.9026 191.373 61.5099C191.373 61.5099 191.346 61.485 191.341 61.5099C191.278 61.8181 191.199 62.1264 191.136 62.4346C191.11 62.5838 191.079 62.7329 191.047 62.8821C191.047 62.9119 191.047 62.9467 191.047 62.9765C190.696 63.6179 190.35 64.2542 189.998 64.9055C189.599 65.6762 189.227 66.4567 188.849 67.2422C188.472 68.0278 188.12 68.9724 187.695 69.7679C188.058 69.9064 188.434 70.0113 188.818 70.0811C188.918 70.1159 188.97 70.0214 188.865 70.0065C188.76 69.9916 187.9 69.6684 187.889 69.6634C188.267 68.8779 188.734 68.1272 189.133 67.3516C189.531 66.576 189.94 65.8104 190.323 65.0298C191.1 63.4488 191.782 61.8231 192.553 60.2371C192.553 60.1924 192.516 60.1576 192.516 60.1973Z" fill="#263238"/>
<path d="M200.432 63.9659C200.327 64.2891 200.206 64.6122 200.117 64.9603C200.086 65.0945 200.049 65.2287 200.012 65.3679C200.054 64.2394 200.091 63.1058 200.128 61.9772C199.965 63.8217 199.797 65.6662 199.671 67.5157C199.489 69.2869 199.403 71.0658 199.414 72.8454C199.069 72.7679 198.718 72.7164 198.365 72.6913C198.746 72.8471 199.146 72.9557 199.556 73.0144C199.844 71.2246 199.865 69.2508 199.96 67.4461C199.986 66.9489 200.002 66.4518 200.023 65.9198C200.086 65.6066 200.18 65.2983 200.269 64.9901C200.358 64.6818 200.427 64.3239 200.5 63.9957C200.474 63.956 200.437 63.946 200.432 63.9659Z" fill="#263238"/>
<path d="M198.868 71.2395C197.248 70.6926 190.533 68.6841 189.054 68.341C188.949 68.3162 188.907 68.3709 189.012 68.4106C192.232 69.5393 195.513 70.5035 198.842 71.2992C198.884 71.3091 198.91 71.2544 198.868 71.2395Z" fill="#263238"/>
<path d="M142.472 69.5292C144.046 69.9866 143.726 67.9482 143.726 67.9482C143.726 67.9482 144.959 70.7722 146.79 70.6479C148.62 70.5236 148.054 68.0725 148.022 67.8985C148.085 68.0427 149.292 70.6081 151.117 70.3048C152.943 70.0016 152.067 67.6102 152.004 67.456C152.114 67.5754 153.577 69.1613 154.92 68.6294C157.207 67.7146 153.556 63.5582 153.824 61.669L157.04 61.7585C157.145 61.7488 157.25 61.7339 157.354 61.7137L157.475 60.1626C156.448 59.7633 155.456 59.2896 154.506 58.7456C153.294 58.0993 152.124 57.5126 151.254 57.4977C150.863 57.476 150.476 57.5747 150.15 57.779C149.823 57.9834 149.576 58.2824 149.444 58.6313C149.444 58.6313 148.5 57.2193 147.052 57.4182C146.312 57.5226 145.83 58.7407 145.83 58.7407C145.596 58.4301 145.276 58.1864 144.906 58.0365C144.536 57.8865 144.13 57.836 143.731 57.8905C142.714 58.0894 142.388 59.2826 142.388 59.2826C142.388 59.2826 141.098 58.5666 140.128 59.0887C138.181 60.1576 139.073 68.5399 142.472 69.5292Z" fill="#EB9481"/>
<path d="M154.223 61.5149L157.024 61.7585C157.129 61.7488 157.235 61.7339 157.339 61.7138C160.874 61.1072 163.077 57.2691 160.486 56.9956C158.54 56.7818 156.431 59.2329 154.464 58.7407L154.223 61.5149Z" fill="#EB9481"/>
<path d="M142.32 59.4615H142.273C141.827 62.4024 142.336 65.4022 143.731 68.0626C143.779 68.1471 143.941 68.1123 143.91 68.0079C142.944 65.2475 142.409 62.3684 142.32 59.4615Z" fill="#263238"/>
<path d="M145.83 58.7009C145.83 58.6661 145.772 58.6661 145.767 58.7009C145.308 61.9504 146.091 65.2484 147.975 67.998C148.043 68.0924 148.206 68.1074 148.132 67.998C146.921 66.0739 145.83 61.4304 145.83 58.7009Z" fill="#263238"/>
<path d="M152.214 67.6152C150.404 64.9106 149.685 61.9276 149.418 58.7656C149.418 58.7258 149.355 58.7357 149.344 58.7656C149.035 60.3466 149.428 62.3452 149.869 63.8765C150.254 65.3044 151.026 66.6121 152.109 67.6699C152.161 67.7047 152.256 67.6599 152.214 67.6152Z" fill="#263238"/>
<path opacity="0.2" d="M77.3424 74.1331L76.8073 80.2333H71.6194V74.1331H77.3424Z" fill="black"/>
<path d="M107.903 180.94C106.817 181.283 75.7264 181.199 74.5409 180.488C74.095 180.219 73.8432 175.924 73.6963 170.733C73.6596 169.61 73.6386 168.456 73.6177 167.253C73.6177 165.861 73.5757 164.449 73.5652 163.077C73.5285 156.927 73.6177 151.508 73.6177 151.508H93.8607V163.077V167.253L93.7558 170.733C93.7558 170.733 105.642 175.814 106.87 176.729C108.097 177.644 108.989 180.602 107.903 180.94Z" fill="#AD6359"/>
<path d="M107.903 180.94C106.817 181.283 75.7264 181.199 74.5409 180.488C74.095 180.219 73.8432 175.924 73.6963 170.733C73.6596 169.61 73.6386 168.456 73.6176 167.253C73.6176 165.861 73.5757 164.449 73.5652 163.077H93.8502V167.253L93.7453 170.733C93.7453 170.733 105.632 175.814 106.859 176.729C108.087 177.644 108.989 180.602 107.903 180.94Z" fill="white"/>
<path d="M107.998 180.97C107.29 181.194 94.0495 181.238 84.3922 181.049C82.1576 181.005 80.117 180.945 78.4751 180.875C76.2037 180.776 74.6825 180.662 74.4359 180.512C73.8851 180.179 73.6281 173.875 73.5022 167.228H93.8396L93.7347 170.708C93.7347 170.708 105.69 175.814 106.907 176.734C108.124 177.654 109.11 180.642 107.998 180.97Z" fill="#1A79E8"/>
<path d="M107.536 179.801C102.291 179.662 81.1505 179.583 75.9573 179.826C75.9153 179.826 75.9153 179.856 75.9573 179.856C81.1505 180.1 102.296 180.02 107.536 179.881C107.662 179.881 107.667 179.801 107.536 179.801Z" fill="#263238"/>
<path d="M94.4954 169.615C92.4338 169.247 89.9107 169.54 88.3317 170.927C88.2688 170.982 88.3317 171.061 88.4209 171.041C90.3939 170.445 92.4286 170.05 94.4901 169.863C94.5249 169.864 94.5586 169.851 94.5836 169.828C94.6087 169.806 94.6232 169.774 94.6239 169.741C94.6246 169.708 94.6115 169.676 94.5874 169.653C94.5632 169.629 94.5302 169.615 94.4954 169.615Z" fill="#263238"/>
<path d="M95.9957 170.47C93.9342 170.102 91.411 170.395 89.8268 171.782C89.7691 171.837 89.8268 171.916 89.916 171.897C91.8919 171.297 93.9303 170.902 95.9957 170.718C96.0305 170.718 96.0638 170.705 96.0884 170.682C96.113 170.658 96.1268 170.627 96.1268 170.594C96.1268 170.561 96.113 170.529 96.0884 170.506C96.0638 170.483 96.0305 170.47 95.9957 170.47Z" fill="#263238"/>
<path d="M97.4697 171.325C95.4081 170.952 92.885 171.245 91.306 172.637C91.2431 172.687 91.306 172.772 91.39 172.752C93.3626 172.154 95.3974 171.759 97.4592 171.573C97.494 171.575 97.5279 171.563 97.5535 171.54C97.579 171.518 97.5942 171.487 97.5956 171.454C97.597 171.421 97.5845 171.389 97.5609 171.365C97.5373 171.34 97.5045 171.326 97.4697 171.325Z" fill="#263238"/>
<path d="M98.9542 172.18C96.8927 171.807 94.3695 172.1 92.7906 173.487C92.7276 173.542 92.7906 173.627 92.8798 173.607C94.8509 173.009 96.8838 172.612 98.9437 172.423C98.9737 172.419 99.0011 172.405 99.0213 172.383C99.0415 172.362 99.0532 172.334 99.0545 172.306C99.0557 172.277 99.0464 172.249 99.0281 172.226C99.0098 172.203 98.9837 172.187 98.9542 172.18Z" fill="#263238"/>
<path d="M98.3195 165.105C97.5116 164.046 96.0009 164.518 95.1406 165.2C93.6819 166.4 92.5819 167.943 91.9512 169.674C91.9478 169.682 91.9463 169.69 91.947 169.698C91.9477 169.706 91.9505 169.714 91.9552 169.721C91.9598 169.728 91.9662 169.733 91.9738 169.737C91.9813 169.741 91.9898 169.744 91.9984 169.744C91.9984 169.893 92.1453 170.052 92.3184 169.992C94.0233 169.396 95.9274 168.963 97.3857 167.894C98.2408 167.263 99.0853 166.109 98.3195 165.105ZM94.7104 168.585C93.8816 168.899 93.0371 169.167 92.2188 169.505C92.8138 168.618 93.4564 167.76 94.1439 166.935C94.4804 166.539 94.8468 166.167 95.2403 165.821C95.854 165.294 98.288 164.17 97.9155 166.318C97.711 167.497 95.7019 168.212 94.7104 168.585Z" fill="#263238"/>
<path d="M86.7108 169.147C88.4051 169.838 90.3828 169.808 92.1663 169.977C92.3551 169.977 92.4495 169.808 92.4181 169.664C92.4246 169.66 92.4299 169.654 92.4335 169.647C92.4372 169.64 92.4391 169.632 92.4391 169.624C92.4391 169.617 92.4372 169.609 92.4335 169.602C92.4299 169.595 92.4246 169.589 92.4181 169.585C91.3515 168.06 89.8809 166.827 88.1533 166.01C87.1357 165.553 85.5305 165.453 85.0479 166.671C84.5653 167.889 85.7194 168.74 86.7108 169.147ZM85.7823 167.75C84.8591 165.761 87.5081 166.259 88.2425 166.636C88.7144 166.881 89.1684 167.155 89.6011 167.457C90.4842 168.092 91.3316 168.771 92.14 169.49C91.2588 169.356 90.3723 169.291 89.4857 169.187C88.4261 169.063 86.2911 168.844 85.7823 167.75Z" fill="#263238"/>
<path d="M96.7353 165.886L71.6506 166.313C71.6506 166.313 68.2356 145.278 65.9905 132.188C65.1407 127.271 64.4692 123.472 64.1965 122.329C63.546 119.599 50.8358 76.2758 50.8358 76.2758H69.0697H75.3015C75.3015 76.2758 74.9029 83.5196 75.1389 84.2803C78.3912 94.7656 85.0375 113.365 87.1148 119.843C90.2989 129.761 96.7353 165.886 96.7353 165.886Z" fill="#AED3E6"/>
<path d="M94.4535 162.241C90.8549 162.217 78.087 162.082 73.2924 162.505C73.2856 162.508 73.2798 162.512 73.2757 162.518C73.2715 162.524 73.2693 162.53 73.2693 162.537C73.2693 162.544 73.2715 162.551 73.2757 162.557C73.2798 162.563 73.2856 162.567 73.2924 162.57C74.9448 162.793 90.8549 162.445 94.4587 162.336C94.4667 162.338 94.4751 162.338 94.4832 162.337C94.4913 162.335 94.4989 162.331 94.5053 162.327C94.5117 162.322 94.5168 162.315 94.5202 162.308C94.5235 162.301 94.5251 162.293 94.5246 162.285C94.5242 162.277 94.5218 162.27 94.5177 162.263C94.5135 162.256 94.5078 162.251 94.5008 162.246C94.4939 162.242 94.486 162.239 94.4777 162.238C94.4695 162.238 94.4612 162.239 94.4535 162.241Z" fill="#263238"/>
<path d="M72.0597 144.313C71.1924 138.874 70.2254 133.449 69.1588 128.036C68.6343 125.376 68.0625 122.721 67.3281 120.081C66.5937 117.441 65.66 114.831 64.7053 112.241C62.8273 107.09 61.0333 101.915 59.3494 96.7045C57.6656 91.4941 56.0971 86.2639 54.6283 80.9889C54.4395 80.3227 54.2559 79.6565 54.0513 79.0002C54.0513 78.9456 53.9516 78.9704 53.9621 79.0251C54.5339 81.68 55.2736 84.31 55.9817 86.9351C56.6899 89.5601 57.4505 92.1753 58.2426 94.7804C59.8548 100.017 61.5981 105.214 63.4725 110.372C64.401 112.937 65.3662 115.497 66.1898 118.098C67.0133 120.698 67.6533 123.338 68.2251 125.993C69.3844 131.377 70.3706 136.801 71.2833 142.23C72.1961 147.659 72.9777 153.168 73.7435 158.637C73.8432 159.333 73.9376 160.024 74.032 160.72C74.0583 160.914 74.3835 160.914 74.3625 160.72C73.7278 155.226 72.9147 149.762 72.0597 144.313Z" fill="#263238"/>
<path d="M69.0697 76.2509L65.9905 132.188C65.1407 127.271 64.4692 123.472 64.1965 122.329C63.546 119.599 50.8358 76.2758 50.8358 76.2758L69.0697 76.2509Z" fill="#263238"/>
<path d="M76.7913 185.633C75.7054 185.976 44.6144 185.892 43.4288 185.181C42.983 184.912 42.7312 180.617 42.5843 175.421C42.5476 174.298 42.5266 173.144 42.5056 171.966C42.5056 170.574 42.4636 169.162 42.4531 167.79C42.4164 161.635 42.5056 156.216 42.5056 156.216H62.7434V171.966L62.6385 175.421C62.6385 175.421 74.5251 180.503 75.7526 181.417C76.9801 182.332 77.8771 185.295 76.7913 185.633Z" fill="#AD6359"/>
<path d="M76.7913 185.633C75.7055 185.976 44.6144 185.892 43.4289 185.181C42.983 184.912 42.7312 180.617 42.5843 175.421C42.5476 174.298 42.5266 173.144 42.5056 171.966C42.5056 170.574 42.4637 169.162 42.4532 167.79H62.7382V171.966L62.6333 175.421C62.6333 175.421 74.5199 180.503 75.7474 181.417C76.9749 182.332 77.8772 185.295 76.7913 185.633Z" fill="white"/>
<path d="M76.8857 185.678C76.1775 185.897 62.9322 185.947 53.2802 185.753C51.0508 185.708 49.0102 185.653 47.3631 185.584C45.097 185.484 43.5757 185.365 43.3239 185.221C42.7994 184.883 42.5161 178.583 42.3954 171.931H62.7329L62.628 175.411C62.628 175.411 74.5828 180.522 75.7998 181.442C77.0168 182.362 77.9768 185.33 76.8857 185.678Z" fill="#1A79E8"/>
<path d="M76.4398 184.49C71.1942 184.356 50.0489 184.276 44.8609 184.515C44.819 184.515 44.819 184.545 44.8609 184.549C50.0489 184.793 71.1994 184.709 76.4398 184.574C76.55 184.569 76.55 184.495 76.4398 184.49Z" fill="#263238"/>
<path d="M63.3834 174.308C61.3218 173.935 58.7987 174.228 57.2197 175.62C57.1568 175.67 57.2197 175.755 57.3037 175.735C59.2762 175.137 61.3111 174.742 63.3729 174.556C63.4077 174.558 63.4416 174.546 63.4672 174.524C63.4927 174.501 63.5079 174.47 63.5093 174.437C63.5107 174.404 63.4982 174.372 63.4746 174.348C63.451 174.323 63.4182 174.309 63.3834 174.308Z" fill="#263238"/>
<path d="M64.8679 175.163C62.8063 174.79 60.2832 175.083 58.7042 176.47C58.6413 176.525 58.7042 176.61 58.7934 176.59C60.7662 175.992 62.8009 175.595 64.8626 175.406C64.8924 175.401 64.9194 175.387 64.9391 175.365C64.9587 175.343 64.9698 175.315 64.9704 175.287C64.971 175.258 64.9612 175.23 64.9425 175.207C64.9238 175.185 64.8974 175.169 64.8679 175.163Z" fill="#263238"/>
<path d="M66.3577 175.998C64.2962 175.625 61.773 175.919 60.1888 177.306C60.1311 177.36 60.1888 177.445 60.278 177.425C62.2503 176.825 64.2852 176.428 66.3472 176.242C66.3772 176.237 66.4046 176.223 66.4248 176.202C66.445 176.18 66.4567 176.153 66.458 176.124C66.4592 176.095 66.4499 176.067 66.4316 176.044C66.4133 176.021 66.3872 176.005 66.3577 175.998Z" fill="#263238"/>
<path d="M67.8422 176.868C65.7807 176.5 63.2575 176.794 61.6785 178.181C61.6156 178.235 61.6785 178.315 61.7625 178.295C63.7357 177.699 65.7703 177.305 67.8317 177.117C67.8665 177.118 67.9004 177.106 67.926 177.084C67.9516 177.062 67.9667 177.03 67.9681 176.997C67.9695 176.964 67.957 176.932 67.9334 176.908C67.9098 176.884 67.877 176.87 67.8422 176.868Z" fill="#263238"/>
<path d="M67.2075 169.798C66.3997 168.739 64.8889 169.212 64.0234 169.893C62.5656 171.094 61.4658 172.637 60.834 174.367C60.8316 174.375 60.8312 174.384 60.8326 174.392C60.8341 174.4 60.8375 174.408 60.8425 174.414C60.8476 174.421 60.8541 174.426 60.8617 174.43C60.8693 174.434 60.8778 174.437 60.8865 174.437C60.8865 174.586 61.0281 174.745 61.2064 174.681C62.9113 174.089 64.8102 173.657 66.2738 172.583C67.1445 171.956 67.9681 170.803 67.2075 169.798ZM63.5985 173.279C62.7644 173.587 61.9251 173.86 61.1068 174.198C61.731 173.328 62.3133 172.438 63.0267 171.628C63.3673 171.234 63.7335 170.86 64.123 170.509C64.742 169.982 67.1708 168.864 66.8036 171.007C66.62 172.19 64.5899 172.906 63.5985 173.279Z" fill="#263238"/>
<path d="M55.6041 173.835C57.3037 174.527 59.2761 174.497 61.0648 174.671C61.1053 174.672 61.1454 174.664 61.1818 174.647C61.2182 174.63 61.2499 174.606 61.2741 174.575C61.2982 174.544 61.3143 174.508 61.3208 174.47C61.3273 174.433 61.324 174.394 61.3114 174.357C61.3195 174.355 61.327 174.351 61.3331 174.345C61.3393 174.339 61.3441 174.332 61.3471 174.325C61.3501 174.317 61.3513 174.309 61.3506 174.301C61.3498 174.293 61.3472 174.285 61.3429 174.278C60.2763 172.753 58.8056 171.52 57.0781 170.703C56.0605 170.246 54.4553 170.146 53.9727 171.365C53.4901 172.583 54.6022 173.433 55.6041 173.835ZM54.6809 172.438C53.7576 170.45 56.4067 170.947 57.1411 171.325C57.613 171.569 58.0669 171.843 58.4997 172.145C59.3815 172.784 60.2289 173.464 61.0386 174.183C60.1521 174.044 59.2656 173.985 58.3791 173.88C57.3142 173.756 55.1792 173.537 54.6704 172.438H54.6809Z" fill="#263238"/>
<path d="M65.5709 170.296H41.0264C41.0264 170.296 46.3612 98.1712 45.5009 94.1242C44.0898 87.5069 45.0288 79.9051 48.3336 76.2261H70.1713C70.1713 76.2261 70.6067 82.038 68.3511 85.5033C68.3511 85.5033 66.3 86.7313 65.3086 87.2732L65.5709 170.296Z" fill="#AED3E6"/>
<path d="M63.2837 166.552C59.8845 166.467 60.8654 166.443 57.461 166.398C55.7981 166.373 44.8714 166.229 43.2977 166.462C43.261 166.462 43.261 166.522 43.2977 166.527C44.8714 166.781 55.7929 166.746 57.461 166.741C60.8602 166.741 59.8845 166.696 63.2837 166.646C63.2942 166.643 63.3033 166.637 63.3098 166.628C63.3163 166.62 63.3197 166.61 63.3197 166.599C63.3197 166.589 63.3163 166.578 63.3098 166.57C63.3033 166.562 63.2942 166.555 63.2837 166.552Z" fill="#263238"/>
<path d="M69.7149 84.5934C67.5678 85.5745 65.5128 86.7271 63.5722 88.0388C63.558 88.0491 63.5482 88.064 63.5447 88.0806C63.5413 88.0973 63.5443 88.1146 63.5533 88.1292C63.5624 88.1439 63.5767 88.1549 63.5937 88.1602C63.6107 88.1655 63.6292 88.1648 63.6456 88.1581C65.7439 87.0693 67.8422 86.0104 69.8565 84.8172C69.8878 84.7994 69.9104 84.7705 69.9192 84.7369C69.9281 84.7034 69.9225 84.6678 69.9037 84.6382C69.8849 84.6085 69.8545 84.5871 69.8191 84.5787C69.7837 84.5703 69.7462 84.5756 69.7149 84.5934Z" fill="#263238"/>
<path d="M66.9294 84.2952C66.7999 84.6948 66.6965 85.1015 66.6199 85.5132C66.5308 85.8376 66.5077 86.175 66.5517 86.5076C66.5517 86.5722 66.6619 86.5672 66.6934 86.5076C66.8588 86.1945 66.972 85.8591 67.0291 85.5132C67.134 85.1354 67.2494 84.7575 67.3386 84.3747C67.333 84.3313 67.3131 84.2906 67.2818 84.2585C67.2505 84.2264 67.2094 84.2043 67.1642 84.1955C67.119 84.1868 67.072 84.1916 67.0299 84.2095C66.9878 84.2274 66.9526 84.2574 66.9294 84.2952Z" fill="#263238"/>
<path d="M66.7353 82.3015C66.793 81.9535 66.8507 81.6104 66.9189 81.2674C66.9871 80.9243 67.0815 80.5514 67.1182 80.1935C67.1182 80.1338 67.2231 80.1537 67.2126 80.1935C67.1549 80.5365 67.1497 80.8945 67.1182 81.2425C67.0867 81.5905 67.0553 81.9435 67.0186 82.2965C66.9504 82.9478 66.8297 83.6041 66.6933 84.2454C67.0563 84.1893 67.4009 84.0549 67.7005 83.8527C67.9805 83.5812 68.1639 83.2335 68.2251 82.8583C68.33 82.4606 68.4244 82.0628 68.5345 81.6651C68.6831 81.2343 68.7902 80.7917 68.8545 80.3426C68.8545 80.2879 68.9595 80.3029 68.949 80.3426C68.8632 81.2861 68.6769 82.2189 68.3929 83.1268C68.3316 83.4874 68.1362 83.8154 67.8421 84.0515C67.4643 84.2452 67.048 84.362 66.6199 84.3946C66.5727 84.3946 66.4992 84.3946 66.5045 84.3399C66.5459 83.6572 66.6229 82.9769 66.7353 82.3015Z" fill="#263238"/>
<path d="M49.047 93.8607C48.8896 92.3394 48.6273 90.828 48.4542 89.3116C48.1261 86.2643 48.321 83.1867 49.0312 80.1985C49.028 80.1897 49.022 80.1821 49.014 80.1767C49.006 80.1713 48.9965 80.1685 48.9866 80.1685C48.9768 80.1685 48.9673 80.1713 48.9593 80.1767C48.9513 80.1821 48.9453 80.1897 48.9421 80.1985C48.3205 82.823 48.0317 85.5085 48.0818 88.198C48.2234 90.8777 48.727 93.5226 48.769 96.2123C48.8109 98.902 48.5906 101.681 48.407 104.371C48.2234 107.061 48.0346 109.84 47.851 112.569C47.1061 123.552 46.4189 134.534 45.7107 145.522C45.5149 148.584 45.326 151.65 45.1442 154.719C44.9554 157.842 44.7245 160.964 44.6196 164.086C44.6196 164.354 45.0288 164.335 45.055 164.086C45.5481 158.577 45.8314 153.044 46.2038 147.525C46.5763 142.007 46.9067 136.588 47.253 131.119C47.5992 125.65 47.9506 120.181 48.3021 114.712C48.4699 111.978 48.6448 109.245 48.8267 106.514C48.9945 103.794 49.2043 101.045 49.2463 98.3452C49.2692 96.848 49.2026 95.3508 49.047 93.8607Z" fill="#263238"/>
<path d="M56.779 80.0095C56.7743 80.0024 56.7678 79.9964 56.76 79.9923C56.7522 79.9882 56.7434 79.986 56.7345 79.986C56.7255 79.986 56.7167 79.9882 56.7089 79.9923C56.7011 79.9964 56.6946 80.0024 56.6899 80.0095C56.56 80.3699 56.491 80.7474 56.4853 81.1282C56.4173 81.5357 56.3174 81.9379 56.1863 82.3313C55.9455 83.1225 55.4938 83.8416 54.8749 84.4195C53.5005 85.6375 51.6593 86.09 49.8862 86.5026C49.818 86.5026 49.8443 86.602 49.8862 86.607C50.94 86.6477 51.9918 86.4906 52.9812 86.1446C53.8634 85.889 54.6774 85.4567 55.368 84.8769C56.0273 84.2822 56.4778 83.5099 56.6584 82.6644C56.7519 82.2241 56.8011 81.7763 56.8053 81.3271C56.8053 81.1083 56.8053 80.8945 56.8053 80.6758C56.8429 80.4542 56.8339 80.2278 56.779 80.0095Z" fill="#263238"/>
<path d="M67.0606 52.0985C67.5117 55.4742 74.499 68.0427 81.9373 73.611C84.6651 75.6544 99.1274 76.8625 102.747 76.594C106.98 76.2858 107.615 66.7351 105.244 65.9894C102.28 65.0597 88.5678 63.9112 85.8768 63.0064C82.6035 61.8828 76.6444 54.6688 70.9791 50.2042C68.0678 47.8924 66.7144 49.4933 67.0606 52.0985Z" fill="#AD6359"/>
<path d="M102.747 76.599C104.085 76.5692 110.206 75.9029 111.869 75.3561C113.532 74.8092 118.164 72.905 117.87 71.6571C117.576 70.4092 116.15 70.8616 116.15 70.8616C116.15 70.8616 117.98 69.7629 117.545 68.5349C117.11 67.3069 114.922 68.0825 114.922 68.0825C114.922 68.0825 116.716 66.8246 116.186 65.6264C115.656 64.4283 113.616 65.5568 113.616 65.5568C113.616 65.5568 115.316 64.478 114.445 63.6676C113.396 62.6732 110.5 65.01 108.622 65.4823C108.192 65.5916 99.7988 67.0782 99.7988 67.0782L102.747 76.599Z" fill="#AD6359"/>
<path d="M113.831 65.4623C111.696 67.1676 110.453 67.5604 107.735 67.9183C107.724 67.9183 107.714 67.9225 107.706 67.93C107.698 67.9375 107.693 67.9476 107.693 67.9581C107.693 67.9687 107.698 67.9788 107.706 67.9862C107.714 67.9937 107.724 67.9979 107.735 67.9979C110.426 67.8786 112.063 67.5952 113.92 65.5568C113.999 65.4573 113.915 65.3828 113.831 65.4623Z" fill="#263238"/>
<path d="M115.106 67.9432C112.729 69.5292 111.386 69.9667 108.564 70.5384C108.528 70.5384 108.538 70.613 108.564 70.608C111.376 70.265 113.002 69.9468 115.158 68.0675C115.268 67.983 115.216 67.8686 115.106 67.9432Z" fill="#263238"/>
<path d="M116.003 70.8865C113.584 72.2636 112.131 72.8056 109.32 73.0293C109.306 73.0293 109.292 73.0345 109.283 73.0438C109.273 73.0532 109.267 73.0658 109.267 73.079C109.267 73.0922 109.273 73.1048 109.283 73.1142C109.292 73.1235 109.306 73.1287 109.32 73.1287C111.771 73.2708 114.184 72.4921 116.034 70.9611C116.176 70.8566 116.155 70.802 116.003 70.8865Z" fill="#263238"/>
<path d="M97.8579 66.0341C99.2701 65.1689 100.748 64.4045 102.28 63.7471C103.759 63.2499 110.002 63.2499 110.07 64.5276C110.164 66.1782 106.56 66.8395 104.751 66.9489C104.751 66.9489 104.976 70.7622 102.495 71.7714C100.014 72.7807 97.8579 66.0341 97.8579 66.0341Z" fill="#AD6359"/>
<path d="M109.944 64.99C108.895 66.5512 106.497 66.5462 104.751 66.7749C104.724 66.7761 104.699 66.7837 104.676 66.7969C104.654 66.81 104.635 66.8284 104.622 66.8502C104.609 66.872 104.602 66.8966 104.601 66.9216C104.601 66.9467 104.607 66.9715 104.62 66.9936C104.62 68.5995 104.095 70.8567 102.6 71.8112C102.591 71.8158 102.584 71.8237 102.581 71.833C102.578 71.8423 102.579 71.8524 102.584 71.8609C102.589 71.8695 102.597 71.8759 102.607 71.8787C102.617 71.8815 102.628 71.8805 102.637 71.8759C104.373 71.0605 105.076 68.8928 104.976 67.1179C106.77 66.9141 109.173 66.8196 109.96 64.995C109.965 64.9851 109.949 64.9801 109.944 64.99Z" fill="#263238"/>
<path d="M90.2516 76.415C90.2516 76.415 82.8448 74.4959 81.9425 73.8247C80.958 73.0914 80.0192 72.3045 79.1308 71.4682C72.3954 65.1889 68.3195 56.6376 67.2179 53.6297C66.0534 50.4528 67.1235 47.4101 70.2447 49.4584C70.4958 49.6269 70.7374 49.8078 70.9686 50.0004C74.6405 53.0331 84.4604 62.2556 85.6564 62.7329C86.8524 63.2102 92.6174 63.9161 92.6174 63.9161L90.2516 76.415Z" fill="#18FE2F"/>
<path d="M79.1308 71.4681C72.3954 65.1889 68.3195 56.6376 67.2179 53.6297C66.0534 50.4528 67.1235 47.4101 70.2447 49.4584L79.1308 71.4681Z" fill="#263238"/>
<path d="M90.2255 63.7173C89.88 64.675 89.5945 65.6511 89.3704 66.6407C89.1134 67.635 88.8459 68.6294 88.6308 69.6237C88.1633 71.5754 87.813 73.5507 87.5817 75.54C87.5817 75.5519 87.5866 75.5633 87.5955 75.5717C87.6043 75.5801 87.6164 75.5848 87.6289 75.5848C87.6414 75.5848 87.6534 75.5801 87.6623 75.5717C87.6711 75.5633 87.6761 75.5519 87.6761 75.54C88.2164 73.5812 88.6518 71.5925 89.0662 69.6038C89.2813 68.6095 89.4754 67.6499 89.6904 66.6705C89.9055 65.6911 90.1625 64.6818 90.2779 63.7173C90.2751 63.7132 90.2712 63.7099 90.2666 63.7075C90.262 63.7052 90.2569 63.704 90.2517 63.704C90.2465 63.704 90.2414 63.7052 90.2368 63.7075C90.2323 63.7099 90.2284 63.7132 90.2255 63.7173Z" fill="#263238"/>
<path d="M74.2471 58.9792C74.4202 59.72 74.5566 60.4707 74.6615 61.2463C74.6587 61.2182 74.6587 61.1899 74.6615 61.1618C74.7035 60.7342 74.735 60.3017 74.8137 59.8841H74.8556C74.8827 60.3155 74.8651 60.7485 74.8032 61.1767C74.7769 61.3756 74.7507 61.5794 74.7192 61.7783C74.756 62.1213 74.7874 62.4644 74.8084 62.8025C74.8504 63.4488 74.9815 66.2081 74.9658 66.6854C74.9658 66.7848 74.8451 66.7898 74.8189 66.6854C74.7192 66.1882 74.457 63.3593 74.3835 62.708C74.2462 61.4661 74.1797 60.218 74.1842 58.9693C74.1842 58.9693 74.2366 58.9544 74.2471 58.9792Z" fill="#263238"/>
<path d="M75.0812 79.6317C74.032 80.5266 72.7521 81.8341 65.3872 82.3214C64.9256 82.3214 64.4534 82.3562 63.9813 82.3214C56.8892 82.1324 46.9382 76.8525 46.3454 76.4349C46.3454 76.4349 53.9883 56.8364 64.0967 49.3142C65.5393 48.2354 68.6342 48.7723 70.5699 49.876C71.2623 50.2738 73.5494 53.9031 74.011 57.1994C74.4727 60.4956 76.125 78.7368 75.0812 79.6317Z" fill="#18FE2F"/>
<path d="M69.3371 54.7931C67.5536 54.9273 64.999 52.004 64.1597 49.8214C64.3956 48.6927 64.6915 47.5759 65.0462 46.4754C65.3295 45.4065 65.618 44.2133 65.7963 43.1046C65.833 42.8759 66.5832 43.4129 66.5832 43.4129L68.0415 43.9796L72.8675 45.8589C72.2221 47.1863 71.7517 48.5839 71.4669 50.0203C71.4514 50.174 71.4514 50.3288 71.4669 50.4826C71.4692 50.5074 71.4692 50.5324 71.4669 50.5572C71.4407 51.4471 71.0577 54.6588 69.3371 54.7931Z" fill="#AD6359"/>
<path d="M71.4355 50.4826C71.4378 50.5074 71.4378 50.5324 71.4355 50.5572C71.1803 50.5541 70.9259 50.5308 70.6748 50.4876C65.7439 49.6623 66.0954 43.6167 66.0954 43.6167L68.0363 43.9796L72.8623 45.8589C72.2169 47.1863 71.7465 48.5839 71.4617 50.0202C71.4375 50.1732 71.4287 50.328 71.4355 50.4826Z" fill="#263238"/>
<path d="M65.2876 35.826C64.3486 38.282 65.3505 45.5507 67.1341 47.2609C69.7202 49.7468 74.1528 50.1594 76.4032 47.1714C78.5906 44.2729 77.1061 34.8217 75.097 33.2507C72.1332 30.9488 66.6725 32.2017 65.2876 35.826Z" fill="#AD6359"/>
<path d="M72.2748 40.8574C72.2748 40.8574 72.238 40.8873 72.2433 40.9071C72.322 41.4043 72.3325 41.9661 71.8813 42.1849C71.8813 42.1849 71.8813 42.2147 71.8813 42.2097C72.4531 42.0655 72.4374 41.3098 72.2748 40.8574Z" fill="#263238"/>
<path d="M71.7449 40.4C70.9056 40.4398 71.0525 42.0307 71.8288 41.991C72.6052 41.9512 72.4478 40.3702 71.7449 40.4Z" fill="#263238"/>
<path d="M75.4536 40.5342C75.4536 40.5342 75.4956 40.5342 75.4956 40.574C75.5271 41.0712 75.6477 41.628 76.1303 41.7523C76.1303 41.7523 76.1303 41.7821 76.1303 41.7523C75.5376 41.7623 75.3959 41.0016 75.4536 40.5342Z" fill="#263238"/>
<path d="M75.8733 39.9824C76.7021 39.8532 76.9224 41.4342 76.1408 41.5535C75.3592 41.6728 75.1756 40.0868 75.8733 39.9824Z" fill="#263238"/>
<path d="M71.0946 39.2466C71.3149 39.172 71.509 39.0676 71.724 38.9731C71.9581 38.9085 72.1628 38.7721 72.3063 38.5853C72.3412 38.5184 72.3513 38.4424 72.3352 38.3694C72.319 38.2963 72.2774 38.2306 72.2171 38.1826C72.0808 38.108 71.9261 38.0687 71.7686 38.0687C71.6112 38.0687 71.4565 38.108 71.3201 38.1826C71.0192 38.2932 70.7724 38.5058 70.6277 38.7792C70.6028 38.842 70.597 38.9102 70.6111 38.976C70.6251 39.0418 70.6583 39.1025 70.707 39.1512C70.7557 39.1999 70.8178 39.2347 70.8864 39.2516C70.9549 39.2684 71.027 39.2667 71.0946 39.2466Z" fill="#263238"/>
<path d="M76.3979 39.4405C76.1685 39.4165 75.9409 39.38 75.716 39.3311C75.4715 39.3232 75.2362 39.2413 75.0445 39.0974C74.9973 39.0379 74.9717 38.9655 74.9717 38.8911C74.9717 38.8166 74.9973 38.7442 75.0445 38.6848C75.1537 38.5779 75.2909 38.5004 75.442 38.4602C75.5932 38.42 75.7529 38.4186 75.9048 38.4561C76.2259 38.4876 76.5232 38.6311 76.7389 38.8588C76.7841 38.9149 76.8111 38.9823 76.8166 39.0528C76.822 39.1233 76.8056 39.1937 76.7694 39.2555C76.7332 39.3172 76.6788 39.3676 76.6128 39.4005C76.5468 39.4333 76.4721 39.4472 76.3979 39.4405Z" fill="#263238"/>
<path d="M74.7245 43.1991C74.7771 43.5569 74.8104 43.9169 74.8242 44.2779C74.1147 44.2807 73.4089 44.3743 72.7259 44.5564C72.5685 44.6061 72.5685 44.4768 72.7259 44.3774C73.261 44.0783 73.8791 43.9397 74.4989 43.9796C74.4989 43.8802 74.3206 42.8511 74.3783 42.8461C74.6601 42.8733 74.9369 42.9351 75.2018 43.0301C75.0392 41.4988 74.6196 40.0023 74.4779 38.476C74.4779 38.4213 74.5566 38.4064 74.5724 38.476C75.0783 40.0657 75.4139 41.6997 75.5743 43.3532C75.6215 43.5272 74.8714 43.2538 74.7245 43.1991Z" fill="#263238"/>
<path d="M65.8436 41.8865C67.1655 41.797 66.9976 38.7345 66.9976 38.7345C66.9976 38.7345 69.012 38.3715 69.9614 35.7515C69.9614 35.7515 72.5843 37.243 74.7507 36.8651C78.1499 36.2387 78.003 32.0376 76.7178 31.1974C74.8924 30.0091 71.6925 31.8089 71.6925 31.8089C71.6925 31.8089 66.8035 30.5809 65.3977 33.723C64.7665 33.772 64.1784 34.0461 63.752 34.4899C63.3257 34.9337 63.0927 35.5142 63.1001 36.1144C62.9742 38.3815 64.8627 41.9512 65.8436 41.8865Z" fill="#263238"/>
<path d="M66.5308 39.1024C67.5076 38.9307 68.3969 38.4569 69.0592 37.755C69.4137 37.3728 69.666 36.9153 69.7948 36.4212C69.9235 35.9271 69.9249 35.4109 69.7988 34.9162C69.8021 34.9074 69.8081 34.8998 69.8161 34.8944C69.8241 34.8891 69.8336 34.8862 69.8434 34.8862C69.8532 34.8862 69.8628 34.8891 69.8708 34.8944C69.8788 34.8998 69.8848 34.9074 69.888 34.9162C70.045 35.4333 70.0794 35.9769 69.9887 36.5081C69.898 37.0393 69.6845 37.5449 69.3634 37.9887C69.0433 38.4103 68.6127 38.7453 68.114 38.9607C67.6153 39.1761 67.066 39.2643 66.5203 39.2167C66.4888 39.1869 66.4731 39.1123 66.5308 39.1024Z" fill="#263238"/>
<path d="M62.9061 34.7671C63.567 33.9567 64.5899 33.8175 65.6023 33.8374C65.66 33.8374 65.66 33.9269 65.6023 33.9219C65.0973 33.9102 64.5982 34.0272 64.1571 34.2607C63.7161 34.4942 63.3492 34.8356 63.0949 35.2494C62.5703 36.015 62.7225 36.9696 62.9375 37.8048C63.348 39.4215 64.3734 40.8377 65.8174 41.7822C65.8174 41.7822 65.8174 41.8369 65.8174 41.8219C64.995 41.3444 64.2841 40.7126 63.7285 39.9654C63.1728 39.2182 62.7841 38.3713 62.5861 37.4767C62.3815 36.5867 62.2976 35.5228 62.9061 34.7671Z" fill="#263238"/>
<path d="M71.5614 31.9481C71.9878 31.2851 72.656 30.7933 73.4393 30.566C74.383 30.3139 75.3916 30.4006 76.272 30.8096C76.6227 30.9821 76.9191 31.2394 77.131 31.5555C77.3428 31.8716 77.4628 32.2352 77.4785 32.6094C77.4816 33.4817 77.1666 34.3283 76.5867 35.0057C76.5867 35.0057 76.5395 35.0057 76.5553 35.0057C77.0154 34.3594 77.2503 33.5926 77.2267 32.8132C77.2083 32.446 77.0828 32.0909 76.8643 31.7873C76.6457 31.4836 76.3427 31.2433 75.9887 31.093C74.5829 30.5212 72.5371 30.6406 71.6348 32.0028C71.6086 32.0426 71.5299 31.9978 71.5614 31.9481Z" fill="#263238"/>
<path d="M66.62 41.7623C66.62 41.7623 64.9781 39.3808 63.8397 39.9277C62.7014 40.4746 63.8922 43.9051 65.1879 44.4022C65.3491 44.4769 65.5247 44.5199 65.7039 44.5287C65.8831 44.5375 66.0624 44.5118 66.2309 44.4533C66.3995 44.3948 66.5538 44.3047 66.6846 44.1882C66.8155 44.0718 66.9202 43.9315 66.9924 43.7758L66.62 41.7623Z" fill="#AD6359"/>
<path d="M64.1807 40.9121C64.1807 40.9121 64.1807 40.9121 64.1807 40.9469C64.5948 41.159 64.9575 41.4508 65.2457 41.8035C65.5339 42.1563 65.7411 42.5622 65.854 42.9953C65.8031 42.9066 65.7327 42.8294 65.6474 42.769C65.5621 42.7085 65.4641 42.6662 65.36 42.645C65.2559 42.6237 65.1482 42.624 65.0443 42.6459C64.9403 42.6677 64.8426 42.7106 64.7577 42.7715C64.7577 42.7715 64.7577 42.8262 64.7577 42.8212C64.9202 42.7783 65.0926 42.7834 65.2519 42.8358C65.4113 42.8882 65.55 42.9855 65.6495 43.1146C65.8122 43.3353 65.9494 43.572 66.0586 43.8206C66.1006 43.9001 66.2475 43.8653 66.2212 43.7708C66.2947 42.6423 65.4344 41.0613 64.1807 40.9121Z" fill="#263238"/>
<path d="M17.1376 195H0V192.017H17.1376C30.7134 192.017 34.5847 181.005 35.4397 171.767C36.1112 164.533 36.5203 155.724 36.9557 146.412C38.5871 111.52 40.2762 75.4406 55.09 75.4406H68.6658V78.4236H55.0795C43.2767 78.4236 41.4408 117.794 40.0926 146.536C39.652 155.898 39.2376 164.742 38.5661 172.041C37.2023 186.841 29.5908 195 17.1376 195Z" fill="#1A79E8"/>
<path opacity="0.2" d="M68.6658 75.4257V78.4087H57.8387L57.1673 75.4257H68.6658Z" fill="black"/>
<path d="M115.761 96.1874H121.542V57.9153H115.761V96.1874Z" fill="#1A79E8"/>
<path d="M115.761 59.73H93.7925V93.975H115.761V59.73Z" fill="#1A79E8"/>
<path opacity="0.2" d="M115.761 59.73V93.98H110.306L107.856 59.73H115.761Z" fill="black"/>
<path d="M60.514 79.9698H76.8123V73.8695H60.514V79.9698Z" fill="#FFC727"/>
<path d="M76.8123 73.8695H60.514V79.9698H76.8123V73.8695Z" fill="#1A79E8"/>
<path d="M93.7925 91.9565H80.0384C79.1827 91.9565 78.3622 91.6344 77.7572 91.061C77.1522 90.4876 76.8123 89.7099 76.8123 88.899V65.2088C76.8123 64.3979 77.1522 63.6202 77.7572 63.0468C78.3622 62.4734 79.1827 62.1512 80.0384 62.1512H93.7925V91.9565Z" fill="#1A79E8"/>
<path opacity="0.2" d="M86.564 91.9466L89.0137 62.1512H93.7925V91.9466H86.564Z" fill="black"/>
<g opacity="0.2">
<path opacity="0.2" d="M87.8281 85.9258H88.914V68.1769H87.8281V85.9258Z" fill="black"/>
<path opacity="0.2" d="M84.7595 85.9258H85.8453V68.1769H84.7595V85.9258Z" fill="black"/>
<path opacity="0.2" d="M81.6855 85.9258H82.7713V68.1769H81.6855V85.9258Z" fill="black"/>
</g>
<path d="M59.5121 56.2051C58.9875 63.3842 58.3895 78.0109 61.7362 82.2966C66.1268 87.9295 78.5224 91.3401 82.1943 92.3642C83.768 92.8117 87.5397 82.918 86.6059 81.4961C85.6722 80.0742 72.878 77.0216 71.8708 76.1863C70.8637 75.3511 67.6743 63.6974 66.1583 57.7612C64.1964 50.2788 59.7271 53.3712 59.5121 56.2051Z" fill="#AD6359"/>
<path d="M96.0586 85.2945C98.0782 85.7519 101.142 84.7675 101.241 86.2341C101.331 87.5367 99.1431 88.0239 99.1431 88.0239C99.1431 88.0239 101.797 88.2327 101.472 89.6596C101.147 91.0865 98.629 91.1511 98.629 91.1511C98.629 91.1511 101.063 91.4643 100.628 92.8664C100.192 94.2684 97.8579 94.4623 97.8579 94.4623C97.8579 94.4623 98.4716 94.8998 97.6953 95.7599C96.5884 96.9879 92.8955 96.8437 90.9913 96.3366C89.0871 95.8295 82.4933 92.6277 81.4914 92.1206L84.8329 80.4868C84.8329 80.4868 88.6675 79.9051 90.6503 79.8355C92.6332 79.7659 99.227 81.2624 98.949 82.8185C98.671 84.3747 94.0285 83.261 92.8273 83.2213C91.626 83.1815 91.4162 83.44 91.9408 83.8527C92.2817 84.151 95.1616 85.0906 96.0586 85.2945Z" fill="#AD6359"/>
<path d="M99.0224 87.999C95.9222 88.4714 94.4744 88.1681 91.6313 87.0047C91.5736 87.0047 91.5264 87.0544 91.5841 87.0842C94.2593 88.4564 96.0166 89.0729 99.0539 88.1333C99.206 88.0885 99.1745 87.999 99.0224 87.999Z" fill="#263238"/>
<path d="M98.7497 91.1064C95.4816 91.3252 93.9132 91.0119 90.8392 90.0126C90.8304 90.0118 90.8215 90.0137 90.8139 90.018C90.8062 90.0223 90.8002 90.0288 90.7967 90.0366C90.7932 90.0443 90.7924 90.0529 90.7944 90.0611C90.7964 90.0693 90.801 90.0767 90.8078 90.0822C93.7401 91.3053 95.5026 91.8919 98.7392 91.2605C98.8861 91.2357 98.9018 91.0965 98.7497 91.1064Z" fill="#263238"/>
<path d="M97.8159 94.4623C94.6318 94.4623 92.8955 94.1888 90.0418 92.8514C90.0279 92.8442 90.0116 92.8425 89.9963 92.8467C89.9811 92.8509 89.9682 92.8606 89.9605 92.8738C89.9529 92.887 89.9511 92.9025 89.9555 92.917C89.9599 92.9314 89.9702 92.9436 89.9841 92.9509C92.7539 94.5766 94.9203 94.9396 97.8054 94.5567C97.9995 94.512 98.0153 94.4623 97.8159 94.4623Z" fill="#263238"/>
<path d="M72.516 90.0325C72.516 90.0325 62.5126 85.2746 60.9756 81.6204C59.0871 77.0663 58.316 63.7869 59.0504 56.9757C59.7848 50.1644 64.7892 51.0096 66.3943 57.0304C67.968 62.9069 71.5194 74.6451 71.8865 75.197C72.3534 75.9079 78.0607 77.2453 78.0607 77.2453" fill="#18FE2F"/>
<path d="M71.5142 73.6756C71.3411 73.1138 71.0368 71.846 70.8637 71.3041C70.5122 70.2054 70.1608 69.1066 69.8146 68.0129C69.4683 66.9191 69.0959 65.8203 68.713 64.7315C68.6448 64.5525 68.5818 64.3636 68.5189 64.1747C68.5504 64.0604 68.4087 62.6136 68.4192 62.2606C68.4192 62.2059 68.3248 62.2009 68.33 62.2606C68.344 62.614 68.3317 62.9678 68.2933 63.3196C68.2933 63.3892 68.2933 63.4538 68.2933 63.5184C68.052 62.8025 67.8107 62.0916 67.5642 61.3955C67.5642 61.3458 67.4593 61.3657 67.475 61.3955C67.9471 62.887 68.1779 63.8267 68.5241 65.0348C68.8703 66.2429 69.2271 67.3665 69.5733 68.515C69.9195 69.6635 70.3234 70.8368 70.7063 71.9952C70.9217 72.683 71.1738 73.36 71.4617 74.0236C71.682 74.4761 71.6925 74.2673 71.5142 73.6756Z" fill="#263238"/>
<path d="M60.2307 77.6878C60.0261 76.4598 59.8216 75.2268 59.6642 73.9938C59.3442 71.508 59.1396 69.0569 59.0242 66.5711C58.956 65.1541 58.8459 63.7372 58.7619 62.3203C58.7619 62.3057 58.7559 62.2918 58.745 62.2816C58.7342 62.2713 58.7195 62.2656 58.7042 62.2656C58.6889 62.2656 58.6743 62.2713 58.6634 62.2816C58.6526 62.2918 58.6465 62.3057 58.6465 62.3203C58.6465 63.5831 58.5993 64.8459 58.6465 66.1037C58.6465 66.2877 58.6465 66.4716 58.6465 66.6556L58.5836 66.3971C58.3895 65.6762 58.1167 64.9702 57.9489 64.2443C57.9512 64.2383 57.952 64.2318 57.9512 64.2255C57.9503 64.2191 57.9478 64.213 57.944 64.2078C57.9401 64.2025 57.935 64.1982 57.929 64.1952C57.923 64.1922 57.9163 64.1907 57.9095 64.1907C57.9027 64.1907 57.8961 64.1922 57.8901 64.1952C57.8841 64.1982 57.8789 64.2025 57.8751 64.2078C57.8712 64.213 57.8687 64.2191 57.8679 64.2255C57.867 64.2318 57.8678 64.2383 57.8702 64.2443C58.059 64.9702 58.1587 65.7358 58.337 66.4468C58.4315 66.8097 58.5259 67.1726 58.6308 67.5356L58.6833 67.6897C58.7147 68.4156 58.7514 69.1414 58.8039 69.8673C58.9451 72.3684 59.2482 74.8589 59.7114 77.3248C60.0288 78.9292 60.4867 80.5058 61.0805 82.038C61.0835 82.0456 61.0889 82.0522 61.0959 82.0568C61.1029 82.0615 61.1113 82.064 61.1199 82.064C61.1284 82.064 61.1368 82.0615 61.1438 82.0568C61.1509 82.0522 61.1562 82.0456 61.1592 82.038C60.8497 80.81 60.4406 78.9158 60.2307 77.6878Z" fill="#263238"/>
<path d="M76.2038 77.2403C75.656 78.1329 75.1655 79.0559 74.735 80.0045C74.2734 80.9392 73.8065 81.8739 73.3711 82.8185C72.4874 84.68 71.7151 86.5872 71.0578 88.531C71.0578 88.5807 71.126 88.6106 71.1522 88.5608C72.1279 86.7213 72.962 84.8072 73.8118 82.913C74.2314 81.9783 74.6353 81.0337 75.0497 80.099C75.4642 79.1643 75.9363 78.2296 76.2562 77.2602C76.2667 77.2303 76.2195 77.2154 76.2038 77.2403Z" fill="#263238"/>
<path d="M131.226 51.5117C131.156 51.5117 131.089 51.4856 131.04 51.4389C130.991 51.3923 130.963 51.3291 130.963 51.2632V44.2481C130.965 44.1826 130.993 44.1201 131.042 44.0737C131.091 44.0274 131.156 44.0008 131.226 43.9995C131.295 43.9995 131.362 44.0257 131.411 44.0723C131.46 44.1189 131.488 44.1822 131.488 44.2481V51.2433C131.491 51.2776 131.486 51.312 131.474 51.3445C131.462 51.377 131.444 51.4068 131.419 51.4321C131.394 51.4573 131.364 51.4774 131.331 51.4911C131.298 51.5048 131.262 51.5119 131.226 51.5117Z" fill="#263238"/>
<path d="M117.87 54.8627C117.824 54.8628 117.778 54.8514 117.737 54.8296C117.697 54.8078 117.663 54.7763 117.639 54.7384L113.967 48.6779C113.941 48.6218 113.937 48.5583 113.957 48.4997C113.976 48.4411 114.018 48.3915 114.074 48.3606C114.131 48.3297 114.197 48.3196 114.26 48.3322C114.324 48.3449 114.38 48.3795 114.418 48.4293L118.09 54.4898C118.108 54.5177 118.12 54.5488 118.125 54.5811C118.13 54.6133 118.127 54.6462 118.119 54.6778C118.11 54.7093 118.094 54.7388 118.073 54.7646C118.052 54.7904 118.026 54.8119 117.996 54.8279C117.958 54.85 117.915 54.862 117.87 54.8627Z" fill="#263238"/>
<path d="M114.03 104.739C113.985 104.738 113.94 104.728 113.899 104.709C113.839 104.675 113.796 104.62 113.778 104.556C113.76 104.492 113.77 104.423 113.805 104.366L117.477 98.3104C117.513 98.2536 117.571 98.2124 117.638 98.1957C117.706 98.179 117.778 98.188 117.839 98.2209C117.869 98.2368 117.895 98.2584 117.916 98.2841C117.937 98.3099 117.952 98.3395 117.961 98.371C117.97 98.4025 117.972 98.4354 117.967 98.4677C117.962 98.5 117.951 98.531 117.933 98.559L114.261 104.614C114.238 104.653 114.204 104.684 114.163 104.706C114.123 104.728 114.077 104.739 114.03 104.739Z" fill="#263238"/>
<path d="M131.058 109.109C130.988 109.109 130.921 109.083 130.872 109.036C130.823 108.989 130.795 108.926 130.795 108.86V101.865C130.795 101.799 130.823 101.736 130.872 101.689C130.921 101.643 130.988 101.617 131.058 101.617C131.127 101.617 131.194 101.643 131.243 101.689C131.292 101.736 131.32 101.799 131.32 101.865V108.88C131.314 108.942 131.283 109 131.235 109.042C131.186 109.084 131.123 109.108 131.058 109.109Z" fill="#263238"/>
<path d="M148.106 104.818C148.06 104.818 148.015 104.806 147.976 104.785C147.936 104.763 147.903 104.732 147.881 104.694L144.209 98.6385C144.191 98.6105 144.179 98.5795 144.174 98.5472C144.169 98.5149 144.172 98.482 144.18 98.4505C144.189 98.419 144.205 98.3895 144.226 98.3637C144.247 98.3379 144.273 98.3164 144.303 98.3004C144.364 98.2676 144.436 98.2585 144.503 98.2752C144.571 98.292 144.629 98.3331 144.665 98.3899L148.337 104.445C148.372 104.503 148.381 104.571 148.363 104.635C148.346 104.699 148.302 104.754 148.242 104.789C148.2 104.809 148.153 104.819 148.106 104.818Z" fill="#263238"/>
<path d="M144.56 54.9422C144.514 54.9425 144.468 54.9305 144.429 54.9074C144.399 54.8915 144.373 54.87 144.351 54.8442C144.33 54.8184 144.315 54.7889 144.306 54.7573C144.297 54.7258 144.295 54.6929 144.3 54.6606C144.305 54.6283 144.317 54.5973 144.334 54.5694L148.006 48.5138C148.021 48.4821 148.043 48.4538 148.071 48.4306C148.098 48.4075 148.13 48.3901 148.165 48.3795C148.2 48.3688 148.237 48.3653 148.274 48.3691C148.31 48.3728 148.345 48.3838 148.377 48.4013C148.409 48.4188 148.436 48.4424 148.458 48.4706C148.479 48.4988 148.494 48.5309 148.502 48.5649C148.51 48.599 148.51 48.6341 148.502 48.6682C148.494 48.7022 148.479 48.7343 148.457 48.7624L144.786 54.8179C144.762 54.8549 144.729 54.8856 144.689 54.9073C144.65 54.929 144.606 54.941 144.56 54.9422Z" fill="#263238"/>
</svg>
