<svg width="19" height="19" viewBox="0 0 19 19" fill="none" xmlns="http://www.w3.org/2000/svg">
<path d="M5.42426 0.575719C5.18995 0.341404 4.81005 0.341404 4.57574 0.575719L0.757359 4.3941C0.523044 4.62841 0.523044 5.00831 0.757359 5.24262C0.991674 5.47694 1.37157 5.47694 1.60589 5.24262L5 1.84851L8.39411 5.24262C8.62843 5.47694 9.00833 5.47694 9.24264 5.24262C9.47696 5.00831 9.47696 4.62841 9.24264 4.3941L5.42426 0.575719ZM5.6 14.421L5.6 0.999983L4.4 0.999983L4.4 14.421L5.6 14.421Z" fill="#1A79E8"/>
<path d="M13.5757 18.4243C13.8101 18.6586 14.1899 18.6586 14.4243 18.4243L18.2426 14.6059C18.477 14.3716 18.477 13.9917 18.2426 13.7574C18.0083 13.5231 17.6284 13.5231 17.3941 13.7574L14 17.1515L10.6059 13.7574C10.3716 13.5231 9.99167 13.5231 9.75736 13.7574C9.52304 13.9917 9.52304 14.3716 9.75736 14.6059L13.5757 18.4243ZM13.4 4.57896L13.4 18H14.6L14.6 4.57896H13.4Z" fill="#1A79E8"/>
</svg>
