<svg width="262" height="211" viewBox="0 0 262 211" fill="none" xmlns="http://www.w3.org/2000/svg">
<path opacity="0.5" d="M94.8438 147.822C87.458 151.492 75.4927 151.492 68.107 147.822C60.7212 144.153 60.7212 138.189 68.107 134.491C75.4927 130.793 87.458 130.814 94.8438 134.491C102.23 138.167 102.221 144.146 94.8438 147.822Z" fill="#C4D9E8"/>
<path opacity="0.5" d="M235.385 204.145C250.084 204.145 262 198.211 262 190.89C262 183.57 250.084 177.636 235.385 177.636C220.686 177.636 208.77 183.57 208.77 190.89C208.77 198.211 220.686 204.145 235.385 204.145Z" fill="#C4D9E8"/>
<path d="M70.6367 25.4385C70.6367 25.4385 71.1248 34.2093 71.8975 40.1033C72.6703 45.9972 89.1256 35.5705 89.1256 35.5705V28.8626L70.6367 25.4385Z" fill="#6614CF"/>
<path d="M79.3971 134.533C79.6411 135.066 83.9034 139.543 88.1657 140.665C89.4227 141.047 90.7565 141.205 92.0863 141.128C92.2822 141.109 92.4703 141.051 92.6361 140.959C92.8018 140.867 92.9408 140.743 93.0423 140.597C93.1437 140.452 93.2049 140.288 93.2211 140.118C93.2373 139.949 93.208 139.778 93.1356 139.62C91.6717 136.229 88.7376 133.462 84.9527 131.902C77.7296 128.779 79.3971 134.533 79.3971 134.533Z" fill="#173D7A"/>
<path d="M77.9735 136.252C78.9104 138.174 79.6137 140.175 80.0721 142.223C80.3731 143.879 79.3238 146.033 78.4453 147.464C78.3176 147.67 78.1372 147.848 77.9179 147.985C77.6986 148.121 77.4461 148.213 77.1795 148.253C76.913 148.293 76.6394 148.28 76.3795 148.215C76.1196 148.15 75.8803 148.035 75.6797 147.878C73.7405 146.417 72.507 144.382 72.2227 142.174C71.7265 137.585 72.2227 136.785 72.2227 136.785L77.9735 136.252Z" fill="#173D7A"/>
<path d="M67.7084 80.8628C67.3762 84.9156 67.3762 88.9837 67.7084 93.0366C68.2615 99.4287 70.2544 129.341 70.6204 136.54C70.6204 136.54 70.4414 138.722 75.33 138.238C80.2187 137.753 79.8201 135.34 79.8201 135.34C79.8201 135.34 86.6853 135.263 86.9049 131.768C87.1245 128.274 93.9328 90.0896 93.9328 76.337L67.7084 80.8628Z" fill="#FDD762"/>
<path d="M96.4709 50.965L99.8385 55.4626L111.438 67.5101C111.289 67.8564 111.043 68.1657 110.722 68.4105C110.402 68.6553 110.016 68.828 109.599 68.9135C108.477 69.138 98.7566 61.1391 94.5513 57.6237C94.0238 57.1705 93.6925 56.575 93.6126 55.9366C93.5326 55.2981 93.7089 54.6553 94.112 54.1154L96.4709 50.965Z" fill="#FFC2B0"/>
<path d="M89.9146 32.5183C89.9146 32.5183 95.2587 32.399 97.1132 39.0648C98.9678 45.7305 100.432 54.0663 98.8133 54.7609C93.9328 56.8659 90.8825 54.4031 90.8825 54.4031L89.9146 32.5183Z" fill="#1A79E8"/>
<path d="M91.5087 32.806C90.5948 32.4799 89.5799 32.4304 88.6292 32.6656C84.0741 33.7953 66.9599 38.1246 64.1374 40.2085C60.8838 42.6082 69.0179 56.1152 68.904 60.5567C68.7901 64.9982 68.2126 70.2045 67.7571 75.0109C67.3016 79.8173 66.6996 82.4485 71.2548 84.4974C75.8099 86.5462 83.6105 86.6024 89.4426 82.8064C95.2748 79.0104 94.2174 76.3511 93.9733 73.5655C93.7293 70.7799 91.7446 58.7464 91.9154 55.3223C93.3499 54.3402 94.5631 53.1391 95.4944 51.7789C97.0155 49.5336 94.3312 45.4218 93.2087 42.7415C92.0862 40.0611 93.8432 37.0089 93.4934 34.8197C93.4177 34.3564 93.191 33.9211 92.8396 33.5646C92.4883 33.208 92.0267 32.945 91.5087 32.806Z" fill="#1A79E8"/>
<path d="M80.264 42.5257C83.8154 42.1332 86.4014 39.8427 86.0401 37.4096C85.6787 34.9765 82.5069 33.3222 78.9555 33.7147C75.4041 34.1071 72.8181 36.3976 73.1794 38.8307C73.5407 41.2638 76.7126 42.9181 80.264 42.5257Z" fill="white"/>
<path d="M84.2043 37.6123C84.4646 39.3454 82.5775 40.9873 80.0722 41.268C77.5669 41.5487 75.2731 40.3628 75.0128 38.6227C74.7525 36.8826 76.6396 35.2477 79.1449 34.9741C81.6502 34.7004 83.944 35.8722 84.2043 37.6123Z" fill="#FFC2B0"/>
<path d="M81.683 31.9008C81.683 31.9008 78.592 29.7116 77.982 30.8203C77.3719 31.9289 76.8757 36.6932 76.8757 36.6932L83.017 38.0965L82.0816 33.2691C82.0816 33.2691 83.3098 32.392 81.683 31.9008Z" fill="#FFC2B0"/>
<path d="M82.6066 34.0069C87.665 33.8324 91.6016 30.1536 91.3992 25.7902C91.1969 21.4268 86.9322 18.031 81.8739 18.2055C76.8155 18.3801 72.8789 22.0588 73.0812 26.4223C73.2835 30.7857 77.5482 34.1815 82.6066 34.0069Z" fill="#FFC2B0"/>
<path d="M77.5588 32.2025C77.5019 32.4481 77.4531 32.7147 77.4043 32.9883C78.0144 35.7389 82.7891 36.9457 82.7891 36.9457L82.0814 33.2901C82.0814 33.2901 82.6589 32.8691 82.4963 32.4411C80.6091 31.9288 78.234 31.4798 77.5588 32.2025Z" fill="#EA9C92"/>
<path d="M82.6066 34.0069C87.665 33.8324 91.6016 30.1536 91.3992 25.7902C91.1969 21.4268 86.9322 18.031 81.8739 18.2055C76.8155 18.3801 72.8789 22.0588 73.0812 26.4223C73.2835 30.7857 77.5482 34.1815 82.6066 34.0069Z" fill="#FFC2B0"/>
<path d="M59.5581 59.6656L60.583 80.8137L64.162 81.1364L66.4965 62.1003L59.5581 59.6656Z" fill="#FFC2B0"/>
<path d="M71.3364 57.8974C70.1488 53.3857 67.8062 43.4081 67.8062 43.4081L66.8057 53.3155C67.9607 56.2625 68.9531 58.9288 68.9043 60.5286C68.8392 63.1248 68.6114 65.9946 68.343 68.8994C68.343 68.8994 72.5158 62.4371 71.3364 57.8974Z" fill="#8A2AE3"/>
<path d="M64.8208 39.7735C64.8208 39.7735 61.9576 40.7207 60.3308 48.3127C58.704 55.9047 57.5001 63.5107 60.3877 64.493C63.2753 65.4754 65.6993 66.2121 66.5452 64.1773C67.3912 62.1425 67.928 52.3613 68.0338 48.839C68.1395 45.3166 68.3266 40.4681 64.8208 39.7735Z" fill="#1A79E8"/>
<path d="M110.543 66.6471C111.552 66.9942 112.464 67.5229 113.219 68.1978C113.898 68.8507 114.508 69.5552 115.041 70.3028C115.935 71.4535 116.668 73.9374 116.147 74.2461C115.626 74.5548 112.487 70.0852 111.982 71.1237C111.478 72.1622 111.982 73.1234 111.348 73.1375C110.713 73.1515 108.46 68.6538 106.703 67.2505C104.946 65.8472 110.543 66.6471 110.543 66.6471Z" fill="#FFC2B0"/>
<path d="M79.8201 135.333C80.4776 135.316 81.1329 135.258 81.7804 135.157L83.1225 88.6722L79.8201 135.333Z" fill="#D8892B"/>
<path d="M60.6072 80.6382C60.6072 80.6382 59.6637 85.5498 59.7938 87.1567C59.924 88.7635 60.9163 91.3666 61.6647 91.2894C62.413 91.2122 61.6647 84.9324 62.9987 85.5569C64.3327 86.1813 64.4384 87.2619 65.0322 86.883C65.626 86.5041 63.9992 81.1153 64.4303 78.7788C64.8614 76.4423 60.6072 80.6382 60.6072 80.6382Z" fill="#FFC2B0"/>
<path d="M85.6442 26.905C90.24 28.3083 91.1347 27.4523 91.1754 27.4102C91.2232 27.1781 91.2558 26.9438 91.273 26.7085C91.3273 25.8577 91.2229 25.0049 90.9639 24.1826L79.0393 22.7792C80.6717 24.7293 82.987 26.1756 85.6442 26.905Z" fill="#EA9C92"/>
<path d="M91.5984 18.8078C90.5166 18.0079 86.6122 14.0505 79.6087 14.9838C75.2326 15.5661 71.5804 18.1412 70.767 24.0141C70.5267 25.9628 70.7813 27.9332 71.5131 29.7883C72.245 31.6435 73.4365 33.3389 75.0048 34.7566C75.1675 34.6864 75.3465 34.6233 75.501 34.5391C77.2499 33.5427 77.4451 32.9954 77.4451 32.9884L77.8274 29.9923C77.8286 29.7847 77.7401 29.5841 77.5792 29.4298C77.4183 29.2754 77.1965 29.1782 76.957 29.1573C76.6947 29.1334 76.4423 29.0577 76.2194 28.936C75.9965 28.8143 75.8091 28.6499 75.6718 28.4557C74.6632 27.326 75.1268 25.5578 77.1441 25.4876C77.5061 25.5163 77.8682 25.4333 78.1661 25.2534C78.4639 25.0736 78.6782 24.8085 78.7709 24.5053C78.7991 24.4097 78.8503 24.3204 78.9212 24.243C78.9921 24.1657 79.0811 24.1021 79.1824 24.0564C79.2837 24.0107 79.3951 23.984 79.5092 23.9779C79.6233 23.9718 79.7376 23.9866 79.8446 24.0212C82.1385 24.7228 87.7754 26.2735 91.4032 25.4245C95.9827 24.2808 92.7291 19.6358 91.5984 18.8078Z" fill="#6614CF"/>
<path d="M86.3844 30.4764L89.1826 29.7748C88.4065 30.8138 87.2668 31.6126 85.9289 32.0552C83.9767 32.5183 83.6758 31.0939 83.6758 31.0939L86.3844 30.4764Z" fill="white"/>
<path opacity="0.5" d="M172.525 197.809L109.079 166.606C106.76 165.448 107.053 163.434 109.729 162.101L146.227 143.921C148.911 142.588 152.962 142.441 155.28 143.598L218.727 174.801C221.045 175.952 220.752 177.973 218.076 179.306L181.578 197.486C178.894 198.819 174.884 198.966 172.525 197.809Z" fill="#C4D9E8"/>
<path d="M224.38 164.297V36.5458L165.505 23.2142L154.662 17.8185C152.173 16.5765 147.83 16.7309 144.95 18.1623L134.831 23.2002H103.434L112.731 146.524C112.72 146.994 112.868 147.457 113.157 147.856C113.446 148.255 113.863 148.572 114.358 148.77L173.11 187.017C175.599 188.252 179.951 188.098 182.823 186.666L222.062 167.188C223.688 166.36 224.502 165.294 224.38 164.297Z" fill="#1A79E8"/>
<path d="M150.156 17.0186C148.332 17.0537 146.546 17.4702 144.95 18.2324L134.831 23.2704H103.434V151.317C103.426 151.791 103.58 152.256 103.877 152.655C104.173 153.054 104.599 153.37 105.101 153.562L173.151 187.038C174.542 187.652 176.097 187.938 177.657 187.866L178.357 58.9709L150.156 17.0186Z" fill="#D4ECFF"/>
<path d="M173.777 187.333C176.29 188.118 179.047 188.09 181.537 187.256V57.4483H173.777V187.333Z" fill="#398CEC"/>
<path d="M173.151 58.9847L105.101 25.5085C102.612 24.2735 102.921 22.1054 105.792 20.674L144.95 1.17484C147.83 -0.228485 152.173 -0.410917 154.662 0.824007L222.712 34.3003C225.201 35.5422 224.892 37.7033 222.021 39.1347L182.863 58.6339C179.992 60.0653 175.64 60.2197 173.151 58.9847Z" fill="#D4ECFF"/>
<path d="M222.061 36.7633L182.863 56.2625C179.992 57.6658 175.64 57.8483 173.151 56.6063L105.101 23.1441C104.608 22.9111 104.182 22.5848 103.856 22.1898C103.002 23.3756 103.393 24.6667 105.101 25.5157L173.151 58.992C175.64 60.2269 179.992 60.0725 182.863 58.6411L222.061 39.1349C224.29 38.0263 224.973 36.4686 223.997 35.2477C223.503 35.8798 222.839 36.3997 222.061 36.7633Z" fill="#FAFDFF"/>
<path d="M175.079 45.4149L129.772 22.7652C128.6 22.1828 128.747 21.1654 130.097 20.4989L148.415 11.3773C149.106 11.0475 149.877 10.8612 150.666 10.8332C151.456 10.8052 152.242 10.9362 152.962 11.2159L198.269 33.8725C199.432 34.4549 199.286 35.4653 197.944 36.1389L179.618 45.2605C178.928 45.5923 178.158 45.7792 177.37 45.806C176.581 45.8328 175.796 45.6988 175.079 45.4149Z" fill="#173D7A"/>
<path d="M150.62 23.7826L147.992 22.4424C147.83 22.3652 147.854 22.2249 148.033 22.1337L150.571 20.8707C150.668 20.8276 150.775 20.8051 150.884 20.8051C150.993 20.8051 151.1 20.8276 151.197 20.8707L153.824 22.1828C153.987 22.26 153.963 22.4003 153.784 22.4915L151.246 23.7545C151.152 23.802 151.046 23.8293 150.937 23.8342C150.828 23.8391 150.719 23.8214 150.62 23.7826Z" fill="#D4ECFF"/>
<path d="M159.429 28.1329L156.801 26.8208C156.639 26.7436 156.663 26.6033 156.85 26.5121L159.38 25.2491C159.478 25.206 159.587 25.1835 159.697 25.1835C159.807 25.1835 159.916 25.206 160.014 25.2491L162.633 26.5612C162.796 26.6384 162.78 26.7787 162.633 26.8699L160.096 28.1329C159.994 28.1821 159.879 28.2079 159.762 28.2079C159.645 28.2079 159.531 28.1821 159.429 28.1329Z" fill="#D4ECFF"/>
<path d="M168.157 32.4832L165.538 31.1711C165.375 31.0939 165.391 30.9536 165.578 30.8624L168.116 29.5994C168.213 29.5563 168.32 29.5338 168.429 29.5338C168.538 29.5338 168.646 29.5563 168.743 29.5994L171.37 30.8624C171.533 30.9395 171.508 31.0799 171.321 31.1711L168.791 32.4341C168.698 32.485 168.591 32.516 168.481 32.5245C168.371 32.5331 168.26 32.5189 168.157 32.4832Z" fill="#D4ECFF"/>
<path d="M176.934 36.8335L174.306 35.5214C174.144 35.4442 174.168 35.3039 174.347 35.2127L176.885 33.9497C176.982 33.9066 177.089 33.8842 177.198 33.8842C177.307 33.8842 177.414 33.9066 177.511 33.9497L180.138 35.2548C180.301 35.332 180.277 35.4723 180.098 35.5705L177.56 36.8265C177.464 36.8707 177.357 36.8944 177.248 36.8956C177.139 36.8968 177.031 36.8755 176.934 36.8335Z" fill="#D4ECFF"/>
<path d="M129.772 22.7652H129.82L130.097 22.6038L148.415 13.4822C149.105 13.1493 149.876 12.9612 150.666 12.9331C151.456 12.9051 152.243 13.0379 152.962 13.3209L198.22 35.9494C199.294 35.2478 199.343 34.3847 198.269 33.8445L152.962 11.2159C152.242 10.9362 151.456 10.8052 150.666 10.8332C149.877 10.8612 149.106 11.0475 148.415 11.3773L130.097 20.4989C128.747 21.1654 128.6 22.1828 129.772 22.7652Z" fill="#5793CE"/>
<path d="M165.635 84.2939L115.35 59.2516C114.55 58.7572 113.896 58.1081 113.44 57.3563C112.984 56.6045 112.738 55.7709 112.723 54.9223V47.0006C112.723 45.3306 113.902 44.5658 115.35 45.2885L165.635 70.3308C166.435 70.8252 167.089 71.4743 167.545 72.2262C168.001 72.978 168.247 73.8116 168.262 74.6601V82.6029C168.262 84.2518 167.083 85.0166 165.635 84.2939Z" fill="#1A79E8"/>
<path d="M161.869 77.2703L159.51 76.0915C159.335 75.9852 159.191 75.8446 159.091 75.6812C158.99 75.5177 158.936 75.3362 158.933 75.1512V72.9621C158.933 72.6042 159.193 72.4358 159.51 72.5902L161.869 73.769C162.044 73.8757 162.187 74.0163 162.288 74.1797C162.388 74.343 162.442 74.5244 162.447 74.7092V76.8914C162.406 77.2632 162.146 77.4246 161.869 77.2703Z" fill="#173D7A"/>
<path d="M153.93 73.3339L151.563 72.1551C151.389 72.0485 151.246 71.9076 151.147 71.7442C151.048 71.5807 150.995 71.3993 150.994 71.2149V69.0398C150.994 68.6749 151.246 68.5065 151.563 68.6609L153.93 69.8397C154.104 69.9482 154.246 70.0904 154.345 70.2549C154.444 70.4194 154.497 70.6016 154.499 70.7869V72.9621C154.499 73.3269 154.247 73.4883 153.93 73.3339Z" fill="#173D7A"/>
<path d="M165.635 113.006L115.35 87.9636C114.55 87.4692 113.896 86.8201 113.44 86.0682C112.984 85.3164 112.738 84.4828 112.723 83.6343V75.6915C112.723 74.0215 113.902 73.2567 115.35 73.9794L165.635 99.0218C166.435 99.5161 167.089 100.165 167.545 100.917C168.001 101.669 168.247 102.502 168.262 103.351V111.294C168.262 112.957 167.083 113.729 165.635 113.006Z" fill="#1A79E8"/>
<path d="M161.869 105.982L159.51 104.803C159.335 104.697 159.191 104.557 159.091 104.393C158.99 104.23 158.936 104.048 158.933 103.863V101.688C158.933 101.323 159.193 101.155 159.51 101.309L161.869 102.488C162.044 102.595 162.187 102.735 162.288 102.899C162.388 103.062 162.442 103.243 162.447 103.428V105.61C162.406 105.975 162.146 106.137 161.869 105.982Z" fill="#173D7A"/>
<path d="M153.93 102.046L151.563 100.867C151.389 100.761 151.246 100.62 151.147 100.456C151.048 100.293 150.995 100.111 150.994 99.9269V97.7518C150.994 97.3869 151.246 97.2185 151.563 97.3729L153.93 98.5517C154.104 98.6602 154.246 98.8024 154.345 98.9669C154.444 99.1314 154.497 99.3136 154.499 99.4989V101.674C154.499 102.039 154.247 102.207 153.93 102.046Z" fill="#D4ECFF"/>
<path d="M165.635 141.725L115.35 116.676C114.55 116.181 113.896 115.532 113.44 114.78C112.984 114.028 112.738 113.195 112.723 112.346V104.403C112.723 102.734 113.902 101.969 115.35 102.691L165.635 127.734C166.435 128.228 167.089 128.877 167.545 129.629C168.001 130.381 168.247 131.214 168.262 132.063V140.006C168.262 141.676 167.083 142.427 165.635 141.725Z" fill="#1A79E8"/>
<path d="M161.869 134.708L159.51 133.529C159.335 133.423 159.191 133.283 159.091 133.119C158.99 132.956 158.936 132.774 158.933 132.589V130.414C158.933 130.049 159.193 129.881 159.51 130.035L161.869 131.2C162.043 131.307 162.186 131.448 162.286 131.611C162.386 131.775 162.441 131.956 162.447 132.14V134.322C162.406 134.708 162.146 134.849 161.869 134.708Z" fill="#D4ECFF"/>
<path d="M153.93 130.758L151.563 129.579C151.389 129.472 151.246 129.332 151.147 129.168C151.048 129.005 150.995 128.823 150.994 128.639V126.464C150.994 126.099 151.246 125.93 151.563 126.092L153.93 127.264C154.104 127.372 154.246 127.514 154.345 127.679C154.444 127.843 154.497 128.026 154.499 128.211V130.386C154.499 130.751 154.247 130.919 153.93 130.758Z" fill="#173D7A"/>
<path d="M165.635 170.43L115.35 145.388C114.55 144.893 113.896 144.244 113.44 143.492C112.984 142.74 112.738 141.907 112.723 141.058V133.116C112.723 131.446 113.902 130.681 115.35 131.403L165.635 156.46C166.435 156.954 167.089 157.603 167.545 158.355C168.001 159.107 168.247 159.941 168.262 160.789V168.732C168.262 170.388 167.083 171.153 165.635 170.43Z" fill="#1A79E8"/>
<path d="M161.869 163.406L159.51 162.227C159.335 162.121 159.191 161.981 159.091 161.817C158.99 161.654 158.936 161.472 158.933 161.287V159.112C158.933 158.747 159.193 158.579 159.51 158.733L161.869 159.912C162.044 160.02 162.188 160.162 162.288 160.327C162.388 160.491 162.442 160.673 162.447 160.859V163.034C162.406 163.399 162.146 163.561 161.869 163.406Z" fill="#D4ECFF"/>
<path d="M153.93 159.47L151.563 158.291C151.389 158.185 151.246 158.044 151.147 157.88C151.048 157.717 150.995 157.535 150.994 157.351V155.176C150.994 154.811 151.246 154.643 151.563 154.804L153.93 155.976C154.104 156.084 154.246 156.226 154.345 156.391C154.444 156.555 154.497 156.738 154.499 156.923V159.098C154.499 159.463 154.247 159.631 153.93 159.47Z" fill="#D4ECFF"/>
<path d="M190.509 84.2939L216.27 71.5587C217.069 71.0644 217.724 70.4152 218.18 69.6634C218.636 68.9116 218.882 68.078 218.897 67.2295V59.3007C218.897 57.6307 217.718 56.8659 216.27 57.5886L190.509 70.3098C189.71 70.8041 189.055 71.4533 188.599 72.2051C188.143 72.9569 187.897 73.7905 187.882 74.639V82.5818C187.898 84.2518 189.061 85.0166 190.509 84.2939Z" fill="#173D7A"/>
<path d="M190.509 113.006L216.27 100.285C217.069 99.7904 217.724 99.1413 218.18 98.3894C218.636 97.6376 218.882 96.804 218.897 95.9555V88.0127C218.897 86.3427 217.718 85.5779 216.27 86.3006L190.509 99.0218C189.71 99.5161 189.055 100.165 188.599 100.917C188.143 101.669 187.897 102.503 187.882 103.351V111.294C187.898 112.957 189.061 113.729 190.509 113.006Z" fill="#173D7A"/>
<path d="M190.509 141.725L216.27 129.004C217.069 128.509 217.724 127.86 218.18 127.108C218.636 126.357 218.882 125.523 218.897 124.675V116.725C218.897 115.055 217.718 114.29 216.27 115.013L190.509 127.734C189.71 128.228 189.055 128.877 188.599 129.629C188.143 130.381 187.897 131.215 187.882 132.063V140.006C187.898 141.676 189.061 142.427 190.509 141.725Z" fill="#173D7A"/>
<path d="M190.509 170.43L216.27 157.709C217.069 157.214 217.724 156.565 218.18 155.813C218.636 155.062 218.882 154.228 218.897 153.38V145.437C218.897 143.767 217.718 143.002 216.27 143.725L190.509 156.46C189.71 156.954 189.055 157.603 188.599 158.355C188.143 159.107 187.897 159.941 187.882 160.789V168.732C187.898 170.388 189.061 171.153 190.509 170.43Z" fill="#173D7A"/>
<path opacity="0.5" d="M27.0216 191.824L6.73512 181.72C5.4906 181.102 5.64514 180.015 7.08488 179.299L26.6718 169.546C27.4124 169.188 28.24 168.986 29.0878 168.956C29.9356 168.925 30.7799 169.067 31.5523 169.37L51.8144 179.474C53.0589 180.092 52.9044 181.179 51.4728 181.895L31.8777 191.648C31.1402 192.002 30.317 192.202 29.4738 192.233C28.6306 192.263 27.7908 192.123 27.0216 191.824Z" fill="#C4D9E8"/>
<path d="M58.5657 171.777V164.22H38.9137L32.1136 160.838C31.1515 160.462 30.1007 160.286 29.0455 160.324C27.9903 160.362 26.9601 160.612 26.0374 161.056L19.6928 164.213H8.16214e-05V171.966C-0.00321647 172.262 0.0935005 172.553 0.278407 172.802C0.463314 173.051 0.728398 173.248 1.04125 173.37L26.4441 186C27.4071 186.377 28.4595 186.554 29.5163 186.516C30.5731 186.479 31.6049 186.227 32.5284 185.782L57.0609 173.566C57.4794 173.418 57.8418 173.172 58.1075 172.856C58.3732 172.54 58.5319 172.166 58.5657 171.777Z" fill="#721BD5"/>
<path d="M29.2829 160.305C28.145 160.319 27.0282 160.571 26.0293 161.042L19.6846 164.199H8.16214e-05V171.967C-0.00321647 172.262 0.0935005 172.553 0.278407 172.802C0.463314 173.051 0.728398 173.248 1.04125 173.37L26.4441 186C27.3139 186.388 28.2888 186.567 29.2666 186.519L29.2829 160.305Z" fill="#983BE9"/>
<path d="M2.23696 164.178H8.16214e-05V171.967C-0.00321647 172.262 0.0935005 172.553 0.278407 172.802C0.463314 173.051 0.728398 173.249 1.04125 173.37L2.22883 173.959L2.23696 164.178Z" fill="#B45EF4"/>
<path d="M26.8428 186.189C28.4224 186.685 30.1574 186.668 31.7232 186.14V177.313H26.8428V186.189Z" fill="#7E23DC"/>
<path d="M26.4524 178.274L1.04957 165.645C-0.50405 164.866 -0.308832 163.54 1.48881 162.613L26.0294 150.376C27.8271 149.485 30.552 149.387 32.1056 150.159L57.5085 162.789C59.0702 163.568 58.875 164.894 57.0774 165.82L32.5367 178.057C31.6132 178.502 30.5815 178.753 29.5246 178.791C28.4678 178.829 27.4154 178.652 26.4524 178.274Z" fill="#8A2AE3"/>
<path d="M26.9157 176.001L5.6206 165.399C4.31914 164.746 4.48183 163.61 5.98664 162.859L26.5416 152.622C27.3166 152.251 28.1812 152.042 29.0666 152.01C29.952 151.978 30.8337 152.125 31.6416 152.439L52.9286 163.041C54.2382 163.694 54.0755 164.831 52.5626 165.581L32.0077 175.819C31.2337 176.188 30.3705 176.397 29.4867 176.429C28.6028 176.46 27.7226 176.314 26.9157 176.001Z" fill="#6614CF"/>
<path d="M49.2034 173.777C49.1848 174.083 49.0822 174.382 48.904 174.648C48.7259 174.914 48.4772 175.139 48.1785 175.306C47.6091 175.587 47.1536 175.363 47.1536 174.794C47.1784 174.494 47.2839 174.202 47.4618 173.943C47.6396 173.683 47.885 173.463 48.1785 173.3C48.7478 172.984 49.2034 173.208 49.2034 173.777Z" fill="#FF2C9C"/>
<path d="M52.5059 172.128C52.4866 172.435 52.3838 172.735 52.2058 173.002C52.0277 173.269 51.7794 173.496 51.481 173.665C50.9116 173.945 50.4561 173.714 50.4561 173.152C50.476 172.845 50.579 172.546 50.757 172.279C50.935 172.012 51.1829 171.785 51.481 171.616C52.0585 171.335 52.5059 171.567 52.5059 172.128Z" fill="#FF2C9C"/>
<path d="M55.8084 170.493C55.7879 170.799 55.6845 171.097 55.5065 171.363C55.3286 171.628 55.0809 171.854 54.7835 172.023C54.2141 172.31 53.7505 172.079 53.7505 171.517C53.77 171.209 53.8738 170.909 54.0533 170.642C54.2329 170.375 54.4831 170.149 54.7835 169.981C55.3122 169.693 55.8084 169.925 55.8084 170.493Z" fill="#FF2C9C"/>
<path d="M58.5657 159.519V151.955H38.8974L32.0973 148.573C30.5437 147.794 27.8187 147.871 26.0211 148.791L19.6765 151.941H3.88658e-05V159.716C-0.00223027 160.011 0.0949059 160.301 0.27969 160.55C0.464475 160.799 0.728985 160.997 1.04121 161.119L26.4441 173.749C27.4076 174.125 28.4596 174.301 29.5161 174.263C30.5726 174.225 31.6042 173.975 32.5284 173.531L57.0609 161.315C58.102 160.81 58.6064 160.144 58.5657 159.519Z" fill="#721BD5"/>
<path d="M29.2829 148.04C28.1444 148.056 27.0275 148.311 26.0292 148.784L19.6846 151.934H3.88658e-05V159.708C-0.00223027 160.004 0.0949059 160.294 0.27969 160.543C0.464475 160.792 0.728985 160.99 1.04121 161.112L26.4441 173.742C27.3153 174.127 28.2891 174.306 29.2666 174.261L29.2829 148.04Z" fill="#983BE9"/>
<path d="M2.23692 151.927H3.88658e-05V159.701C-0.00223027 159.997 0.0949059 160.287 0.27969 160.536C0.464475 160.785 0.728985 160.983 1.04121 161.105L2.22879 161.694L2.23692 151.927Z" fill="#B45EF4"/>
<path d="M26.8428 173.924C28.4224 174.42 30.1574 174.403 31.7232 173.875V165.048H26.8428V173.924Z" fill="#7E23DC"/>
<path d="M26.4524 166.016L1.04957 153.387C-0.50405 152.615 -0.308832 151.282 1.48881 150.362L26.0294 138.118C27.8271 137.22 30.552 137.122 32.1056 137.901L57.5085 150.531C59.0702 151.303 58.875 152.636 57.0774 153.562L32.5367 165.799C31.612 166.241 30.5805 166.49 29.5244 166.528C28.4682 166.566 27.4164 166.391 26.4524 166.016Z" fill="#8A2AE3"/>
<path d="M26.9157 163.736L5.6206 153.134C4.31914 152.481 4.48183 151.345 5.98664 150.594L26.5416 140.357C27.3166 139.986 28.1812 139.776 29.0666 139.745C29.952 139.713 30.8337 139.86 31.6416 140.174L52.9286 150.776C54.2382 151.429 54.0755 152.566 52.5626 153.316L32.0077 163.554C31.2337 163.923 30.3705 164.132 29.4867 164.164C28.6028 164.195 27.7226 164.049 26.9157 163.736Z" fill="#6614CF"/>
<path d="M49.2034 161.512C49.1835 161.819 49.0804 162.118 48.9024 162.385C48.7244 162.652 48.4765 162.879 48.1785 163.048C47.6091 163.329 47.1536 163.098 47.1536 162.536C47.1715 162.228 47.2738 161.929 47.4519 161.662C47.6301 161.395 47.8791 161.168 48.1785 161C48.7478 160.719 49.2034 160.95 49.2034 161.512Z" fill="#FF2C9C"/>
<path d="M52.5059 159.87C52.4804 160.171 52.3747 160.464 52.1969 160.724C52.0192 160.984 51.7742 161.206 51.481 161.371C50.9116 161.652 50.4561 161.428 50.4561 160.859C50.4747 160.552 50.5772 160.254 50.7554 159.988C50.9335 159.722 51.1822 159.497 51.481 159.33C52.0585 159.077 52.5059 159.301 52.5059 159.87Z" fill="#FF2C9C"/>
<path d="M55.5047 159.083C55.9045 158.485 55.9038 157.839 55.503 157.64C55.1023 157.44 54.4533 157.763 54.0535 158.36C53.6537 158.957 53.6544 159.603 54.0552 159.803C54.4559 160.003 55.1048 159.68 55.5047 159.083Z" fill="#FF2C9C"/>
<path d="M58.5657 147.254V139.697H38.9137L32.1136 136.315C30.56 135.536 27.835 135.613 26.0374 136.533L19.6928 139.69H8.16214e-05V147.464C-0.00321647 147.76 0.0935005 148.051 0.278407 148.3C0.463314 148.549 0.728398 148.746 1.04125 148.868L26.4441 161.498C27.4071 161.875 28.4595 162.052 29.5163 162.014C30.5731 161.977 31.6049 161.725 32.5284 161.28L57.0609 149.064C58.1021 148.545 58.6064 147.878 58.5657 147.254Z" fill="#721BD5"/>
<path d="M29.2829 135.782C28.145 135.795 27.0282 136.048 26.0293 136.519L19.6846 139.676H8.16214e-05V147.45C-0.00321647 147.746 0.0935005 148.037 0.278407 148.286C0.463314 148.535 0.728398 148.732 1.04125 148.854L26.4441 161.484C27.3154 161.869 28.2892 162.048 29.2666 162.003L29.2829 135.782Z" fill="#983BE9"/>
<path d="M2.23696 139.669H8.16214e-05V147.443C-0.00321647 147.739 0.0935005 148.03 0.278407 148.279C0.463314 148.528 0.728398 148.725 1.04125 148.847L2.22883 149.436L2.23696 139.669Z" fill="#B45EF4"/>
<path d="M26.8428 161.666C28.4224 162.162 30.1574 162.145 31.7232 161.617V152.79H26.8428V161.666Z" fill="#7E23DC"/>
<path d="M26.4524 153.751L1.04957 141.121C-0.50405 140.343 -0.308832 139.016 1.48881 138.09L26.0294 125.853C26.9521 125.41 27.9824 125.16 29.0376 125.122C30.0928 125.084 31.1435 125.26 32.1056 125.636L57.5085 138.266C59.0702 139.045 58.875 140.371 57.0774 141.297L32.5367 153.534C31.6132 153.979 30.5815 154.23 29.5246 154.268C28.4678 154.306 27.4154 154.129 26.4524 153.751Z" fill="#8A2AE3"/>
<path d="M57.0694 139.83L32.5369 152.046C31.6134 152.491 30.5816 152.743 29.5248 152.78C28.468 152.818 27.4156 152.641 26.4526 152.264L1.04975 139.62C0.745619 139.471 0.48209 139.268 0.277014 139.024C-0.259838 139.767 -0.0158144 140.574 1.09043 141.128L26.4933 153.758C27.4563 154.136 28.5086 154.313 29.5655 154.275C30.6223 154.237 31.6541 153.986 32.5776 153.541L57.1101 141.325C58.5092 140.623 58.9321 139.655 58.3221 138.89C58 139.287 57.5699 139.61 57.0694 139.83Z" fill="#B45EF4"/>
<path d="M49.2034 149.247C49.1854 149.554 49.0831 149.854 48.905 150.121C48.7268 150.388 48.4779 150.615 48.1785 150.783C47.6091 151.064 47.1536 150.839 47.1536 150.271C47.1722 149.964 47.2747 149.666 47.4529 149.4C47.631 149.134 47.8797 148.909 48.1785 148.742C48.7478 148.454 49.2034 148.685 49.2034 149.247Z" fill="#FF2C9C"/>
<path d="M52.5059 147.605C52.4853 147.912 52.382 148.211 52.2041 148.478C52.0261 148.744 51.7786 148.972 51.481 149.141C50.9116 149.422 50.4561 149.191 50.4561 148.629C50.4747 148.322 50.5772 148.022 50.7553 147.755C50.9334 147.488 51.182 147.261 51.481 147.093C52.0585 146.812 52.5059 147.043 52.5059 147.605Z" fill="#FF2C9C"/>
<path d="M55.8084 145.935C55.7879 146.241 55.6845 146.539 55.5065 146.805C55.3286 147.07 55.0809 147.296 54.7835 147.464C54.2141 147.752 53.7505 147.521 53.7505 146.959C53.77 146.651 53.8738 146.351 54.0533 146.084C54.2329 145.817 54.4831 145.59 54.7835 145.423C55.3122 145.17 55.8084 145.395 55.8084 145.935Z" fill="#FF2C9C"/>
<path d="M27.9572 146.244L16.0733 140.322C15.3412 139.964 15.4307 139.325 16.2766 138.918L27.7539 133.207C28.1856 132.998 28.6682 132.879 29.1628 132.861C29.6574 132.843 30.15 132.925 30.6008 133.101L42.4848 139.023C43.2168 139.388 43.1274 140.02 42.2814 140.427L30.8042 146.145C30.3712 146.352 29.8884 146.468 29.3942 146.485C28.9 146.502 28.408 146.419 27.9572 146.244Z" fill="#6614CF"/>
<path d="M29.0957 141.29L27.4688 140.469C27.3631 140.42 27.3794 140.329 27.4688 140.272L29.055 139.48C29.1171 139.454 29.1852 139.44 29.2543 139.44C29.3233 139.44 29.3915 139.454 29.4536 139.48L31.0804 140.301C31.178 140.35 31.1699 140.441 31.0804 140.497L29.4536 141.29C29.3973 141.312 29.3363 141.323 29.2746 141.323C29.213 141.323 29.152 141.312 29.0957 141.29Z" fill="#FF2C9C"/>
<path d="M36.384 147.787L34.7572 146.966C34.6514 146.917 34.6677 146.826 34.7572 146.77L36.3433 145.977C36.4054 145.951 36.4736 145.937 36.5426 145.937C36.6117 145.937 36.6798 145.951 36.7419 145.977L38.3687 146.798C38.4663 146.847 38.4582 146.938 38.3687 146.994L36.7826 147.787C36.7208 147.814 36.6525 147.829 36.5833 147.829C36.514 147.829 36.4457 147.814 36.384 147.787Z" fill="#6614CF"/>
<path d="M39.9712 145.977L38.3444 145.156C38.2468 145.107 38.2549 145.023 38.3444 144.96L39.9712 144.174C40.0308 144.145 40.098 144.13 40.1664 144.13C40.2348 144.13 40.302 144.145 40.3616 144.174L41.9884 144.988C42.086 145.044 42.0698 145.128 41.9884 145.184L40.3698 145.935C40.3115 145.968 40.2452 145.989 40.1761 145.996C40.107 146.003 40.0369 145.997 39.9712 145.977Z" fill="#6614CF"/>
<path d="M43.5664 144.174L41.9396 143.353C41.842 143.304 41.8501 143.212 41.9396 143.156L43.5664 142.363C43.6271 142.337 43.6939 142.324 43.7616 142.324C43.8293 142.324 43.8962 142.337 43.9568 142.363L45.5837 143.184C45.6894 143.233 45.6731 143.325 45.5837 143.381L43.9568 144.174C43.8958 144.199 43.8291 144.212 43.7616 144.212C43.6941 144.212 43.6274 144.199 43.5664 144.174Z" fill="#B45EF4"/>
<path d="M16.0729 140.322L16.2437 140.216L27.721 134.505C28.1527 134.296 28.6353 134.177 29.1299 134.159C29.6245 134.141 30.1171 134.223 30.5679 134.4L42.4519 140.322C43.127 139.908 43.1595 139.346 42.4519 139.009L30.5679 133.087C30.1171 132.911 29.6245 132.829 29.1299 132.847C28.6353 132.865 28.1527 132.984 27.721 133.193L16.2681 138.918C15.4547 139.325 15.3409 139.964 16.0729 140.322Z" fill="#B45EF4"/>
<path d="M18.8633 167.609L8.58173 162.487C8.23217 162.272 7.94619 161.989 7.74693 161.662C7.54768 161.334 7.44075 160.97 7.43481 160.6C7.43481 159.898 7.94726 159.533 8.58173 159.849L18.8633 164.971C19.213 165.187 19.4989 165.471 19.6981 165.8C19.8973 166.129 20.0042 166.494 20.0102 166.865C20.0102 167.588 19.5221 167.925 18.8633 167.609Z" fill="#6614CF"/>
<path d="M19.7824 167.125L9.50088 162.003C9.15117 161.787 8.86521 161.502 8.66601 161.173C8.4668 160.844 8.35993 160.48 8.35397 160.108C8.3537 159.998 8.36733 159.887 8.39464 159.779C7.84965 159.61 7.43481 159.94 7.43481 160.6C7.44075 160.97 7.54768 161.334 7.74693 161.661C7.94619 161.989 8.23217 162.272 8.58173 162.487L18.8633 167.609C18.9608 167.674 19.0768 167.715 19.199 167.727C19.3213 167.74 19.4452 167.724 19.5577 167.681C19.6702 167.638 19.7671 167.569 19.8381 167.482C19.9092 167.396 19.9518 167.294 19.9614 167.188L19.7824 167.125Z" fill="#B45EF4"/>
<path d="M250.531 184.154C251.446 184.532 252.205 185.143 252.704 185.905C253.203 186.667 253.418 187.542 253.321 188.413C253.305 189.128 253.168 189.838 252.914 190.518C252.337 191.557 250.474 192.981 247.464 191.957C244.455 190.932 237.801 185.537 237.549 182C237.118 175.405 245.821 182.421 250.531 184.154Z" fill="#173D7A"/>
<path d="M232.945 195.051C232.945 195.051 233.661 198.833 233.311 199.528C232.961 200.222 230.871 201.703 227.788 201.38C224.705 201.057 215.831 198.426 213.854 193.381C210.796 185.558 230.984 193.964 230.984 193.964L232.945 195.051Z" fill="#173D7A"/>
<path d="M224.274 134.505L223.583 193.592C223.568 194.54 223.931 195.464 224.61 196.21C225.289 196.955 226.245 197.478 227.316 197.689C227.577 197.725 227.853 197.76 228.13 197.781C228.897 197.881 229.681 197.798 230.397 197.542C231.114 197.286 231.736 196.867 232.197 196.328C232.767 195.628 233.085 194.798 233.108 193.943L233.986 168.683L238.354 146.131L244.39 186.049C244.417 186.563 244.578 187.066 244.859 187.52C245.141 187.974 245.536 188.368 246.017 188.673C246.835 189.132 247.799 189.357 248.774 189.319C249.476 189.293 250.165 189.142 250.795 188.873C251.425 188.605 251.984 188.226 252.434 187.761C253.013 187.175 253.323 186.426 253.305 185.656L250.913 161.638L250.027 131.004L224.274 134.505Z" fill="#FDD762"/>
<path d="M252.882 115.097C252.757 115.103 252.632 115.103 252.507 115.097L241.583 113.609C241.263 113.566 240.955 113.47 240.678 113.324C240.401 113.179 240.16 112.988 239.969 112.762C239.777 112.536 239.639 112.28 239.562 112.008C239.486 111.737 239.472 111.454 239.521 111.178C239.571 110.902 239.683 110.636 239.852 110.397C240.02 110.158 240.242 109.95 240.504 109.785C240.765 109.62 241.062 109.501 241.377 109.435C241.692 109.368 242.019 109.356 242.34 109.399L249.888 110.403L247.277 97.6886C247.169 97.1303 247.323 96.5579 247.704 96.0974C248.086 95.6368 248.664 95.3258 249.311 95.2328C249.958 95.1397 250.621 95.2723 251.155 95.6012C251.689 95.9302 252.05 96.4287 252.158 96.9869L255.322 112.634C255.391 112.966 255.367 113.308 255.25 113.63C255.134 113.953 254.93 114.246 254.655 114.486C254.422 114.686 254.145 114.843 253.84 114.947C253.536 115.052 253.21 115.103 252.882 115.097Z" fill="#FFC2B0"/>
<path d="M242.893 84.8903C242.893 84.8903 246.553 84.7079 251.263 93.0857C255.973 101.464 249.522 104.102 249.522 104.102L242.893 84.8903Z" fill="#983BE9"/>
<path d="M232.855 87.0935C233.026 87.0374 242.95 81.5223 246.618 87.29C252.597 96.6993 252.247 126.976 250.36 130.898C248.611 134.526 244.243 137.213 241.185 138.708C238.484 140.081 235.42 140.832 232.286 140.89C229.179 140.89 223.233 138.532 223.452 135.038C224.445 118.956 222.794 105.393 221.272 92.2367C221.248 92.2367 223.176 90.5036 232.855 87.0935Z" fill="#983BE9"/>
<path d="M217.181 119.973C217.463 119.96 217.74 119.898 217.994 119.791C218.366 119.625 218.685 119.384 218.925 119.088C219.164 118.793 219.317 118.451 219.369 118.093L224.087 106.228C224.298 105 221.817 100.222 220.548 100.018C219.28 99.8146 216.075 101.983 215.871 103.211L214.741 113.778L203.093 108.866C201.889 108.319 200.888 107.203 200.173 108.235C199.827 108.734 199.701 109.324 199.817 109.897C199.934 110.471 200.285 110.988 200.807 111.357L215.814 119.595C216.206 119.852 216.689 119.986 217.181 119.973Z" fill="#FFC2B0"/>
<path d="M202.19 108.438L201.458 106.894C201.192 106.34 200.789 105.842 200.278 105.435L197.204 102.993C197.143 102.943 197.071 102.906 196.992 102.882C196.913 102.858 196.829 102.849 196.746 102.856C196.663 102.863 196.582 102.885 196.51 102.92C196.437 102.956 196.374 103.005 196.325 103.063C196.237 103.155 196.189 103.271 196.189 103.39C196.189 103.509 196.237 103.624 196.325 103.716L197.602 104.923C197.701 105.016 197.769 105.13 197.799 105.253C197.83 105.377 197.82 105.505 197.773 105.624L197.285 106.81C197.205 107.004 197.185 107.213 197.226 107.416C197.268 107.619 197.369 107.809 197.521 107.968L200.604 111.189L202.19 108.438Z" fill="#FFC2B0"/>
<path d="M221.248 92.2367C221.248 92.2367 214.627 96.6431 213.61 110.052C213.61 110.052 213.464 111.539 217.295 112.431C218.443 112.666 219.644 112.636 220.775 112.344C221.905 112.052 222.927 111.509 223.737 110.768C224.994 107.72 225.423 104.465 224.991 101.252C224.56 98.0397 223.279 94.9553 221.248 92.2367Z" fill="#983BE9"/>
<path d="M233.766 81.9083L234.848 87.29C234.828 87.8526 234.585 88.3924 234.161 88.8199C233.736 89.2473 233.155 89.5369 232.514 89.6406C230.139 90.1458 229.398 88.8266 229.398 88.8266L228.325 82.7853L233.766 81.9083Z" fill="#FFC2B0"/>
<path d="M233.482 86.3506C237.946 84.4255 239.533 79.3581 237.026 75.0323C234.519 70.7065 228.868 68.7603 224.404 70.6853C219.94 72.6104 218.353 77.6777 220.86 82.0036C223.366 86.3294 229.018 88.2756 233.482 86.3506Z" fill="#FFC2B0"/>
<path d="M227.324 81.3118C227.141 81.3379 226.953 81.326 226.777 81.2772C226.6 81.2284 226.439 81.1441 226.307 81.0311C225.844 80.6242 225.649 78.456 224.437 78.2736C222.541 77.9859 218.686 80.547 217.116 75.053C216.302 72.1902 217.783 71.1798 217.457 69.6011C217.457 69.6011 217.457 70.415 226.006 68.6398C234.555 66.8646 238.663 73.0532 239.493 76.1686C240.322 79.284 239.599 84.7289 233.84 86.3146C232.888 86.5743 228.211 84.336 228.243 83.95C228.276 83.5641 229.829 83.3536 229.382 82.2941C229.326 82.1108 229.228 81.9391 229.093 81.7894C228.958 81.6398 228.789 81.5153 228.597 81.4235C228.404 81.3317 228.192 81.2745 227.974 81.2553C227.755 81.2361 227.534 81.2553 227.324 81.3118Z" fill="#173D7A"/>
<path d="M238.378 146.166L244.414 186.084C244.442 186.598 244.602 187.101 244.883 187.555C245.165 188.009 245.56 188.403 246.041 188.708C246.208 188.802 246.382 188.886 246.561 188.961C245.301 188.147 241.64 154.643 240.965 150.917C240.29 147.191 238.378 146.166 238.378 146.166Z" fill="#D8892B"/>
<path d="M223.216 111.21V111.343C223.834 119.23 223.913 127.143 223.452 135.038C223.458 135.728 223.649 136.408 224.012 137.023C224.375 137.638 224.899 138.172 225.543 138.581C226.444 128.436 226.444 118.246 225.543 108.101C224.729 110.501 223.216 111.21 223.216 111.21Z" fill="#6614CF"/>
<path opacity="0.5" d="M111.438 211C125.198 211 136.352 205.443 136.352 198.588C136.352 191.732 125.198 186.175 111.438 186.175C97.6774 186.175 86.5227 191.732 86.5227 198.588C86.5227 205.443 97.6774 211 111.438 211Z" fill="#C4D9E8"/>
<path d="M121.54 191.943C120.906 191.631 120.249 191.357 119.572 191.122L115.724 189.655L116.017 190.231C113.047 189.729 109.995 189.701 107.012 190.147L107.191 189.508L102.669 191.234C102.09 191.44 101.525 191.674 100.977 191.936C95.2831 194.742 95.2831 199.338 100.977 202.166C106.671 204.994 115.838 204.973 121.516 202.166C127.193 199.359 127.218 194.771 121.54 191.943Z" fill="#983BE9"/>
<path d="M116.09 194.609C114.601 195.266 112.952 195.608 111.279 195.608C109.606 195.608 107.957 195.266 106.468 194.609C103.808 193.29 103.808 191.143 106.468 189.817C107.959 189.166 109.607 188.827 111.279 188.827C112.95 188.827 114.599 189.166 116.09 189.817C118.758 191.143 118.758 193.29 116.09 194.609Z" fill="#8A2AE3"/>
<path d="M111.275 193.129C110.662 193.129 110.075 192.919 109.641 192.545C109.208 192.171 108.965 191.664 108.965 191.136V165.876H113.593V191.136C113.591 191.665 113.346 192.172 112.911 192.545C112.477 192.919 111.888 193.129 111.275 193.129Z" fill="#8A2AE3"/>
<path d="M112.902 166.823C112.386 167.052 111.814 167.171 111.234 167.171C110.654 167.171 110.083 167.052 109.567 166.823C109.365 166.765 109.189 166.653 109.065 166.504C108.94 166.355 108.874 166.176 108.874 165.992C108.874 165.808 108.94 165.629 109.065 165.48C109.189 165.331 109.365 165.219 109.567 165.16C110.084 164.935 110.655 164.818 111.234 164.818C111.813 164.818 112.385 164.935 112.902 165.16C113.104 165.219 113.279 165.331 113.404 165.48C113.528 165.629 113.595 165.808 113.595 165.992C113.595 166.176 113.528 166.355 113.404 166.504C113.279 166.653 113.104 166.765 112.902 166.823Z" fill="#983BE9"/>
<path d="M111.275 166.774C111.029 166.774 110.786 166.732 110.559 166.651C110.332 166.57 110.125 166.451 109.952 166.302C109.778 166.152 109.64 165.974 109.546 165.778C109.452 165.582 109.404 165.372 109.404 165.16V141.451H113.154V165.16C113.154 165.373 113.105 165.583 113.01 165.78C112.916 165.976 112.777 166.154 112.603 166.304C112.428 166.454 112.221 166.573 111.993 166.653C111.765 166.734 111.521 166.775 111.275 166.774Z" fill="#8A2AE3"/>
<path d="M138.28 153.871V152.951L139.801 152.762L141.501 151.66C141.67 151.574 141.861 151.525 142.057 151.519C142.254 151.513 142.448 151.55 142.624 151.625L143.877 152.257L145.121 152.095V153.036C145.107 153.1 145.074 153.16 145.023 153.21C144.973 153.259 144.909 153.296 144.836 153.316L140.867 154.839C140.702 154.898 140.524 154.925 140.346 154.919C140.168 154.913 139.993 154.874 139.834 154.804L138.508 154.151C138.446 154.125 138.393 154.086 138.354 154.037C138.316 153.987 138.293 153.93 138.288 153.871H138.28Z" fill="#B45EF4"/>
<path d="M138.402 152.699L141.46 150.72C141.632 150.637 141.825 150.594 142.022 150.594C142.218 150.594 142.411 150.637 142.583 150.72L144.86 151.857C145.186 152.018 145.153 152.278 144.795 152.418L140.826 153.941C140.661 154 140.483 154.027 140.305 154.021C140.127 154.015 139.952 153.976 139.793 153.906L138.467 153.246C138.19 153.071 138.158 152.853 138.402 152.699Z" fill="#8A2AE3"/>
<path d="M133.245 157.161C133.671 157.168 134.092 157.079 134.465 156.902L139.216 154.53C139.279 154.5 139.335 154.46 139.38 154.411C139.425 154.362 139.458 154.305 139.477 154.245C139.496 154.185 139.501 154.122 139.491 154.06C139.481 153.998 139.456 153.938 139.419 153.885C139.383 153.831 139.335 153.784 139.277 153.747C139.22 153.709 139.155 153.682 139.085 153.666C139.016 153.651 138.943 153.647 138.872 153.655C138.801 153.664 138.732 153.685 138.671 153.716L133.92 156.081C133.707 156.165 133.475 156.209 133.241 156.209C133.007 156.209 132.775 156.165 132.562 156.081L124.664 152.131C124.537 152.069 124.388 152.053 124.248 152.086C124.108 152.119 123.988 152.198 123.915 152.306C123.878 152.36 123.853 152.419 123.843 152.481C123.834 152.543 123.838 152.606 123.857 152.666C123.876 152.726 123.909 152.783 123.954 152.832C123.999 152.881 124.055 152.922 124.119 152.951L132.017 156.902C132.393 157.08 132.816 157.17 133.245 157.161Z" fill="#B45EF4"/>
<path d="M87.5395 148.503L95.1693 144.672L90.8907 143.009L87.2385 145.247L87.5395 148.503Z" fill="url(#paint0_radial_3_3951)"/>
<path d="M136.547 142.819C136.102 142.613 135.675 142.379 135.27 142.118L119.002 131.831C116.066 129.979 113.04 129.495 110.705 130.519L110.535 130.611L88.0681 141.837L90.0854 142.413L97.9511 145.493L108.656 152.039L117.099 155.905L117.481 155.976C119.458 154.572 121.662 153.323 122.866 151.232C124.956 148.075 130.78 147.177 134.205 144.616C134.555 144.805 134.896 144.981 135.238 145.135C135.929 144.567 136.124 143.711 136.547 142.819Z" fill="#8A2AE3"/>
<path d="M143.689 138.217C143.352 138.217 143.025 138.316 142.762 138.497L120.8 149.471L121.613 152.313L122.427 151.969C121.166 153.667 119.23 154.776 117.481 156.046L119.97 156.502L141.501 145.696L141.794 145.584C142.082 145.455 142.354 145.303 142.607 145.128H142.648C144.275 144.033 145.21 142.139 145.21 139.767V139.543C145.215 139.369 145.178 139.196 145.104 139.034C145.029 138.872 144.917 138.725 144.775 138.602C144.634 138.478 144.464 138.38 144.278 138.314C144.091 138.248 143.891 138.215 143.689 138.217Z" fill="#721BD5"/>
<path d="M113.585 130.014C115.115 130.099 116.597 130.512 117.896 131.214C116.597 130.512 115.115 130.099 113.585 130.014Z" fill="#EAEAEA"/>
<path d="M123.639 150.313V150.096C123.639 149.75 123.479 149.418 123.196 149.173C122.912 148.928 122.527 148.791 122.126 148.791C121.725 148.791 121.34 148.928 121.056 149.173C120.772 149.418 120.613 149.75 120.613 150.096V150.313C120.613 152.06 119.97 153.337 118.848 153.822C117.587 154.369 115.659 153.969 113.707 152.727L97.4389 142.448C94.9417 140.869 92.3713 140.294 90.2239 140.792L103.661 134.07L88.0928 141.858L90.11 142.434L97.9757 145.514L108.68 152.06L117.123 155.927L117.506 155.997C119.482 154.593 121.687 153.344 122.891 151.253C123.104 150.943 123.352 150.652 123.631 150.383C123.631 150.383 123.639 150.341 123.639 150.313Z" fill="#B45EF4"/>
<path d="M117.075 157.098C114.999 157.019 113.006 156.376 111.381 155.26L95.1124 144.981C93.1521 143.746 91.2324 143.332 89.9635 143.886C88.841 144.377 88.2066 145.654 88.2066 147.394C88.2066 147.74 88.0472 148.072 87.7634 148.317C87.4797 148.562 87.0949 148.699 86.6936 148.699C86.2924 148.699 85.9075 148.562 85.6238 148.317C85.3401 148.072 85.1807 147.74 85.1807 147.394C85.1807 144.63 86.4252 142.483 88.597 141.556C90.9315 140.532 93.9574 141.016 96.8938 142.869L113.162 153.148C115.114 154.39 117.042 154.797 118.303 154.243C119.425 153.751 120.068 152.474 120.068 150.734V150.517C120.053 150.338 120.08 150.158 120.149 149.989C120.218 149.819 120.327 149.664 120.468 149.533C120.61 149.401 120.782 149.296 120.972 149.225C121.163 149.153 121.369 149.116 121.577 149.116C121.785 149.116 121.991 149.153 122.181 149.225C122.372 149.296 122.543 149.401 122.685 149.533C122.827 149.664 122.935 149.819 123.004 149.989C123.073 150.158 123.101 150.338 123.086 150.517V150.734C123.086 153.499 121.841 155.646 119.669 156.572C118.864 156.919 117.975 157.1 117.075 157.098Z" fill="#983BE9"/>
<path d="M104.296 180.085C104.296 180.085 101.229 178.752 99.3501 180.737C97.4712 182.723 94.7788 187.403 94.6974 190.561C94.6161 193.718 97.6013 193.508 99.3745 192.757C101.148 192.006 106.337 185.523 106.695 184.246C107.053 182.969 106.321 181.256 105.825 180.92C105.329 180.583 104.296 180.085 104.296 180.085Z" fill="#173D7A"/>
<path d="M104.93 179.446L105.068 182.19C105.081 182.472 105.005 182.751 104.847 182.999C104.69 183.246 104.457 183.452 104.174 183.593C103.452 183.928 102.62 184.04 101.815 183.909C99.5047 183.586 99.3014 183.018 99.1305 180.281C98.9597 177.545 104.93 179.446 104.93 179.446Z" fill="#E8A200"/>
<path d="M93.0787 174.822C93.0787 174.822 90.0203 173.489 88.1332 175.475C86.2461 177.461 83.57 182.141 83.4805 185.298C83.391 188.456 86.3844 188.252 88.1657 187.501C89.9471 186.751 95.1285 180.26 95.4376 178.99C95.7467 177.72 95.0716 176.001 94.5673 175.664C94.063 175.327 93.0787 174.822 93.0787 174.822Z" fill="#173D7A"/>
<path d="M93.7457 174.184L93.8921 176.92C93.9051 177.202 93.8287 177.482 93.671 177.729C93.5133 177.977 93.2804 178.182 92.9974 178.324C92.2758 178.665 91.4378 178.777 90.6303 178.639C88.3202 178.324 88.1169 177.755 87.9542 175.019C87.7915 172.282 93.7457 174.184 93.7457 174.184Z" fill="#E8A200"/>
<path d="M121.085 123.924C120.174 111.196 105.109 125.797 105.109 125.797L94.795 134.519L85.5059 143.318C84.6141 144.163 83.9457 145.166 83.5469 146.256C83.148 147.347 83.0282 148.499 83.1958 149.633L86.9538 174.31C87.0468 174.897 87.3847 175.435 87.9043 175.822C88.4239 176.21 89.0895 176.42 89.7763 176.415C90.2421 176.407 90.7068 176.371 91.1672 176.31C92.0625 176.223 92.8848 175.842 93.4633 175.247C94.0419 174.651 94.3324 173.886 94.2745 173.11L93.5831 150.026L113.105 139.887C113.105 139.887 122.012 136.645 121.085 123.924Z" fill="#FDD762"/>
<path d="M132.293 128.772C131.391 116.044 116.318 130.646 116.318 130.646L106.004 139.367L96.7229 148.166C95.8311 149.012 95.1627 150.015 94.7639 151.105C94.3651 152.195 94.2453 153.347 94.4128 154.481L98.1708 179.159C98.262 179.745 98.5983 180.283 99.1165 180.67C99.6348 181.058 100.299 181.269 100.985 181.264C101.454 181.255 101.921 181.22 102.384 181.158C103.28 181.073 104.102 180.693 104.68 180.096C105.258 179.5 105.545 178.734 105.483 177.959L104.8 154.874L124.322 144.735C124.322 144.735 133.204 141.493 132.293 128.772Z" fill="#FDD762"/>
<path d="M123.378 87.9215C134.766 92.0052 134.579 97.836 134.579 97.836C134.579 97.836 132.342 119.195 133.107 133.452C133.424 139.416 96.381 139.873 101.904 123.966C108.411 105.21 105.971 90.0265 109.021 87.7321C112.072 85.4376 120.425 86.862 123.378 87.9215Z" fill="#983BE9"/>
<path d="M127.055 93.0755C127.652 91.0753 125.582 88.8866 122.433 88.187C119.283 87.4874 116.246 88.5417 115.649 90.5419C115.051 92.5421 117.121 94.7308 120.27 95.4304C123.42 96.13 126.458 95.0757 127.055 93.0755Z" fill="#FFC2B0"/>
<path d="M122.223 96.1169C121.518 96.1155 120.816 96.0377 120.133 95.8853C116.692 95.1205 114.439 92.6717 115.114 90.4194C115.789 88.1671 119.132 86.9602 122.573 87.725C126.014 88.4898 128.267 90.9386 127.584 93.191C127.39 93.7689 127.038 94.2985 126.558 94.7355C126.079 95.1724 125.485 95.5041 124.826 95.7029C123.997 95.9814 123.114 96.1218 122.223 96.1169ZM120.475 88.3986C118.36 88.3986 116.586 89.2546 116.172 90.6229C115.651 92.363 117.554 94.2996 120.409 94.9381C121.731 95.2547 123.134 95.2031 124.42 94.7908C124.918 94.6466 125.368 94.402 125.735 94.0774C126.101 93.7528 126.373 93.3575 126.526 92.9243C127.047 91.1772 125.152 89.2406 122.297 88.6021C121.699 88.4868 121.087 88.435 120.475 88.4477V88.3986Z" fill="white"/>
<path d="M118.799 87.4795C118.864 88.6494 118.831 89.8219 118.701 90.9878C118.636 91.9701 122.622 92.8893 123.655 91.9982C124.688 91.1071 124.273 90.1879 124.517 86.848C124.761 83.5081 118.799 87.4795 118.799 87.4795Z" fill="#FFC2B0"/>
<path d="M124.517 86.855C124.517 86.855 123.541 89.9493 118.701 91.1351L118.775 88.3285L124.517 86.855Z" fill="#EA9C92"/>
<path d="M123.637 86.9254C127.716 84.6633 128.897 79.9769 126.275 76.4581C123.652 72.9393 118.22 71.9205 114.14 74.1826C110.061 76.4447 108.88 81.1311 111.503 84.6499C114.125 88.1687 119.558 89.1874 123.637 86.9254Z" fill="#FFC2B0"/>
<path d="M121.093 81.1575C121.093 81.1575 116.212 82.9468 112.894 82.9678C109.575 82.9889 110.282 80.5681 110.282 80.5681L120.239 79.3262L121.093 81.1575Z" fill="#EA9C92"/>
<path d="M111.893 81.6275C111.893 81.6275 116.115 80.0839 119.816 80.7294C120.692 80.8774 121.482 81.2813 122.053 81.8731C122.217 82.0746 122.454 82.2228 122.728 82.2941C123.387 82.4274 124.46 80.0769 125.737 80.0207C127.014 79.9646 127.86 80.7224 126.811 82.1959C125.762 83.6694 126.12 85.2551 126.599 85.4867C127.079 85.7182 132.188 82.3432 127.689 74.653C123.191 66.9628 111.747 71.1026 109.973 72.6603C109.973 72.6603 108.094 74.0636 106.573 72.8147C106.557 72.8147 104.865 83.8518 111.893 81.6275Z" fill="#FF2C9C"/>
<path d="M128.169 113.434V119.209C128.168 119.536 128.089 119.859 127.936 120.158C127.784 120.458 127.561 120.727 127.283 120.949L113.536 131.754L115.098 133.817L133.253 123.327C133.671 123.065 134.021 122.729 134.279 122.342C134.537 121.955 134.697 121.526 134.75 121.082L135.978 110.15L128.169 113.434Z" fill="#FFC2B0"/>
<path d="M133.611 94.9451C133.611 94.9451 137.784 100.355 139.305 114.592C139.305 114.592 132.179 116.584 128.137 115.455C124.094 114.325 133.611 94.9451 133.611 94.9451Z" fill="#983BE9"/>
<path d="M127.405 101.786C127.405 101.786 125.778 109.322 125.68 112.866C125.666 113.339 125.825 113.805 126.134 114.197C126.444 114.588 126.888 114.886 127.405 115.048V101.786Z" fill="#6614CF"/>
<path d="M123.842 139.262L120.808 138.911L101.197 129.144C100.81 128.996 100.388 128.926 99.9642 128.942C99.5408 128.958 99.1274 129.058 98.7565 129.235L84.8635 136.154L83.0251 135.943V137.515C83.0255 137.632 83.0647 137.746 83.1383 137.845C83.2118 137.943 83.3165 138.021 83.44 138.069L105.662 149.134C106.049 149.285 106.471 149.355 106.894 149.341C107.318 149.326 107.731 149.227 108.103 149.05L123.232 141.514C123.396 141.454 123.538 141.357 123.643 141.234C123.749 141.111 123.815 140.965 123.834 140.813L123.842 139.262Z" fill="#173D7A"/>
<path d="M109.111 133.087L107.712 132.386H92.4037L84.8471 136.147L83.0088 135.936V137.515C83.0091 137.632 83.0484 137.746 83.1219 137.845C83.1955 137.943 83.3002 138.021 83.4236 138.069L105.646 149.134C106.037 149.307 106.478 149.377 106.915 149.338L109.111 133.087Z" fill="#396CAA"/>
<path d="M83.8303 136.034L83.0168 135.943V137.515C83.0172 137.632 83.0564 137.746 83.13 137.845C83.2035 137.943 83.3082 138.021 83.4317 138.069L83.8303 138.266V136.034Z" fill="#5793CE"/>
<path d="M105.882 149.233C106.567 149.426 107.312 149.386 107.964 149.12V146.44H105.882V149.233Z" fill="#274F89"/>
<path d="M105.654 147.57L83.4318 136.497C82.8055 136.189 82.8868 135.641 83.6108 135.277L98.7402 127.748C99.1105 127.569 99.5241 127.468 99.9478 127.452C100.372 127.436 100.794 127.506 101.18 127.657L123.403 138.722C124.029 139.038 123.948 139.585 123.224 139.943L108.094 147.478C107.724 147.655 107.31 147.756 106.887 147.772C106.463 147.787 106.041 147.718 105.654 147.57Z" fill="white"/>
<path d="M105.28 145.893L86.8075 136.687C86.2787 136.427 86.3438 135.985 86.9539 135.67L95.088 131.74C95.3976 131.591 95.7436 131.506 96.0982 131.492C96.4528 131.479 96.8061 131.537 97.1297 131.663L115.61 140.869C116.131 141.128 116.066 141.571 115.464 141.886L107.33 145.816C107.019 145.966 106.672 146.052 106.316 146.065C105.959 146.079 105.605 146.02 105.28 145.893Z" fill="#D4ECFF"/>
<path d="M99.6025 127.383L99.3747 128.702C99.1794 129.83 99.2124 130.979 99.4723 132.098L99.7489 133.263C99.8253 133.583 100.011 133.877 100.282 134.105C100.553 134.334 100.897 134.488 101.27 134.547C101.411 134.57 101.556 134.567 101.696 134.54C101.836 134.512 101.968 134.46 102.083 134.386C102.199 134.312 102.295 134.218 102.367 134.111C102.438 134.003 102.483 133.884 102.498 133.761L102.864 130.954C102.864 130.954 103.678 131.902 104.109 131.902C104.54 131.902 103.653 129.095 102.742 127.467C101.831 125.839 99.6025 127.383 99.6025 127.383Z" fill="#FFC2B0"/>
<path d="M107.135 106.361L104.751 110.431C104.189 111.393 103.857 112.443 103.775 113.518L102.742 127.446L99.6023 127.383L98.1789 111.743C98.1367 111.26 98.164 110.774 98.2602 110.297L99.887 102.369L107.135 106.361Z" fill="#FFC2B0"/>
<path d="M104.93 148.629L103.068 146.524L83.4481 136.743C83.1013 136.53 82.8175 136.249 82.6197 135.923C82.4219 135.598 82.3155 135.237 82.3093 134.87V121.033L81.1868 119.763L82.2442 119.23C82.3675 119.162 82.5118 119.13 82.6573 119.136C82.8029 119.142 82.9427 119.187 83.0576 119.265L105.264 130.358C105.609 130.572 105.891 130.853 106.088 131.179C106.284 131.504 106.389 131.865 106.394 132.231V147.303C106.415 147.457 106.387 147.613 106.314 147.755C106.241 147.897 106.126 148.02 105.98 148.11L104.93 148.629Z" fill="#173D7A"/>
<path d="M91.3543 140.693L89.9634 139.992L82.3173 128.541V121.033L81.1948 119.763L82.2523 119.23C82.3755 119.162 82.5198 119.13 82.6654 119.136C82.811 119.142 82.9508 119.187 83.0657 119.265L105.272 130.358C105.628 130.568 105.91 130.86 106.085 131.2L91.3543 140.693Z" fill="#396CAA"/>
<path d="M81.6991 120.324L81.2029 119.763L82.2603 119.23C82.3836 119.162 82.5279 119.13 82.6735 119.136C82.8191 119.142 82.9588 119.187 83.0737 119.265L83.4642 119.461L81.6991 120.324Z" fill="#5793CE"/>
<path d="M105.435 130.498C105.972 130.914 106.304 131.492 106.362 132.112L104.198 133.193L103.157 131.635L105.435 130.498Z" fill="#274F89"/>
<path d="M104.182 130.891L81.9757 119.798C81.3412 119.489 80.8369 119.798 80.8369 120.542V135.613C80.8432 135.981 80.9495 136.342 81.1473 136.667C81.3451 136.993 81.6289 137.273 81.9757 137.487L104.182 148.58C104.808 148.896 105.321 148.58 105.321 147.836V132.765C105.314 132.397 105.207 132.037 105.009 131.711C104.812 131.386 104.528 131.105 104.182 130.891Z" fill="white"/>
<path d="M115.098 133.817L114.74 134.449C114.334 135.182 113.689 135.799 112.885 136.224L110.681 137.396C110.346 137.579 109.959 137.68 109.562 137.689C109.166 137.697 108.774 137.613 108.428 137.445L108.355 137.403C108.194 137.308 108.059 137.183 107.96 137.038C107.862 136.893 107.801 136.731 107.783 136.564C107.765 136.396 107.79 136.227 107.857 136.069C107.923 135.911 108.03 135.767 108.168 135.648L110.47 133.6C110.47 133.6 109.176 134.456 108.843 134.112C108.509 133.768 110.104 132.624 111.283 132.589C112.125 132.498 112.921 132.21 113.585 131.754L115.098 133.817Z" fill="#FFC2B0"/>
<path d="M109.249 87.697C109.249 87.697 100.806 95.6257 97.3979 102.902C99.7135 105.978 103.265 108.207 107.37 109.161C114.431 110.922 109.249 87.697 109.249 87.697Z" fill="#983BE9"/>
<path d="M105.744 108.691L107.11 97.2816L103.856 107.975C104.469 108.245 105.099 108.484 105.744 108.691Z" fill="#6614CF"/>
<path d="M115.586 86.1042L113.308 85.5639C113.947 86.4083 114.882 87.0548 115.976 87.4093C117.563 87.7882 117.807 86.6304 117.807 86.6304L115.586 86.1042Z" fill="white"/>
<defs>
<radialGradient id="paint0_radial_3_3951" cx="0" cy="0" r="1" gradientUnits="userSpaceOnUse" gradientTransform="translate(37.0591 143.598) scale(47.121 40.6474)">
<stop stop-color="#01C8EF"/>
<stop offset="0.09" stop-color="#03BEE9"/>
<stop offset="0.24" stop-color="#08A5D7"/>
<stop offset="0.43" stop-color="#107BBB"/>
<stop offset="0.45" stop-color="#1177B8"/>
<stop offset="1" stop-color="#112564"/>
</radialGradient>
</defs>
</svg>
