<svg width="24" height="25" viewBox="0 0 24 25" fill="none" xmlns="http://www.w3.org/2000/svg">
<path d="M22.5401 5.57967C22.4213 5.10508 22.1794 4.67024 21.8387 4.31907C21.4981 3.96791 21.0708 3.71285 20.6001 3.57967C18.8801 3.15967 12.0001 3.15967 12.0001 3.15967C12.0001 3.15967 5.12008 3.15967 3.40008 3.61967C2.92933 3.75285 2.50206 4.00791 2.16143 4.35907C1.8208 4.71024 1.57887 5.14508 1.46008 5.61967C1.1453 7.36522 0.991319 9.13598 1.00008 10.9097C0.988863 12.6967 1.14285 14.481 1.46008 16.2397C1.59104 16.6995 1.83839 17.1178 2.17823 17.4541C2.51806 17.7905 2.9389 18.0335 3.40008 18.1597C5.12008 18.6197 12.0001 18.6197 12.0001 18.6197C12.0001 18.6197 18.8801 18.6197 20.6001 18.1597C21.0708 18.0265 21.4981 17.7714 21.8387 17.4203C22.1794 17.0691 22.4213 16.6343 22.5401 16.1597C22.8524 14.4273 23.0064 12.67 23.0001 10.9097C23.0113 9.12262 22.8573 7.33837 22.5401 5.57967V5.57967Z" stroke="#293341" stroke-width="2" stroke-linecap="round" stroke-linejoin="round"/>
<path d="M9.75 14.1796L15.5 10.9096L9.75 7.63965V14.1796Z" stroke="#293341" stroke-width="2" stroke-linecap="round" stroke-linejoin="round"/>
</svg>
